<svg width="36" height="43" viewBox="0 0 36 43" fill="none" xmlns="http://www.w3.org/2000/svg">
<path d="M18 42.25C12.7875 41.025 8.48438 38.2338 5.09062 33.8763C1.69687 29.5188 0 24.68 0 19.36V6.55L18 0.25L36 6.55V19.36C36 24.68 34.3031 29.5188 30.9094 33.8763C27.5156 38.2338 23.2125 41.025 18 42.25ZM18 37.84C21.9 36.685 25.125 34.375 27.675 30.91C30.225 27.445 31.5 23.595 31.5 19.36V9.4375L18 4.7125L4.5 9.4375V19.36C4.5 23.595 5.775 27.445 8.325 30.91C10.875 34.375 14.1 36.685 18 37.84Z" fill="#D01A1C"/>
</svg>
