<svg width="18" height="32" viewBox="0 0 18 32" fill="none" xmlns="http://www.w3.org/2000/svg">
<path d="M0.658805 31.3279C0.236973 30.906 0 30.3337 0 29.7371C0 29.1404 0.236973 28.5682 0.658805 28.1463L12.5687 16.2364L0.658805 4.32649C0.248927 3.90211 0.0221281 3.33373 0.0272548 2.74375C0.0323816 2.15378 0.269024 1.58942 0.686214 1.17223C1.1034 0.755039 1.66776 0.518395 2.25774 0.513269C2.84771 0.508142 3.4161 0.734942 3.84047 1.14482L17.3412 14.6455C17.763 15.0675 18 15.6397 18 16.2364C18 16.833 17.763 17.4053 17.3412 17.8272L3.84047 31.3279C3.41851 31.7498 2.84629 31.9867 2.24964 31.9867C1.65299 31.9867 1.08076 31.7498 0.658805 31.3279Z" fill="#27B4E9"/>
</svg>
