<svg width="18" height="32" viewBox="0 0 18 32" fill="none" xmlns="http://www.w3.org/2000/svg">
<path d="M17.3412 1.17207C17.763 1.59403 18 2.16625 18 2.7629C18 3.35955 17.763 3.93178 17.3412 4.35374L5.43131 16.2636L17.3412 28.1735C17.7511 28.5979 17.9779 29.1663 17.9727 29.7562C17.9676 30.3462 17.731 30.9106 17.3138 31.3278C16.8966 31.745 16.3322 31.9816 15.7423 31.9867C15.1523 31.9919 14.5839 31.7651 14.1595 31.3552L0.658802 17.8545C0.236971 17.4325 0 16.8603 0 16.2636C0 15.667 0.236971 15.0947 0.658802 14.6728L14.1595 1.17207C14.5815 0.750235 15.1537 0.513264 15.7504 0.513264C16.347 0.513264 16.9192 0.750235 17.3412 1.17207Z" fill="#27B4E9"/>
</svg>
