<svg width="256" height="63" viewBox="0 0 256 63" fill="none" xmlns="http://www.w3.org/2000/svg">
<g opacity="0.4">
<g opacity="0.2">
<circle opacity="0.05" cx="1.5" cy="1.5" r="1.5" fill="#64858F"/>
<circle opacity="0.1" cx="24.5" cy="1.5" r="1.5" fill="#64858F"/>
<circle opacity="0.15" cx="47.5" cy="1.50001" r="1.5" fill="#64858F"/>
<circle opacity="0.2" cx="70.5" cy="1.50001" r="1.5" fill="#64858F"/>
<circle opacity="0.3" cx="93.5" cy="1.50002" r="1.5" fill="#64858F"/>
<circle opacity="0.4" cx="116.5" cy="1.50002" r="1.5" fill="#64858F"/>
<circle opacity="0.5" cx="139.5" cy="1.50002" r="1.5" fill="#64858F"/>
<circle opacity="0.6" cx="162.5" cy="1.50003" r="1.5" fill="#64858F"/>
<circle opacity="0.7" cx="185.5" cy="1.50003" r="1.5" fill="#64858F"/>
<circle opacity="0.8" cx="208.5" cy="1.50004" r="1.5" fill="#64858F"/>
<circle opacity="0.9" cx="231.5" cy="1.50004" r="1.5" fill="#64858F"/>
<circle cx="254.5" cy="1.50004" r="1.5" fill="#64858F"/>
</g>
<g opacity="0.5">
<circle opacity="0.05" cx="1.5" cy="16.5" r="1.5" fill="#64858F"/>
<circle opacity="0.1" cx="24.5" cy="16.5" r="1.5" fill="#64858F"/>
<circle opacity="0.15" cx="47.5" cy="16.5" r="1.5" fill="#64858F"/>
<circle opacity="0.2" cx="70.5" cy="16.5" r="1.5" fill="#64858F"/>
<circle opacity="0.3" cx="93.5" cy="16.5" r="1.5" fill="#64858F"/>
<circle opacity="0.4" cx="116.5" cy="16.5" r="1.5" fill="#64858F"/>
<circle opacity="0.5" cx="139.5" cy="16.5" r="1.5" fill="#64858F"/>
<circle opacity="0.6" cx="162.5" cy="16.5" r="1.5" fill="#64858F"/>
<circle opacity="0.7" cx="185.5" cy="16.5" r="1.5" fill="#64858F"/>
<circle opacity="0.8" cx="208.5" cy="16.5" r="1.5" fill="#64858F"/>
<circle opacity="0.9" cx="231.5" cy="16.5" r="1.5" fill="#64858F"/>
<circle cx="254.5" cy="16.5" r="1.5" fill="#64858F"/>
</g>
<g opacity="0.8">
<circle opacity="0.05" cx="1.5" cy="31.5" r="1.5" fill="#64858F"/>
<circle opacity="0.1" cx="24.5" cy="31.5" r="1.5" fill="#64858F"/>
<circle opacity="0.15" cx="47.5" cy="31.5" r="1.5" fill="#64858F"/>
<circle opacity="0.2" cx="70.5" cy="31.5" r="1.5" fill="#64858F"/>
<circle opacity="0.3" cx="93.5" cy="31.5" r="1.5" fill="#64858F"/>
<circle opacity="0.4" cx="116.5" cy="31.5" r="1.5" fill="#64858F"/>
<circle opacity="0.5" cx="139.5" cy="31.5" r="1.5" fill="#64858F"/>
<circle opacity="0.6" cx="162.5" cy="31.5" r="1.5" fill="#64858F"/>
<circle opacity="0.7" cx="185.5" cy="31.5" r="1.5" fill="#64858F"/>
<circle opacity="0.8" cx="208.5" cy="31.5" r="1.5" fill="#64858F"/>
<circle opacity="0.9" cx="231.5" cy="31.5" r="1.5" fill="#64858F"/>
<circle cx="254.5" cy="31.5" r="1.5" fill="#64858F"/>
</g>
<g opacity="0.5">
<circle opacity="0.05" cx="1.5" cy="46.5" r="1.5" fill="#64858F"/>
<circle opacity="0.1" cx="24.5" cy="46.5" r="1.5" fill="#64858F"/>
<circle opacity="0.15" cx="47.5" cy="46.5" r="1.5" fill="#64858F"/>
<circle opacity="0.2" cx="70.5" cy="46.5" r="1.5" fill="#64858F"/>
<circle opacity="0.3" cx="93.5" cy="46.5" r="1.5" fill="#64858F"/>
<circle opacity="0.4" cx="116.5" cy="46.5" r="1.5" fill="#64858F"/>
<circle opacity="0.5" cx="139.5" cy="46.5" r="1.5" fill="#64858F"/>
<circle opacity="0.6" cx="162.5" cy="46.5" r="1.5" fill="#64858F"/>
<circle opacity="0.7" cx="185.5" cy="46.5" r="1.5" fill="#64858F"/>
<circle opacity="0.8" cx="208.5" cy="46.5" r="1.5" fill="#64858F"/>
<circle opacity="0.9" cx="231.5" cy="46.5" r="1.5" fill="#64858F"/>
<circle cx="254.5" cy="46.5" r="1.5" fill="#64858F"/>
</g>
<g opacity="0.2">
<circle opacity="0.05" cx="1.5" cy="61.5" r="1.5" fill="#64858F"/>
<circle opacity="0.1" cx="24.5" cy="61.5" r="1.5" fill="#64858F"/>
<circle opacity="0.15" cx="47.5" cy="61.5" r="1.5" fill="#64858F"/>
<circle opacity="0.2" cx="70.5" cy="61.5" r="1.5" fill="#64858F"/>
<circle opacity="0.3" cx="93.5" cy="61.5" r="1.5" fill="#64858F"/>
<circle opacity="0.4" cx="116.5" cy="61.5" r="1.5" fill="#64858F"/>
<circle opacity="0.5" cx="139.5" cy="61.5" r="1.5" fill="#64858F"/>
<circle opacity="0.6" cx="162.5" cy="61.5" r="1.5" fill="#64858F"/>
<circle opacity="0.7" cx="185.5" cy="61.5" r="1.5" fill="#64858F"/>
<circle opacity="0.8" cx="208.5" cy="61.5" r="1.5" fill="#64858F"/>
<circle opacity="0.9" cx="231.5" cy="61.5" r="1.5" fill="#64858F"/>
<circle cx="254.5" cy="61.5" r="1.5" fill="#64858F"/>
</g>
</g>
</svg>
