<svg width="96" height="93" viewBox="0 0 96 93" fill="none" xmlns="http://www.w3.org/2000/svg">
<path d="M43.1242 0.0264664C43.0705 0.0399055 42.795 0.0869484 42.5194 0.12727C39.7912 0.564087 37.3048 2.53313 36.1758 5.14059C35.9205 5.72525 35.5979 6.77362 35.5979 7.02227C35.5979 7.10291 35.571 7.19027 35.5442 7.21043C35.5106 7.23059 35.2014 7.29108 34.8453 7.34484C33.3871 7.58005 32.0095 8.25208 30.9612 9.23996C30.3026 9.86494 29.8726 10.4429 29.4761 11.2493C29.1871 11.8474 28.8108 13.0369 28.8108 13.3729C28.8108 13.4939 28.7436 13.5275 28.327 13.5947C27.9238 13.6686 27.2652 13.8971 26.7612 14.1525C25.1417 14.9656 23.9792 16.4105 23.4886 18.2115C23.361 18.6887 23.3341 18.9306 23.3408 19.7841C23.3475 20.9534 23.4685 21.5044 23.9053 22.4318C24.584 23.8498 25.7868 24.9923 27.1846 25.5635C29.9666 26.6925 33.078 25.7517 34.8386 23.2517C34.8453 23.2383 35.0603 23.3189 35.309 23.4332C36.2027 23.8431 36.7806 23.9506 38.0171 23.9506C39.2132 23.9439 39.5089 23.8901 40.5236 23.5004C41.0881 23.2853 41.2695 23.2988 40.9403 23.534C39.9995 24.2194 39.4014 24.9049 38.9579 25.8323C38.5547 26.6656 38.4203 27.1831 38.3733 28.0836C38.2523 30.3954 39.4888 32.5257 41.5451 33.5472C43.393 34.4678 45.624 34.3402 47.3309 33.2179C47.7207 32.9625 48.5472 32.1897 48.816 31.8268L48.9571 31.6453L49.441 31.8469C50.2877 32.2098 50.9193 32.3375 51.8601 32.3375C52.8144 32.3375 53.4393 32.2233 54.1651 31.9141L54.6422 31.7125L54.8505 31.9074C55.126 32.1695 55.966 32.7273 56.4633 32.9692C57.6527 33.5606 58.6136 33.7958 60.0315 33.8429C61.6376 33.8966 62.7867 33.6681 64.1105 33.0297C65.3201 32.4518 66.6574 31.2959 67.3831 30.2072C67.9879 29.3067 68.5255 28.0097 68.633 27.1831L68.6801 26.8874L69.258 26.7059C71.6772 25.9533 73.6864 24.1455 74.5936 21.8875C76.3677 17.4924 73.8611 12.5127 69.0766 10.9536C68.0484 10.6176 67.3966 10.5168 66.1735 10.5168C65.0312 10.5168 64.3457 10.6042 63.4789 10.873L63.0757 11.0007L63.1294 10.6915C63.1563 10.5168 63.1832 9.8179 63.1765 9.13243C63.1697 8.02359 63.1496 7.82198 62.995 7.23732C62.7934 6.48465 62.3701 5.44972 62.0206 4.86506C61.3352 3.72261 60.1861 2.52641 59.084 1.7939C58.3112 1.28988 58.0559 1.15547 57.3234 0.859779C55.8854 0.281837 54.7631 0.0936699 53.1033 0.14743C51.5443 0.194473 50.5497 0.429684 49.199 1.06811L48.527 1.38396L48.0432 1.10171C47.1495 0.57753 45.9533 0.181034 44.8714 0.0600662C44.3473 -0.000415802 43.3594 -0.0205765 43.1242 0.0264664Z" fill="#FDFEFE"/>
<path d="M24.431 27.7483C22.0589 27.8021 21.9917 27.8155 21.9312 28.2322C21.9177 28.3531 21.8505 29.4485 21.7968 30.6716C21.5817 35.0264 20.184 59.0446 20.137 59.0916C20.1235 59.1051 18.6586 59.1454 16.8912 59.1723L13.6724 59.2328L13.5447 59.4075C13.4171 59.5755 13.4171 59.6494 13.5178 63.5741C13.7396 71.9274 13.8404 75.8184 13.9614 80.4151C14.0958 85.8114 14.089 85.677 14.2772 85.8652L14.4452 86.0332L18.9543 85.9862C21.4406 85.966 27.8716 85.9122 33.2475 85.8786C46.0154 85.798 48.9184 85.7577 48.999 85.677C49.0461 85.63 55.0469 85.6098 66.0878 85.6098H83.116L83.2773 85.4418L83.4453 85.2805V73.0765V60.8725L83.2773 60.7112C83.19 60.6171 83.0488 60.5432 82.9749 60.5432C82.8943 60.5432 79.6082 61.941 75.6636 63.6413C71.7191 65.3482 68.4465 66.7595 68.3927 66.7729C68.2986 66.7998 68.265 66.3831 68.1037 63.4531C67.9021 59.7771 67.9021 59.7906 67.4788 59.7502C67.3444 59.7368 64.4817 60.8994 58.2456 63.5069C53.2729 65.5834 49.1536 67.2904 49.0931 67.3105C48.9789 67.3441 48.9721 67.2097 48.9654 65.2071C48.9587 64.0243 48.9385 62.1964 48.9117 61.1346C48.8781 59.4008 48.8579 59.1924 48.7504 59.0849C48.6361 58.9707 48.4009 58.964 45.1552 58.964H41.681L41.4996 56.4775C41.4996 56.4775 39.9607 35.4833 39.9271 35.3758C39.8465 35.0734 39.7188 35.0532 36.8763 34.8919C35.3777 34.8113 34.0674 34.7575 33.9666 34.7777C33.6843 34.8382 33.6037 35.0331 33.5566 35.8126C33.4894 36.9013 32.3739 58.7287 32.3739 58.9102C32.3739 59.0648 32.3672 59.0648 31.5675 59.0648C30.788 59.0648 30.7612 59.058 30.7343 58.9102C30.7141 58.8296 30.0959 51.9749 29.35 43.6753C28.6108 35.3758 27.9858 28.4607 27.959 28.2994C27.9388 28.1448 27.8716 27.9432 27.8044 27.8625C27.6566 27.6811 27.4751 27.6744 24.431 27.7483Z" fill="#27B4E9"/>
<path d="M92.4835 92.9982C92.0854 93.0017 91.6896 92.9507 91.3128 92.8472C41.7592 79.2208 5.36378 92.5924 5.00087 92.734C4.58272 92.8914 4.13021 92.9808 3.66918 92.9972C3.20814 93.0137 2.74761 92.9567 2.31388 92.8296C1.88015 92.7026 1.48171 92.5079 1.14131 92.2567C0.800914 92.0055 0.525225 91.7028 0.329986 91.3657C0.134746 91.0286 0.0237797 90.6638 0.00342132 90.2922C-0.0169371 89.9206 0.0537115 89.5493 0.211333 89.1997C0.368955 88.8501 0.610464 88.5289 0.92207 88.2545C1.23368 87.9801 1.60928 87.7579 2.02743 87.6005C3.6078 87.006 41.3729 73.1247 93.619 87.4872C94.41 87.7041 95.0791 88.1412 95.5063 88.72C95.9334 89.2988 96.0906 89.9814 95.9496 90.6452C95.8086 91.309 95.3786 91.9106 94.7369 92.3419C94.0952 92.7731 93.2838 93.0058 92.4483 92.9982H92.4835Z" fill="#FDFEFE"/>
</svg>
