<svg width="84" height="83" viewBox="0 0 84 83" fill="none" xmlns="http://www.w3.org/2000/svg">
<path d="M39.9936 75.6102C39.22 75.6109 38.476 75.3127 37.9169 74.7779C37.3579 74.2431 37.0271 73.5131 36.9936 72.7402L35.5536 39.4102C35.5365 39.0162 35.5972 38.6227 35.7322 38.2522C35.8672 37.8817 36.0738 37.5414 36.3404 37.2508C36.6069 36.9601 36.928 36.7248 37.2854 36.5583C37.6429 36.3917 38.0296 36.2972 38.4236 36.2802C39.2192 36.2457 39.996 36.5287 40.583 37.0669C40.8736 37.3334 41.109 37.6546 41.2755 38.012C41.442 38.3695 41.5365 38.7562 41.5536 39.1502L42.9936 72.4902C43.0261 73.2843 42.7421 74.0589 42.204 74.6439C41.6659 75.2289 40.9177 75.5764 40.1236 75.6102H39.9936Z" fill="#27B4E9"/>
<path d="M79.5527 82.2809C79.2127 82.2847 78.8745 82.2306 78.5527 82.121C36.2227 67.681 5.13266 81.851 4.82266 82.001C4.46547 82.1677 4.07892 82.2625 3.68509 82.2799C3.29126 82.2973 2.89787 82.237 2.52736 82.1023C2.15685 81.9677 1.8165 81.7614 1.52572 81.4952C1.23494 81.229 0.999443 80.9081 0.832664 80.551C0.665885 80.1938 0.571095 79.8072 0.553704 79.4134C0.536313 79.0196 0.596663 78.6261 0.731308 78.2556C0.865953 77.8851 1.07226 77.5448 1.33844 77.254C1.60462 76.9632 1.92547 76.7277 2.28266 76.5609C3.63266 75.9309 35.8927 61.221 80.5227 76.441C81.1983 76.6708 81.7699 77.134 82.1348 77.7473C82.4997 78.3607 82.634 79.084 82.5135 79.7875C82.3931 80.4909 82.0258 81.1284 81.4776 81.5854C80.9295 82.0424 80.2363 82.289 79.5227 82.2809H79.5527Z" fill="#FDFEFE"/>
<path d="M37.8242 38.5004C37.8242 38.5004 37.7042 0.000386 79.5542 3.26039C79.5542 3.26039 78.7042 44.5904 37.8242 38.5004Z" fill="#27B4E9"/>
<path d="M46.5543 42.0005C43.7621 41.9886 40.9746 41.7713 38.2143 41.3504C37.4989 41.242 36.8468 40.8786 36.3782 40.3273C35.9096 39.776 35.6561 39.0739 35.6643 38.3504C35.6643 37.6404 35.7443 20.8204 47.8643 9.56045C55.8043 2.31045 66.8442 -0.869551 80.6842 0.200449C81.4499 0.259115 82.1638 0.609113 82.6791 1.17837C83.1944 1.74762 83.4719 2.4928 83.4543 3.26045C83.4543 4.06045 82.8843 23.1104 69.6343 34.2604C63.5543 39.4504 55.7943 42.0005 46.5543 42.0005ZM41.8843 35.8004C51.7743 36.8004 59.7843 34.7404 65.7343 29.7304C74.1243 22.6704 76.5543 11.3204 77.1943 6.00045C66.5543 5.72045 58.0843 8.40045 52.0343 14.0004C44.4243 21.0004 42.4143 31.0905 41.8843 35.8004Z" fill="#27B4E9"/>
<path d="M4.36312 15.061C4.36312 15.061 39.3631 7.61096 36.9431 45.911C36.9431 45.911 -0.676876 53.001 4.36312 15.061Z" fill="#27B4E9"/>
<path d="M30.5546 49.4598C24.2946 49.4598 15.3146 48.2198 8.8746 42.1298C2.4346 36.0398 0.0946038 26.8898 1.7146 14.6898C1.79606 14.0755 2.0657 13.5016 2.48648 13.0468C2.90727 12.592 3.45855 12.2786 4.0646 12.1498C4.7246 11.9998 20.4746 8.78977 31.1746 17.9998C38.0146 23.9098 41.0746 33.3698 40.2746 46.1098C40.2327 46.7756 39.97 47.4085 39.5281 47.9084C39.0862 48.4083 38.4903 48.7465 37.8346 48.8698C35.4285 49.2683 32.9934 49.4656 30.5546 49.4598ZM7.4146 17.7098C6.5946 26.7098 8.4146 33.4898 12.9446 37.7098C19.3646 43.8098 29.7646 43.7098 34.3846 43.2298C34.5746 33.7498 32.1846 26.7898 27.2746 22.5398C20.8646 16.9998 11.5546 17.2698 7.4146 17.7098Z" fill="#27B4E9"/>
</svg>
