<svg width="88" height="102" viewBox="0 0 88 102" fill="none" xmlns="http://www.w3.org/2000/svg">
<path d="M53.7576 0.017971C50.0113 0.290972 47.1322 0.969971 43.9687 2.29997C43.497 2.50297 43.1154 2.69897 43.1293 2.74097C43.1431 2.77597 43.386 3.49697 43.6704 4.32997C43.9548 5.16997 44.2185 5.85597 44.2601 5.85597C44.3017 5.85597 44.5653 5.75097 44.8498 5.61797C46.5426 4.83397 49.0262 4.09197 51.1907 3.72097C53.7229 3.29397 57.0668 3.29397 59.7378 3.72097C69.4643 5.28197 78.1501 12.17 82.5069 21.788C83.0758 23.048 83.6585 24.567 84.0054 25.701C84.1511 26.163 84.2898 26.569 84.3176 26.604C84.3592 26.646 87.1065 25.792 87.2175 25.701C87.2314 25.687 87.1065 25.274 86.9469 24.784C85.6357 20.682 83.6932 16.874 81.265 13.626C77.8865 9.11097 73.8072 5.68097 68.9509 3.26597C65.5237 1.56497 62.3394 0.61297 58.4752 0.15097C57.6218 0.0529709 54.5138 -0.0380287 53.7576 0.017971Z" fill="#FDFEFE"/>
<path d="M53.273 8.8663C51.7467 8.9923 50.0054 9.3213 48.5901 9.7553C47.6327 10.0423 45.8082 10.7633 45.7665 10.8683C45.7319 10.9733 46.6892 13.8013 46.7586 13.7873C46.7933 13.7803 47.1055 13.6473 47.4454 13.5003C50.2968 12.2543 53.8904 11.6663 56.9846 11.9463C60.9806 12.3103 64.5604 13.7523 67.8835 16.3353C68.8478 17.0843 70.8458 19.0793 71.609 20.0453C73.5237 22.4953 74.9251 25.1063 75.938 28.1513C76.1323 28.7253 76.2988 29.2153 76.3126 29.2223C76.3265 29.2433 79.1223 28.3403 79.164 28.2983C79.1848 28.2773 78.5743 26.4713 78.3315 25.8413C75.6397 18.9323 70.5198 13.4933 64.0886 10.7213C62.5624 10.0633 60.5297 9.4473 59.0381 9.1813C57.2205 8.8663 54.8548 8.7403 53.273 8.8663Z" fill="#FDFEFE"/>
<path d="M53.3086 16.923C51.6228 17.077 50.1798 17.434 48.5772 18.092C48.3205 18.197 48.1055 18.309 48.1055 18.351C48.1055 18.386 48.3136 19.044 48.5633 19.8L49.0143 21.172L49.4097 20.997C51.7824 19.926 55.3622 19.611 58.0747 20.241C62.161 21.186 65.4979 24.161 67.6971 28.823C68.044 29.565 68.5851 30.902 68.8141 31.595C68.8349 31.651 69.3136 31.518 70.3057 31.182L71.7764 30.692L71.7348 30.496C71.6585 30.097 71.041 28.473 70.6525 27.647C69.05 24.245 66.5247 21.361 63.4722 19.45C62.6952 18.967 61.1203 18.197 60.2254 17.868C58.0747 17.063 55.5078 16.713 53.3086 16.923Z" fill="#FDFEFE"/>
<path d="M17.6206 21.6889C17.4749 22.3889 17.3015 24.6079 17.2599 26.3299C17.024 35.2829 19.8268 44.3829 25.0369 51.6209C29.13 57.3049 34.2222 61.6099 40.5076 64.6969C48.7078 68.7219 57.8793 69.8629 66.8565 67.9729C73.8496 66.4959 80.4264 63.1569 85.803 58.3409L86.136 58.0329L69.7564 49.2969L53.3768 40.5539L53.6821 39.9869C53.8486 39.6719 54.2371 38.9229 54.5493 38.3139C55.0349 37.3759 55.1528 37.2079 55.3055 37.1799C56.4224 36.9489 56.9843 36.6479 57.6712 35.9199C58.2123 35.3389 58.5314 34.7649 58.7187 34.0229C59.3223 31.6499 57.803 29.4449 55.5691 29.4449C54.5354 29.4449 53.7029 29.8159 52.8842 30.6349C52.0309 31.4889 51.6424 32.4269 51.6424 33.6519C51.6424 34.3379 51.7465 34.8489 51.9893 35.3319L52.1211 35.5769L51.247 37.2709L50.3728 38.9579L49.8803 38.6919C48.9992 38.2089 17.8704 21.6049 17.7594 21.5629C17.69 21.5349 17.6414 21.5769 17.6206 21.6889ZM24.0725 30.1799C25.6682 31.0829 26.9933 31.8459 27.021 31.8739C27.0488 31.9089 27.1043 32.6369 27.1528 33.5049C27.3887 38.2579 28.1241 42.1079 29.6226 46.4199C30.2331 48.1629 31.357 50.9349 32.7653 54.1549L33.1191 54.9599L32.1132 53.9239C25.6821 47.3019 22.0329 39.6509 21.2975 31.2299C21.2073 30.2359 21.1241 28.5349 21.1588 28.5349C21.1657 28.5349 22.4769 29.2769 24.0725 30.1799Z" fill="#FDFEFE"/>
<path d="M30.5853 67.1202C27.4912 77.1372 25.5209 82.4502 22.8153 88.0852L22.0938 89.5762L39.4862 89.5342C49.0531 89.5062 56.8856 89.4782 56.8995 89.4712C56.9134 89.4572 56.6081 88.8202 56.2266 88.0572C54.0135 83.5912 51.8143 78.2432 50.1076 73.1612L49.8717 72.4612L49.2474 72.3422C47.4089 71.9852 45.4595 71.4812 43.8014 70.9422C40.9431 70.0112 37.509 68.3312 35.0184 66.6372C34.2692 66.1262 32.625 64.8872 32.0422 64.3832C31.8133 64.1872 31.6051 64.0262 31.5843 64.0262C31.5635 64.0262 31.1126 65.4192 30.5853 67.1202ZM33.9154 69.6472C34.5259 70.0742 35.0462 70.4382 35.0809 70.4662C35.1433 70.5222 34.7132 72.0062 34.2275 73.4412C32.3336 78.9642 29.51 84.0742 26.8182 86.8462C26.062 87.6232 25.9788 87.6932 26.0759 87.4412C26.1383 87.2872 26.7003 85.8802 27.3316 84.3122C29.4268 79.0692 30.8073 75.1142 32.1116 70.5712C32.5903 68.8982 32.6319 68.7792 32.7221 68.8352C32.7707 68.8632 33.3048 69.2272 33.9154 69.6472Z" fill="#27B4E9"/>
<path d="M79.7831 101.246C79.4431 101.25 79.105 101.195 78.7831 101.086C36.4531 86.6458 5.36313 100.816 5.05313 100.966C4.69594 101.133 4.30939 101.227 3.91556 101.245C3.52173 101.262 3.12833 101.202 2.75783 101.067C2.38732 100.933 2.04696 100.726 1.75619 100.46C1.46541 100.194 1.22991 99.873 1.06313 99.5158C0.896354 99.1586 0.801563 98.7721 0.784173 98.3782C0.766782 97.9844 0.827132 97.591 0.961777 97.2205C1.09642 96.85 1.30272 96.5096 1.56891 96.2189C1.83509 95.9281 2.15594 95.6926 2.51313 95.5258C3.86313 94.8958 36.1231 80.1858 80.7531 95.4058C81.4288 95.6356 82.0004 96.0988 82.3653 96.7122C82.7302 97.3255 82.8645 98.0489 82.744 98.7523C82.6236 99.4558 82.2563 100.093 81.7081 100.55C81.1599 101.007 80.4668 101.254 79.7531 101.246H79.7831Z" fill="#FDFEFE"/>
</svg>
