<svg width="116" height="87" viewBox="0 0 116 87" fill="none" xmlns="http://www.w3.org/2000/svg">
<circle cx="56.4453" cy="37.75" r="37.5" fill="#FDFEFE"/>
<path d="M44.7266 44.8328C45.0828 49.3047 48.6172 52.7875 54.9547 53.2V56.5H57.7672V53.1766C64.3297 52.7172 68.1641 49.2109 68.1641 44.1203C68.1641 39.4938 65.2297 37.1078 59.9844 35.8703L57.7672 35.3453V26.3594C60.5797 26.6781 62.3703 28.2156 62.8016 30.3438H67.7328C67.3766 26.0359 63.6828 22.6656 57.7672 22.3V19H54.9547V22.3703C49.3531 22.9187 45.5328 26.2891 45.5328 31.0563C45.5328 35.275 48.3734 37.9563 53.0937 39.0578L54.9547 39.5172V49.0516C52.0719 48.6156 50.1641 47.0359 49.7328 44.8328H44.7266ZM54.9313 34.6797C52.1656 34.0375 50.6656 32.7297 50.6656 30.7609C50.6656 28.5578 52.2828 26.9078 54.9547 26.425V34.675L54.9313 34.6797ZM58.175 40.2719C61.5359 41.05 63.0875 42.3109 63.0875 44.5375C63.0875 47.0781 61.1562 48.8219 57.7672 49.1406V40.1781L58.175 40.2719Z" fill="#27B4E9"/>
<path d="M56.4453 70.5625C47.7429 70.5625 39.3969 67.1055 33.2434 60.9519C27.0898 54.7984 23.6328 46.4524 23.6328 37.75C23.6328 29.0476 27.0898 20.7016 33.2434 14.5481C39.3969 8.39452 47.7429 4.9375 56.4453 4.9375C65.1477 4.9375 73.4937 8.39452 79.6473 14.5481C85.8008 20.7016 89.2578 29.0476 89.2578 37.75C89.2578 46.4524 85.8008 54.7984 79.6473 60.9519C73.4937 67.1055 65.1477 70.5625 56.4453 70.5625ZM56.4453 75.25C66.3909 75.25 75.9292 71.2991 82.9618 64.2665C89.9944 57.2339 93.9453 47.6956 93.9453 37.75C93.9453 27.8044 89.9944 18.2661 82.9618 11.2335C75.9292 4.20088 66.3909 0.25 56.4453 0.25C46.4997 0.25 36.9614 4.20088 29.9288 11.2335C22.8962 18.2661 18.9453 27.8044 18.9453 37.75C18.9453 47.6956 22.8962 57.2339 29.9288 64.2665C36.9614 71.2991 46.4997 75.25 56.4453 75.25Z" fill="#27B4E9"/>
<path d="M56.4453 63.5312C49.6077 63.5312 43.0501 60.815 38.2152 55.9801C33.3803 51.1452 30.6641 44.5876 30.6641 37.75C30.6641 30.9124 33.3803 24.3548 38.2152 19.5199C43.0501 14.685 49.6077 11.9688 56.4453 11.9688C63.2829 11.9688 69.8405 14.685 74.6754 19.5199C79.5103 24.3548 82.2266 30.9124 82.2266 37.75C82.2266 44.5876 79.5103 51.1452 74.6754 55.9801C69.8405 60.815 63.2829 63.5312 56.4453 63.5312ZM56.4453 65.875C60.1387 65.875 63.796 65.1475 67.2083 63.7341C70.6206 62.3207 73.721 60.249 76.3327 57.6374C78.9443 55.0257 81.016 51.9253 82.4294 48.513C83.8428 45.1007 84.5703 41.4434 84.5703 37.75C84.5703 34.0566 83.8428 30.3993 82.4294 26.987C81.016 23.5747 78.9443 20.4743 76.3327 17.8626C73.721 15.251 70.6206 13.1793 67.2083 11.7659C63.796 10.3525 60.1387 9.625 56.4453 9.625C48.9861 9.625 41.8324 12.5882 36.5579 17.8626C31.2835 23.1371 28.3203 30.2908 28.3203 37.75C28.3203 45.2092 31.2835 52.3629 36.5579 57.6374C41.8324 62.9118 48.9861 65.875 56.4453 65.875Z" fill="#27B4E9"/>
<path d="M111.751 86.2482C111.27 86.2517 110.792 86.2007 110.336 86.0972C50.4591 72.4708 6.48123 85.8424 6.04272 85.984C5.53746 86.1414 4.99067 86.2308 4.43359 86.2472C3.8765 86.2637 3.32003 86.2067 2.79594 86.0796C2.27184 85.9526 1.7904 85.7579 1.37908 85.5067C0.967771 85.2555 0.634647 84.9528 0.398733 84.6157C0.162819 84.2786 0.0287338 83.9138 0.00413409 83.5422C-0.0204656 83.1706 0.0649015 82.7993 0.255361 82.4497C0.445821 82.1001 0.737644 81.7789 1.11417 81.5045C1.49069 81.2301 1.94454 81.0079 2.44981 80.8505C4.35943 80.256 49.9923 66.3747 113.123 80.7372C114.079 80.9541 114.887 81.3912 115.403 81.97C115.92 82.5488 116.109 83.2314 115.939 83.8952C115.769 84.559 115.249 85.1606 114.474 85.5919C113.698 86.0231 112.718 86.2558 111.708 86.2482H111.751Z" fill="#FDFEFE"/>
</svg>
