<svg width="131" height="153" viewBox="0 0 131 153" fill="none" xmlns="http://www.w3.org/2000/svg">
<g filter="url(#filter0_d_1644_18236)">
<path d="M72.2446 0.25H17.9134C12.3211 0.25 7.7876 4.78348 7.7876 10.3758V45.0593C7.7876 50.6516 12.3211 55.1851 17.9134 55.1851H72.2446C77.8369 55.1851 82.3704 50.6516 82.3704 45.0593V10.3758C82.3704 4.78348 77.8369 0.25 72.2446 0.25Z" fill="#E94732"/>
</g>
<path d="M65.1883 39.8792C65.0064 39.8815 64.8292 39.9377 64.6791 40.0406C64.529 40.1435 64.4128 40.2885 64.345 40.4574C64.2773 40.6263 64.2611 40.8115 64.2984 40.9896C64.3358 41.1677 64.425 41.3307 64.5549 41.4581C64.6848 41.5856 64.8496 41.6717 65.0283 41.7056C65.2071 41.7395 65.3919 41.7198 65.5595 41.6488C65.727 41.5778 65.8698 41.4588 65.9698 41.3068C66.0699 41.1548 66.1226 40.9766 66.1215 40.7946C66.1215 40.6729 66.0972 40.5524 66.0501 40.4401C66.003 40.3279 65.934 40.2262 65.8471 40.1409C65.7602 40.0557 65.6572 39.9886 65.5441 39.9437C65.431 39.8988 65.31 39.8768 65.1883 39.8792ZM65.1883 41.5447C65.04 41.5447 64.8949 41.5007 64.7716 41.4183C64.6483 41.3358 64.5521 41.2187 64.4953 41.0816C64.4386 40.9446 64.4237 40.7938 64.4527 40.6483C64.4816 40.5028 64.553 40.3691 64.6579 40.2642C64.7628 40.1593 64.8965 40.0879 65.042 40.059C65.1875 40.03 65.3383 40.0449 65.4754 40.1016C65.6124 40.1584 65.7296 40.2545 65.812 40.3779C65.8944 40.5012 65.9384 40.6463 65.9384 40.7946C65.9384 40.8931 65.919 40.9906 65.8813 41.0816C65.8436 41.1726 65.7883 41.2553 65.7187 41.325C65.649 41.3946 65.5664 41.4499 65.4754 41.4876C65.3844 41.5253 65.2868 41.5447 65.1883 41.5447Z" fill="#FDFEFE"/>
<path d="M64.8076 40.2928V41.285H64.9376V40.8834H65.1088L65.3864 41.2909H65.5518L65.2447 40.8479C65.281 40.8495 65.3174 40.8437 65.3514 40.8307C65.3854 40.8177 65.4164 40.7978 65.4424 40.7724C65.4685 40.7469 65.489 40.7163 65.5027 40.6826C65.5164 40.6489 65.5231 40.6127 65.5222 40.5762C65.5222 40.2987 65.1797 40.2987 65.1797 40.2987L64.8076 40.2928ZM64.9435 40.4345H65.1502C65.3569 40.4345 65.3569 40.5703 65.3569 40.5703L65.286 40.7062L65.1147 40.7416H64.9376V40.4345H64.9435Z" fill="#FDFEFE"/>
<path d="M45.0832 42.1342C57.0475 42.1342 66.7465 35.6796 66.7465 27.7176C66.7465 19.7555 57.0475 13.301 45.0832 13.301C33.1189 13.301 23.4199 19.7555 23.4199 27.7176C23.4199 35.6796 33.1189 42.1342 45.0832 42.1342Z" stroke="#FDFEFE" stroke-width="1.5" stroke-linecap="round" stroke-linejoin="round"/>
<path d="M29.2036 18.3093C31.4394 19.3763 33.8324 20.0763 36.2908 20.3823C37.9988 20.2689 39.6907 19.982 41.3405 19.5259" stroke="#FDFEFE" stroke-width="1.5" stroke-linecap="round" stroke-linejoin="round"/>
<path d="M61.6136 18.4037C59.9213 19.5415 57.9105 20.1105 55.8729 20.0278C52.1698 20.0278 48.957 17.5886 45.6378 17.5886C42.6848 17.5886 37.6528 22.4434 37.6528 23.3234C37.6528 24.2034 39.1057 24.7526 40.2869 24.162C40.9779 23.8254 43.9664 20.9255 46.376 20.9255C48.7857 20.9255 56.6171 28.8868 57.3258 29.6015C58.4243 30.7531 56.2981 33.2396 54.9634 31.8812C53.6286 30.5228 51.1776 28.3376 51.1776 28.3376" stroke="#FDFEFE" stroke-width="1.5" stroke-linecap="round" stroke-linejoin="round"/>
<path d="M66.6296 26.2527C63.3065 26.6481 60.087 27.6638 57.1387 29.2471" stroke="#FDFEFE" stroke-width="1.5" stroke-linecap="round" stroke-linejoin="round"/>
<path d="M54.6106 31.5564C55.7091 32.708 53.583 35.1945 52.2482 33.8361C50.9134 32.4777 49.3838 31.0425 49.3838 31.0425" stroke="#FDFEFE" stroke-width="1.5" stroke-linecap="round" stroke-linejoin="round"/>
<path d="M51.8926 33.5114C52.9911 34.6926 50.8649 37.1495 49.5302 35.7911C48.1954 34.4327 47.2563 33.6118 47.2563 33.6118" stroke="#FDFEFE" stroke-width="1.5" stroke-linecap="round" stroke-linejoin="round"/>
<path d="M45.3037 35.8443C45.7472 36.3608 46.3776 36.6802 47.0565 36.7322C47.7353 36.7843 48.407 36.5647 48.9241 36.1219C49.0894 35.9793 49.2362 35.8166 49.3611 35.6376" stroke="#FDFEFE" stroke-width="1.5" stroke-linecap="round" stroke-linejoin="round"/>
<path d="M45.3015 35.8442C45.8921 35.0705 45.8507 32.3006 42.8091 32.8617C43.5238 31.5033 42.8859 29.3653 40.1573 30.6292C40.1166 30.2344 39.9516 29.8628 39.6859 29.568C39.4203 29.2731 39.0678 29.0703 38.6794 28.9889C38.2911 28.9074 37.8868 28.9514 37.5251 29.1146C37.1633 29.2778 36.8628 29.5517 36.6669 29.8968C36.6103 29.5445 36.4388 29.2207 36.1791 28.9759C35.9194 28.7311 35.5861 28.579 35.231 28.5433C34.8759 28.5076 34.519 28.5902 34.2158 28.7784C33.9125 28.9666 33.68 29.2498 33.5544 29.5838C32.9638 30.8123 33.8851 33.0211 35.8755 31.7809C35.6747 33.9366 36.8086 34.598 38.858 33.7535C38.9702 35.8796 40.3759 35.6965 41.3858 35.2004C41.481 35.6152 41.6974 35.9923 42.0076 36.2836C42.3178 36.575 42.7077 36.7674 43.1276 36.8365C43.5475 36.9055 43.9785 36.848 44.3656 36.6713C44.7527 36.4946 45.0785 36.2067 45.3015 35.8442Z" stroke="#FDFEFE" stroke-width="1.5" stroke-linecap="round" stroke-linejoin="round"/>
<path d="M23.5967 25.804C27.209 26.0671 30.6855 27.2905 33.6664 29.3477" stroke="#FDFEFE" stroke-width="1.5" stroke-linecap="round" stroke-linejoin="round"/>
<g filter="url(#filter1_d_1644_18236)">
<path d="M116.874 42.9652H62.5428C56.9505 42.9652 52.417 47.4987 52.417 53.091V87.7745C52.417 93.3668 56.9505 97.9003 62.5428 97.9003H116.874C122.466 97.9003 127 93.3668 127 87.7745V53.091C127 47.4987 122.466 42.9652 116.874 42.9652Z" fill="#D01A1C"/>
</g>
<g filter="url(#filter2_d_1644_18236)">
<path d="M68.457 89.9132H14.1258C8.53348 89.9132 4 94.4467 4 100.039V134.722C4 140.315 8.53348 144.848 14.1258 144.848H68.457C74.0493 144.848 78.5828 140.315 78.5828 134.722V100.039C78.5828 94.4467 74.0493 89.9132 68.457 89.9132Z" fill="#E94732"/>
</g>
<path d="M47.7443 107.952C47.7443 107.952 46.4203 106.234 44.9836 106.234C44.9836 106.234 43.3263 106.234 41.8662 108.309C40.772 110.008 39.9602 111.872 39.4623 113.83C39.4623 113.83 38.4388 110.29 37.0303 108.309C37.0303 108.309 35.5702 106.234 33.9457 106.234C33.9457 106.234 32.4855 106.234 31.1287 107.952C30.1473 109.411 29.3923 111.01 28.8892 112.694C28.8892 112.694 26.814 119.159 26.814 128.281H29.9878C29.9878 128.281 29.9878 119.83 31.1568 113.797C31.4298 112.302 31.8432 110.835 32.3916 109.417C32.3916 109.417 33.1381 107.825 33.9504 107.825C33.9504 107.825 34.7297 107.825 35.4763 109.285C36.0467 110.586 36.4612 111.949 36.711 113.347C37.5186 117.759 37.91 122.237 37.8801 126.723H41.0211C41.0211 126.723 41.0211 118.896 42.1901 113.347C42.4832 111.96 42.8964 110.601 43.4249 109.285C43.4249 109.285 44.1714 107.825 44.9836 107.825C44.9836 107.825 45.763 107.825 46.5095 109.417C47.0865 110.828 47.5114 112.296 47.7772 113.797C48.5631 118.585 48.9431 123.43 48.9134 128.281H52.0543C52.0543 128.281 52.0543 119.159 49.9744 112.694C49.9744 112.694 49.0026 109.642 47.7349 107.952M53.7117 125.976C53.5054 125.984 53.3087 126.066 53.1577 126.206C53.0022 126.348 52.9093 126.546 52.8994 126.756C52.9056 126.977 52.9983 127.188 53.1577 127.342C53.3014 127.498 53.5003 127.591 53.7117 127.601C53.8209 127.598 53.9286 127.574 54.0285 127.53C54.1284 127.485 54.2186 127.422 54.2939 127.342C54.4359 127.179 54.5171 126.972 54.5239 126.756C54.5168 126.551 54.435 126.355 54.2939 126.206C54.1359 126.065 53.9331 125.983 53.7211 125.976H53.7117ZM53.7117 126.075C53.886 126.081 54.0524 126.15 54.1812 126.267C54.2989 126.397 54.3685 126.562 54.3784 126.737L54.1812 127.258C54.0515 127.374 53.8857 127.442 53.7117 127.45L53.2422 127.258C53.1181 127.112 53.0484 126.928 53.045 126.737C53.054 126.562 53.1238 126.396 53.2422 126.267C53.3625 126.154 53.5185 126.086 53.6835 126.075H53.7117Z" fill="#FDFEFE"/>
<path d="M53.4634 126.394V127.183H53.5714V126.859H53.7075L53.9235 127.183H54.0596L53.8155 126.831C53.844 126.831 53.8724 126.826 53.8989 126.816C53.9254 126.805 53.9495 126.789 53.9696 126.769C53.9898 126.749 54.0057 126.725 54.0163 126.698C54.027 126.672 54.0321 126.643 54.0315 126.615C54.0315 126.394 53.7592 126.394 53.7592 126.394H53.4634ZM53.5714 126.502H53.731C53.8953 126.502 53.8953 126.615 53.8953 126.615L53.8437 126.723H53.7075H53.5714V126.479V126.502Z" fill="#FDFEFE"/>
<path d="M99.5564 79.3974C99.3758 79.3974 99.1993 79.451 99.0492 79.5515C98.8991 79.6519 98.7822 79.7947 98.7134 79.9617C98.6445 80.1286 98.6268 80.3123 98.6625 80.4893C98.6981 80.6664 98.7856 80.8288 98.9137 80.9561C99.0418 81.0834 99.2048 81.1698 99.3821 81.2043C99.5594 81.2388 99.7429 81.2199 99.9094 81.15C100.076 81.0801 100.218 80.9623 100.317 80.8116C100.417 80.6609 100.469 80.484 100.468 80.3034C100.468 80.1839 100.445 80.0656 100.399 79.9553C100.353 79.845 100.286 79.7449 100.201 79.6607C100.116 79.5765 100.015 79.5099 99.9049 79.4647C99.7943 79.4195 99.6759 79.3966 99.5564 79.3974ZM99.5564 81.0458C99.4096 81.0458 99.266 81.0022 99.144 80.9207C99.0219 80.8391 98.9267 80.7231 98.8705 80.5875C98.8143 80.4518 98.7996 80.3026 98.8283 80.1586C98.8569 80.0146 98.9276 79.8823 99.0315 79.7785C99.1353 79.6747 99.2676 79.604 99.4116 79.5753C99.5556 79.5467 99.7048 79.5614 99.8405 79.6176C99.9761 79.6738 100.092 79.7689 100.174 79.891C100.255 80.0131 100.299 80.1566 100.299 80.3034C100.3 80.4011 100.281 80.498 100.244 80.5884C100.207 80.6788 100.152 80.761 100.083 80.8301C100.014 80.8992 99.9318 80.9538 99.8414 80.9908C99.751 81.0279 99.6541 81.0465 99.5564 81.0458Z" fill="#FDFEFE"/>
<path d="M99.189 79.8184V80.7946H99.3234V80.3913H99.4929L99.7618 80.7946H99.9313L99.6274 80.3562C99.6629 80.357 99.6982 80.3506 99.7312 80.3374C99.7642 80.3241 99.7941 80.3043 99.8193 80.2792C99.8444 80.2541 99.8642 80.2241 99.8774 80.1911C99.8906 80.1582 99.897 80.1228 99.8962 80.0873C99.8962 79.8184 99.5572 79.8184 99.5572 79.8184H99.189ZM99.3234 79.9529H99.528C99.7267 79.9529 99.7267 80.0873 99.7267 80.0873L99.6624 80.2217L99.4929 80.2568H99.3234V79.9529Z" fill="#FDFEFE"/>
<path d="M99.2875 75.715C98.9246 76.5614 98.476 77.3683 97.9489 78.1233C97.4433 78.8816 96.8551 79.5815 96.1953 80.2101C95.6063 80.8032 94.815 81.1519 93.9799 81.1863C93.2714 81.1563 92.5751 80.9917 91.9282 80.7011C91.2325 80.3958 90.484 80.229 89.7245 80.2101C88.9439 80.2257 88.1737 80.3925 87.4565 80.7011C86.835 80.9805 86.1712 81.1544 85.4925 81.2155C85.0663 81.2088 84.6459 81.1163 84.2562 80.9436C83.8666 80.7708 83.5157 80.5214 83.2245 80.2101C82.5475 79.5573 81.942 78.8343 81.4183 78.0532C80.6073 76.8849 79.9657 75.6077 79.5127 74.2596C79.0013 72.8018 78.7385 71.2685 78.7353 69.7236C78.692 68.2117 79.0661 66.7171 79.8167 65.4039C80.3632 64.4563 81.1442 63.6652 82.0847 63.1067C83.013 62.5517 84.072 62.2532 85.1535 62.2416C85.9716 62.2905 86.7758 62.4763 87.5325 62.791C88.1316 63.0675 88.7644 63.264 89.4147 63.3756C90.1306 63.2228 90.8296 62.9996 91.5015 62.7092C92.4016 62.3474 93.3669 62.1762 94.3365 62.2065C95.2614 62.231 96.1684 62.4678 96.9873 62.8986C97.8062 63.3293 98.5152 63.9425 99.0595 64.6908C98.3052 65.1083 97.6608 65.699 97.1793 66.4141C96.6977 67.1292 96.3928 67.9484 96.2895 68.8043C96.1862 69.6603 96.2875 70.5285 96.5851 71.3377C96.8828 72.1468 97.3682 72.8737 98.0015 73.4587C98.5021 73.9375 99.0867 74.3199 99.7258 74.5869C99.5934 74.9766 99.4472 75.3663 99.2875 75.756V75.715ZM94.4768 56.7879C94.4652 58.0838 93.9809 59.331 93.1148 60.2951C92.0217 61.5752 90.6948 62.3176 89.2569 62.2007C89.2477 62.043 89.2477 61.8849 89.2569 61.7272C89.3036 60.4221 89.8181 59.1773 90.7065 58.22C91.188 57.6556 91.7785 57.1944 92.4426 56.8639C93.0687 56.5355 93.7546 56.3367 94.4592 56.2794C94.4678 56.4449 94.4678 56.6107 94.4592 56.7762L94.4768 56.7879Z" fill="#FDFEFE"/>
<path d="M36.625 68.9707C36.625 68.9707 36.3975 64.8867 33.0053 63.9848V61.7148H29.3907V63.9848C29.3907 63.9848 25.7711 64.684 25.7711 68.9707C25.7711 73.2573 29.8154 74.4075 30.7456 74.4075C31.6758 74.4075 33.0053 74.8585 33.0053 76.2215C33.0296 76.4653 32.9997 76.7114 32.9177 76.9422C32.8357 77.1731 32.7036 77.3828 32.531 77.5563C32.3584 77.7298 32.1495 77.8627 31.9194 77.9456C31.6894 78.0284 31.4439 78.0591 31.2006 78.0354C30.9619 78.0388 30.7251 77.9942 30.504 77.9043C30.2828 77.8143 30.082 77.6809 29.9132 77.5117C29.7445 77.3426 29.6113 77.1413 29.5216 76.9197C29.4318 76.698 29.3873 76.4606 29.3907 76.2215H25.7711C25.7711 76.2215 25.3212 79.3934 29.3907 81.2073V83.4723H33.0053V81.2073C33.0053 81.2073 36.625 80.0723 36.625 76.2215C36.6451 75.5205 36.526 74.8224 36.2746 74.168C36.0231 73.5135 35.6444 72.9157 35.1603 72.4093C34.6762 71.9029 34.0965 71.498 33.4549 71.2183C32.8133 70.9385 32.1226 70.7894 31.423 70.7796C29.4008 70.7796 29.4008 69.4216 29.4008 68.9707C29.3893 68.7294 29.4282 68.4884 29.5151 68.263C29.6019 68.0377 29.7348 67.8331 29.9053 67.6623C30.0757 67.4915 30.2798 67.3583 30.5046 67.2712C30.7295 67.1841 30.9699 67.1451 31.2107 67.1567C32.793 67.1567 33.0154 68.2866 33.0154 68.9707H36.6351" fill="#27B4E9"/>
<path d="M105.161 113.487C105.161 113.487 104.934 109.403 101.541 108.501V106.231H97.9269V108.501C97.9269 108.501 94.3072 109.2 94.3072 113.487C94.3072 117.774 98.3515 118.924 99.2817 118.924C100.212 118.924 101.541 119.375 101.541 120.738C101.566 120.982 101.536 121.228 101.454 121.459C101.372 121.69 101.24 121.899 101.067 122.073C100.894 122.246 100.686 122.379 100.456 122.462C100.226 122.545 99.98 122.576 99.7367 122.552C99.4981 122.555 99.2612 122.511 99.0401 122.421C98.819 122.331 98.6181 122.197 98.4494 122.028C98.2806 121.859 98.1474 121.658 98.0577 121.436C97.968 121.214 97.9235 120.977 97.9269 120.738H94.3072C94.3072 120.738 93.8573 123.91 97.9269 125.724V127.989H101.541V125.724C101.541 125.724 105.161 124.589 105.161 120.738C105.181 120.037 105.062 119.339 104.811 118.684C104.559 118.03 104.181 117.432 103.696 116.926C103.212 116.419 102.633 116.014 101.991 115.735C101.349 115.455 100.659 115.306 99.9591 115.296C97.937 115.296 97.937 113.938 97.937 113.487C97.9254 113.246 97.9643 113.005 98.0512 112.779C98.1381 112.554 98.271 112.35 98.4414 112.179C98.6118 112.008 98.816 111.875 99.0408 111.788C99.2656 111.701 99.5061 111.662 99.7468 111.673C101.329 111.673 101.552 112.803 101.552 113.487H105.171" fill="#27B4E9"/>
<path d="M103.857 19.9301C103.857 19.9301 103.629 15.8462 100.237 14.9442V12.6743H96.6227V14.9442C96.6227 14.9442 93.003 15.6435 93.003 19.9301C93.003 24.2167 97.0473 25.3669 97.9775 25.3669C98.9077 25.3669 100.237 25.8179 100.237 27.1809C100.262 27.4247 100.232 27.6709 100.15 27.9017C100.068 28.1325 99.9355 28.3422 99.7629 28.5157C99.5903 28.6892 99.3814 28.8222 99.1514 28.905C98.9213 28.9879 98.6758 29.0186 98.4325 28.9949C98.1939 28.9983 97.957 28.9537 97.7359 28.8637C97.5148 28.7738 97.3139 28.6403 97.1452 28.4712C96.9764 28.302 96.8432 28.1007 96.7535 27.8791C96.6638 27.6575 96.6193 27.4201 96.6227 27.1809H93.003C93.003 27.1809 92.5531 30.3528 96.6227 32.1668V34.4317H100.237V32.1668C100.237 32.1668 103.857 31.0318 103.857 27.1809C103.877 26.4799 103.758 25.7819 103.507 25.1274C103.255 24.473 102.876 23.8751 102.392 23.3687C101.908 22.8624 101.328 22.4575 100.687 22.1777C100.045 21.8979 99.3546 21.7488 98.6549 21.739C96.6328 21.739 96.6328 20.3811 96.6328 19.9301C96.6212 19.6888 96.6601 19.4478 96.747 19.2225C96.8339 18.9971 96.9668 18.7925 97.1372 18.6217C97.3076 18.4509 97.5118 18.3177 97.7366 18.2306C97.9614 18.1436 98.2019 18.1046 98.4426 18.1162C100.025 18.1162 100.247 19.2461 100.247 19.9301H103.867" fill="#27B4E9"/>
<defs>
<filter id="filter0_d_1644_18236" x="3.7876" y="0.25" width="82.583" height="62.9351" filterUnits="userSpaceOnUse" color-interpolation-filters="sRGB">
<feFlood flood-opacity="0" result="BackgroundImageFix"/>
<feColorMatrix in="SourceAlpha" type="matrix" values="0 0 0 0 0 0 0 0 0 0 0 0 0 0 0 0 0 0 127 0" result="hardAlpha"/>
<feOffset dy="4"/>
<feGaussianBlur stdDeviation="2"/>
<feComposite in2="hardAlpha" operator="out"/>
<feColorMatrix type="matrix" values="0 0 0 0 0 0 0 0 0 0 0 0 0 0 0 0 0 0 0.25 0"/>
<feBlend mode="normal" in2="BackgroundImageFix" result="effect1_dropShadow_1644_18236"/>
<feBlend mode="normal" in="SourceGraphic" in2="effect1_dropShadow_1644_18236" result="shape"/>
</filter>
<filter id="filter1_d_1644_18236" x="48.417" y="42.9652" width="82.583" height="62.9351" filterUnits="userSpaceOnUse" color-interpolation-filters="sRGB">
<feFlood flood-opacity="0" result="BackgroundImageFix"/>
<feColorMatrix in="SourceAlpha" type="matrix" values="0 0 0 0 0 0 0 0 0 0 0 0 0 0 0 0 0 0 127 0" result="hardAlpha"/>
<feOffset dy="4"/>
<feGaussianBlur stdDeviation="2"/>
<feComposite in2="hardAlpha" operator="out"/>
<feColorMatrix type="matrix" values="0 0 0 0 0 0 0 0 0 0 0 0 0 0 0 0 0 0 0.25 0"/>
<feBlend mode="normal" in2="BackgroundImageFix" result="effect1_dropShadow_1644_18236"/>
<feBlend mode="normal" in="SourceGraphic" in2="effect1_dropShadow_1644_18236" result="shape"/>
</filter>
<filter id="filter2_d_1644_18236" x="0" y="89.9132" width="82.583" height="62.9351" filterUnits="userSpaceOnUse" color-interpolation-filters="sRGB">
<feFlood flood-opacity="0" result="BackgroundImageFix"/>
<feColorMatrix in="SourceAlpha" type="matrix" values="0 0 0 0 0 0 0 0 0 0 0 0 0 0 0 0 0 0 127 0" result="hardAlpha"/>
<feOffset dy="4"/>
<feGaussianBlur stdDeviation="2"/>
<feComposite in2="hardAlpha" operator="out"/>
<feColorMatrix type="matrix" values="0 0 0 0 0 0 0 0 0 0 0 0 0 0 0 0 0 0 0.25 0"/>
<feBlend mode="normal" in2="BackgroundImageFix" result="effect1_dropShadow_1644_18236"/>
<feBlend mode="normal" in="SourceGraphic" in2="effect1_dropShadow_1644_18236" result="shape"/>
</filter>
</defs>
</svg>
