<svg width="123" height="159" viewBox="0 0 123 159" fill="none" xmlns="http://www.w3.org/2000/svg">
<g filter="url(#filter0_d_1644_18264)">
<path d="M99.3393 10.25H23.6607C15.0115 10.25 8 16.4041 8 23.9956V134.891C8 142.483 15.0115 148.637 23.6607 148.637H99.3393C107.988 148.637 115 142.483 115 134.891V23.9956C115 16.4041 107.988 10.25 99.3393 10.25Z" fill="#E94732"/>
<path d="M22.2667 148.637C18.3709 148.525 14.6921 147.318 12.0239 145.274C9.35568 143.231 7.91196 140.515 8.00416 137.713V21.1733C7.91196 18.3715 9.35568 15.656 12.0239 13.6125C14.6921 11.569 18.3709 10.3613 22.2667 10.25" fill="#D01A1C"/>
<path d="M83.6137 108.69H45.0938V111.543H83.6137V108.69Z" fill="#FDFEFE"/>
<path d="M69.1229 123.571C69.1229 123.571 68.9246 119.94 65.8886 119.131V117.118H62.6086V119.131C61.6305 119.368 60.7682 119.944 60.1757 120.757C59.5832 121.57 59.2992 122.568 59.3743 123.571C59.3769 124.787 59.8335 125.959 60.6547 126.856C61.4759 127.754 62.6025 128.312 63.8138 128.422C64.6224 128.422 65.8276 128.819 65.8276 130.039C65.841 130.255 65.8083 130.472 65.7318 130.674C65.6553 130.876 65.5366 131.06 65.3837 131.213C65.2308 131.366 65.0471 131.484 64.8448 131.561C64.6426 131.637 64.4263 131.67 64.2105 131.657C63.9959 131.668 63.7813 131.633 63.5809 131.556C63.3805 131.478 63.1987 131.359 63.0475 131.207C62.8962 131.054 62.779 130.871 62.7033 130.67C62.6277 130.469 62.5954 130.254 62.6086 130.039H59.3743C59.3743 130.039 58.9624 132.862 62.6086 134.479V136.493H65.8276V134.479C66.8857 134.117 67.7831 133.395 68.3634 132.439C68.9437 131.483 69.1701 130.354 69.0031 129.248C68.836 128.142 68.2861 127.13 67.4493 126.388C66.6125 125.646 65.5419 125.221 64.4241 125.188C62.6086 125.188 62.6086 123.983 62.6086 123.571C62.5954 123.356 62.6277 123.142 62.7033 122.94C62.779 122.739 62.8962 122.556 63.0475 122.404C63.1987 122.251 63.3805 122.132 63.5809 122.054C63.7813 121.977 63.9959 121.943 64.2105 121.954C64.4263 121.94 64.6426 121.973 64.8448 122.05C65.0471 122.126 65.2308 122.245 65.3837 122.398C65.5366 122.551 65.6553 122.734 65.7318 122.937C65.8083 123.139 65.841 123.355 65.8276 123.571H69.1229Z" fill="#27B4E9"/>
<path d="M67.1494 77.5438L81.6731 102.716L84.4039 96.217L91.681 97.1476L77.1421 71.9448L67.1494 77.5438Z" fill="#FDFEFE"/>
<path d="M61.7631 77.5438L47.2242 102.716L44.4934 96.217L37.2163 97.1476L51.7705 71.9448L61.7631 77.5438Z" fill="#FDFEFE"/>
<path d="M55.3256 74.0045L53.3424 70.4956C53.1449 70.1136 52.8665 69.7793 52.5266 69.5158C52.1867 69.2523 51.7935 69.0661 51.3744 68.97L46.6908 67.9632C45.9667 67.779 45.3353 67.3357 44.9163 66.717C44.4973 66.0984 44.3199 65.3476 44.4176 64.6068L45.0737 60.7929C45.1437 60.3511 45.1158 59.8994 44.9919 59.4697C44.8679 59.04 44.6511 58.6427 44.3566 58.3061L41.3054 54.843C40.8286 54.2893 40.5664 53.5828 40.5664 52.8521C40.5664 52.1214 40.8286 51.415 41.3054 50.8612L44.4176 47.3829C44.686 47.0806 44.8916 46.7281 45.0225 46.3457C45.1535 45.9634 45.2072 45.5588 45.1804 45.1555L44.8448 40.4414C44.807 39.6804 45.0553 38.9327 45.5409 38.3454C46.0265 37.7582 46.7142 37.3739 47.4688 37.2682L51.0998 36.8105C51.5632 36.7441 52.0051 36.572 52.3914 36.3075C52.7776 36.0429 53.0978 35.693 53.3271 35.2849L55.4935 31.3946C55.8752 30.7409 56.4863 30.2523 57.208 30.024C57.9298 29.7956 58.7107 29.8437 59.399 30.1589L63.1062 31.9439C63.5121 32.1432 63.9583 32.2468 64.4106 32.2468C64.8628 32.2468 65.309 32.1432 65.7149 31.9439L69.6205 30.0826C70.3333 29.7501 71.147 29.7058 71.8917 29.9587C72.6364 30.2117 73.2547 30.7425 73.6175 31.4404L75.1431 34.6137C75.3564 35.0176 75.6577 35.3685 76.0247 35.6405C76.3917 35.9125 76.8151 36.0985 77.2637 36.185L81.8405 37.1309C82.5288 37.2859 83.1421 37.6746 83.576 38.2309C84.0099 38.7873 84.2376 39.4768 84.2204 40.1821L83.9305 45.6895C83.9115 46.115 83.9817 46.5398 84.1367 46.9366C84.2917 47.3333 84.5281 47.6932 84.8306 47.9931L87.3326 50.4036C87.8732 50.9334 88.1976 51.6452 88.2427 52.4008C88.2878 53.1564 88.0504 53.9018 87.5767 54.4921L84.5255 58.1841C84.2625 58.5077 84.0685 58.8817 83.9557 59.2832C83.8429 59.6847 83.8136 60.105 83.8695 60.5182L84.4798 64.6984C84.5733 65.4539 84.381 66.217 83.9406 66.838C83.5003 67.459 82.8437 67.893 82.0998 68.0547L77.9807 68.8632C77.5446 68.9509 77.1329 69.1329 76.7745 69.3964C76.4161 69.66 76.1196 69.9987 75.9059 70.3888L73.9837 74.0503C73.62 74.7155 73.0217 75.2214 72.3053 75.4696C71.589 75.7178 70.8059 75.6904 70.1087 75.3928L66.1269 73.5926C65.4073 73.2752 64.5929 73.2478 63.8537 73.5163L58.9718 75.347C58.3027 75.5818 57.5728 75.5762 56.9074 75.3312C56.242 75.0862 55.6827 74.6171 55.3256 74.0045Z" fill="#FDFEFE"/>
<path d="M58.6513 66.2853L57.3851 64.0426C57.2524 63.8048 57.071 63.5977 56.8528 63.4347C56.6346 63.2717 56.3845 63.1566 56.1189 63.0968L53.0677 62.456C52.5741 62.3669 52.1361 62.0854 51.8501 61.6734C51.564 61.2615 51.4532 60.7528 51.5421 60.2592L51.954 57.8182C51.9964 57.5459 51.9774 57.2675 51.8982 57.0035C51.819 56.7395 51.6816 56.4966 51.4963 56.2926L49.5435 54.0652C49.2294 53.7153 49.0557 53.2616 49.0557 52.7914C49.0557 52.3211 49.2294 51.8674 49.5435 51.5175L51.5726 49.2749C51.9134 48.8833 52.0885 48.3745 52.0608 47.8561L51.8319 44.8049C51.7936 44.3004 51.954 43.801 52.279 43.4133C52.604 43.0256 53.0677 42.7804 53.5711 42.7301L55.89 42.4402C56.1878 42.4041 56.4729 42.2982 56.722 42.1312C56.9712 41.9642 57.1775 41.7408 57.3241 41.4791L58.7124 38.9771C58.9483 38.5535 59.3368 38.2357 59.7987 38.0883C60.2607 37.941 60.7614 37.9751 61.1991 38.1838L63.579 39.328C63.8402 39.456 64.1272 39.5225 64.4181 39.5225C64.709 39.5225 64.996 39.456 65.2572 39.328L67.7744 38.0923C67.9996 37.9802 68.2448 37.9137 68.4958 37.8968C68.7468 37.8798 68.9987 37.9127 69.2369 37.9936C69.4751 38.0744 69.695 38.2016 69.8839 38.3678C70.0728 38.5339 70.2269 38.7358 70.3374 38.9619L71.3443 40.9909C71.4713 41.2539 71.657 41.4842 71.8872 41.6641C72.1173 41.844 72.3857 41.9686 72.6716 42.0283L75.616 42.6385C76.0654 42.7264 76.4677 42.9742 76.7482 43.3361C77.0288 43.6981 77.1685 44.1494 77.1416 44.6066L76.9585 48.1459C76.9383 48.4271 76.9797 48.7093 77.0799 48.9727C77.18 49.2362 77.3364 49.4747 77.5382 49.6715L79.0638 51.1971C79.4123 51.5301 79.6217 51.9827 79.65 52.4639C79.6783 52.9451 79.5234 53.4191 79.2164 53.7906L77.3704 56.1401C77.1992 56.3516 77.0742 56.5966 77.0032 56.8593C76.9323 57.122 76.9171 57.3967 76.9585 57.6656L77.3399 60.3507C77.4116 60.8367 77.2931 61.3317 77.0088 61.7324C76.7246 62.1332 76.2967 62.4088 75.8143 62.5018L73.175 63.0205C72.8934 63.0753 72.6279 63.1929 72.3981 63.3646C72.1682 63.5363 71.9801 63.7576 71.8477 64.0121L70.6273 66.3615C70.3962 66.7906 70.0119 67.1168 69.551 67.2751C69.0901 67.4334 68.5865 67.4123 68.1405 67.2159L65.5775 66.0564C65.3485 65.9586 65.102 65.9082 64.8529 65.9082C64.6038 65.9082 64.3573 65.9586 64.1282 66.0564L61.0008 67.2159C60.5628 67.3708 60.0836 67.362 59.6516 67.1909C59.2197 67.0198 58.8644 66.6981 58.6513 66.2853Z" fill="#27B4E9"/>
<path d="M71.8779 79.5885C71.0467 79.5885 70.2251 79.4117 69.4675 79.0698L65.2568 77.1628C65.2038 77.1401 65.1467 77.1284 65.089 77.1284C65.0313 77.1284 64.9743 77.1401 64.9212 77.1628L59.6732 79.085C58.3653 79.5742 56.9258 79.5802 55.6139 79.1019C54.302 78.6236 53.2042 77.6925 52.5181 76.4762L50.5196 72.7996C50.4518 72.6862 50.3423 72.604 50.2145 72.5707L45.2716 71.5181C43.7838 71.2115 42.4739 70.3377 41.6196 69.0818C40.7652 67.8258 40.4335 66.2865 40.6948 64.7902L41.366 60.7321C41.3791 60.6646 41.3762 60.595 41.3577 60.5288C41.3392 60.4626 41.3055 60.4016 41.2592 60.3507L38.025 56.6893C37.0643 55.6152 36.5332 54.2248 36.5332 52.7838C36.5332 51.3428 37.0643 49.9523 38.025 48.8783L41.366 45.2016C41.4059 45.1559 41.4359 45.1026 41.4543 45.0448C41.4726 44.9871 41.479 44.9262 41.4728 44.8659L41.1219 39.8772C41.0203 38.3839 41.4926 36.908 42.4425 35.7512C43.3924 34.5943 44.7481 33.8438 46.2327 33.6528L50.0619 33.1341C50.1341 33.1255 50.2032 33.1004 50.2641 33.0607C50.3249 33.021 50.3758 32.9678 50.4128 32.9053L52.7012 28.8014C53.4251 27.5022 54.6173 26.528 56.0346 26.0773C57.4519 25.6266 58.9878 25.7333 60.3292 26.3757L64.2499 28.298C64.3118 28.3277 64.3796 28.3432 64.4483 28.3432C64.5169 28.3432 64.5847 28.3277 64.6466 28.298L68.8267 26.2537C70.2207 25.5681 71.8298 25.4642 73.3003 25.9649C74.7708 26.4656 75.9823 27.5298 76.6683 28.9235L78.3159 32.2645C78.3412 32.3311 78.3846 32.3892 78.4413 32.4323C78.4979 32.4755 78.5654 32.5019 78.6363 32.5086L83.4877 33.5155C84.8735 33.7936 86.1111 34.5658 86.9699 35.6885C87.8287 36.8111 88.2502 38.2076 88.156 39.6179L87.8509 45.3389C87.8465 45.4039 87.8566 45.469 87.8803 45.5297C87.9041 45.5903 87.9409 45.645 87.9882 45.6898L90.6275 48.2375C91.6825 49.2667 92.3133 50.654 92.3952 52.1256C92.4771 53.5972 92.0042 55.046 91.0699 56.1858L87.8509 60.1371C87.8082 60.184 87.7764 60.2398 87.7579 60.3005C87.7394 60.3612 87.7347 60.4253 87.7441 60.488L88.3848 64.9123C88.6006 66.3981 88.236 67.91 87.3668 69.1343C86.4976 70.3586 85.1904 71.2013 83.7165 71.4876L79.3686 72.3419C79.3016 72.3592 79.2388 72.3897 79.1837 72.4316C79.1287 72.4735 79.0826 72.526 79.0482 72.586L77.0192 76.4457C76.5259 77.3851 75.7875 78.1733 74.8823 78.7266C73.977 79.28 72.9388 79.5778 71.8779 79.5885ZM65.0738 71.7164C65.9063 71.7188 66.7285 71.9009 67.4842 72.2504L71.6948 74.1421C71.8006 74.191 71.9211 74.1977 72.0316 74.1609C72.1422 74.124 72.2346 74.0464 72.2898 73.9438L74.3189 70.0688C74.7195 69.2856 75.293 68.6039 75.9961 68.0753C76.6992 67.5466 77.5134 67.1849 78.3769 67.0176L82.7249 66.1632C82.8383 66.1376 82.9378 66.0696 83.0029 65.9733C83.0681 65.8769 83.0942 65.7594 83.0758 65.6445L82.4503 61.2356C82.3323 60.4255 82.3853 59.5997 82.606 58.8114C82.8268 58.0231 83.2103 57.2898 83.7318 56.6588L86.9508 52.7533C87.0291 52.671 87.0728 52.5617 87.0728 52.4481C87.0728 52.3345 87.0291 52.2253 86.9508 52.143L84.2352 49.6105C83.6225 49.0236 83.1453 48.3099 82.8369 47.5194C82.5286 46.7289 82.3967 45.8806 82.4503 45.0338L82.7554 39.2212C82.7652 39.1131 82.7348 39.0051 82.6701 38.9179C82.6054 38.8307 82.5109 38.7703 82.4045 38.7483L77.5379 37.7414C76.6577 37.5816 75.8264 37.2202 75.1092 36.6855C74.3919 36.1509 73.8082 35.4575 73.4035 34.6597L71.8779 31.3034C71.8247 31.1961 71.7316 31.114 71.6186 31.0746C71.5059 31.0296 71.3803 31.0296 71.2677 31.0746L67.057 33.1341C66.2565 33.525 65.3773 33.7282 64.4864 33.7282C63.5955 33.7282 62.7163 33.525 61.9158 33.1341L58.0103 31.2424C57.9063 31.1922 57.7872 31.1832 57.6769 31.2172C57.5665 31.2511 57.4731 31.3255 57.4153 31.4255L55.0964 35.5598C54.6524 36.364 54.0241 37.0516 53.263 37.566C52.5019 38.0805 51.6297 38.4072 50.7179 38.5195L46.8887 39.0077C46.7742 39.0262 46.6706 39.0862 46.5974 39.1762C46.5243 39.2663 46.4868 39.38 46.492 39.4958L46.8582 44.4693C46.9049 45.259 46.7941 46.0501 46.5322 46.7965C46.2702 47.543 45.8625 48.2299 45.3326 48.8172L42.0068 52.4939C41.9317 52.5778 41.8902 52.6864 41.8902 52.799C41.8902 52.9116 41.9317 53.0202 42.0068 53.1041L45.241 56.7656C45.8266 57.4213 46.2557 58.2014 46.4962 59.047C46.7367 59.8926 46.7822 60.7817 46.6293 61.6475L45.9428 65.6598C45.9201 65.777 45.9441 65.8984 46.0097 65.9981C46.0752 66.0979 46.1771 66.1681 46.2937 66.1937L51.2366 67.2464C52.0484 67.4186 52.8141 67.7622 53.4823 68.2542C54.1506 68.7462 54.7061 69.3753 55.1116 70.0993L57.217 73.8217C57.2688 73.9158 57.3531 73.9879 57.4542 74.0244C57.5553 74.0609 57.6662 74.0593 57.7662 74.02L62.9227 72.0978C63.5958 71.8451 64.309 71.7159 65.028 71.7164H65.0738Z" fill="#0080BB"/>
</g>
<defs>
<filter id="filter0_d_1644_18264" x="-4" y="0.25" width="131" height="166.387" filterUnits="userSpaceOnUse" color-interpolation-filters="sRGB">
<feFlood flood-opacity="0" result="BackgroundImageFix"/>
<feColorMatrix in="SourceAlpha" type="matrix" values="0 0 0 0 0 0 0 0 0 0 0 0 0 0 0 0 0 0 127 0" result="hardAlpha"/>
<feOffset dy="4"/>
<feGaussianBlur stdDeviation="2"/>
<feComposite in2="hardAlpha" operator="out"/>
<feColorMatrix type="matrix" values="0 0 0 0 0 0 0 0 0 0 0 0 0 0 0 0 0 0 0.25 0"/>
<feBlend mode="normal" in2="BackgroundImageFix" result="effect1_dropShadow_1644_18264"/>
<feBlend mode="normal" in="SourceGraphic" in2="effect1_dropShadow_1644_18264" result="shape"/>
</filter>
</defs>
</svg>
