<svg width="141" height="138" viewBox="0 0 141 138" fill="none" xmlns="http://www.w3.org/2000/svg">
<path d="M129.646 0.596375H11.2824C5.0513 0.596375 0 5.64768 0 11.8788V101.498C0 107.729 5.0513 112.781 11.2824 112.781H129.646C135.877 112.781 140.929 107.729 140.929 101.498V11.8788C140.929 5.64768 135.877 0.596375 129.646 0.596375Z" fill="#D01A1C"/>
<path d="M119.925 10.5836H21.0202C14.7891 10.5836 9.73779 15.6349 9.73779 21.866V91.5267C9.73779 97.7578 14.7891 102.809 21.0202 102.809H119.925C126.156 102.809 131.207 97.7578 131.207 91.5267V21.866C131.207 15.6349 126.156 10.5836 119.925 10.5836Z" fill="#E94732"/>
<path d="M78.8211 44.0095C78.8211 44.0095 78.4778 37.7675 73.2658 36.363V32.8831H67.6948V36.363C66.0099 36.7692 64.5244 37.7614 63.5038 39.1622C62.4832 40.563 61.9941 42.2812 62.1238 44.0095C62.1346 46.1045 62.9254 48.1204 64.342 49.664C65.7586 51.2076 67.6994 52.1681 69.7858 52.3581C71.1747 52.3581 73.2658 53.0604 73.2658 55.1514C73.3025 55.5267 73.2553 55.9053 73.1276 56.2601C73 56.6149 72.7951 56.9368 72.5278 57.2026C72.2604 57.4685 71.9374 57.6716 71.5819 57.7972C71.2264 57.9229 70.8475 57.9679 70.4725 57.9291C70.1118 57.9332 69.7538 57.8663 69.419 57.732C69.0842 57.5978 68.7792 57.399 68.5212 57.1468C68.2633 56.8947 68.0575 56.5942 67.9157 56.2625C67.7739 55.9309 67.6989 55.5745 67.6948 55.2139H62.1238C62.1238 55.2139 61.4372 60.0826 67.6948 62.8603V66.3402H73.3438V62.7979C75.1632 62.1708 76.7051 60.9254 77.701 59.2787C78.6969 57.632 79.0837 55.6881 78.7941 53.7855C78.5046 51.883 77.557 50.1422 76.1163 48.8663C74.6755 47.5904 72.833 46.8602 70.9094 46.8028C67.7884 46.8028 67.7884 44.7117 67.7884 44.0095C67.7624 43.643 67.8129 43.2752 67.9365 42.9292C68.0601 42.5833 68.2542 42.2668 68.5065 41.9998C68.7589 41.7328 69.0639 41.5211 69.4023 41.3782C69.7407 41.2352 70.1051 41.1641 70.4725 41.1694C70.8599 41.1127 71.2553 41.1467 71.6273 41.2689C71.9994 41.3911 72.3379 41.598 72.6164 41.8734C72.8948 42.1488 73.1054 42.4851 73.2316 42.8558C73.3579 43.2265 73.3963 43.6214 73.3438 44.0095H78.8992" fill="#FDFEFE"/>
<path d="M70.4716 26.9844C74.9444 26.9844 79.3167 28.311 83.0355 30.7963C86.7543 33.2815 89.6525 36.8139 91.3635 40.9466C93.0744 45.0792 93.5213 49.6264 92.6476 54.0131C91.7738 58.3997 89.6187 62.4287 86.4549 65.5904C83.291 68.7521 79.2606 70.9044 74.8733 71.7751C70.486 72.6458 65.9391 72.1958 61.8076 70.482C57.6762 68.7682 54.1458 65.8675 51.6631 62.147C49.1804 58.4265 47.8569 54.0533 47.8599 49.5804C47.8682 43.5874 50.2536 37.8425 54.4928 33.6063C58.732 29.37 64.4786 26.9885 70.4716 26.9844ZM70.4716 22.8335C65.1815 22.8335 60.0103 24.4022 55.6118 27.3412C51.2132 30.2802 47.785 34.4575 45.7606 39.3448C43.7362 44.2322 43.2065 49.6101 44.2386 54.7985C45.2706 59.9869 47.818 64.7528 51.5586 68.4934C55.2992 72.234 60.0651 74.7814 65.2535 75.8134C70.4419 76.8455 75.8198 76.3158 80.7072 74.2914C85.5945 72.267 89.7718 68.8388 92.7108 64.4402C95.6498 60.0417 97.2185 54.8705 97.2185 49.5804C97.2185 42.4867 94.4005 35.6835 89.3845 30.6675C84.3685 25.6515 77.5653 22.8335 70.4716 22.8335Z" fill="#FDFEFE"/>
<path d="M72.9532 85.191H25.9822C25.4318 85.191 24.9039 84.9724 24.5146 84.5831C24.1254 84.1939 23.9067 83.666 23.9067 83.1156C23.9067 82.5651 24.1254 82.0372 24.5146 81.648C24.9039 81.2588 25.4318 81.0401 25.9822 81.0401H72.9532C73.5036 81.0401 74.0315 81.2588 74.4208 81.648C74.81 82.0372 75.0287 82.5651 75.0287 83.1156C75.0287 83.666 74.81 84.1939 74.4208 84.5831C74.0315 84.9724 73.5036 85.191 72.9532 85.191Z" fill="#FDFEFE"/>
<path d="M114.682 85.191H91.2742C90.7237 85.191 90.1958 84.9724 89.8066 84.5831C89.4174 84.1939 89.1987 83.666 89.1987 83.1156C89.1987 82.5651 89.4174 82.0372 89.8066 81.648C90.1958 81.2588 90.7237 81.0401 91.2742 81.0401H114.682C115.232 81.0401 115.76 81.2588 116.149 81.648C116.538 82.0372 116.757 82.5651 116.757 83.1156C116.757 83.666 116.538 84.1939 116.149 84.5831C115.76 84.9724 115.232 85.191 114.682 85.191Z" fill="#FDFEFE"/>
<path d="M113.745 91.8387H59.97C59.4195 91.8387 58.8916 91.6201 58.5024 91.2308C58.1132 90.8416 57.8945 90.3137 57.8945 89.7633C57.8945 89.2128 58.1132 88.6849 58.5024 88.2957C58.8916 87.9065 59.4195 87.6878 59.97 87.6878H113.745C114.295 87.6878 114.823 87.9065 115.212 88.2957C115.602 88.6849 115.82 89.2128 115.82 89.7633C115.82 90.3137 115.602 90.8416 115.212 91.2308C114.823 91.6201 114.295 91.8387 113.745 91.8387Z" fill="#FDFEFE"/>
<path d="M25.2492 111.111L16.2451 128.729L25.1868 126.903L28.6511 134.596L37.4523 117.353C37.4523 117.353 31.9749 117.821 29.6498 116.495C27.3247 115.168 25.2492 111.111 25.2492 111.111Z" fill="#E94732" stroke="#27B4E9" stroke-width="2.66" stroke-miterlimit="10"/>
<path d="M49.686 111.111L58.7056 128.729L49.764 126.903L46.2997 134.596L37.4517 117.353C37.4517 117.353 42.929 117.821 45.2542 116.495C47.5793 115.168 49.686 111.111 49.686 111.111Z" fill="#E94732" stroke="#27B4E9" stroke-width="2.66" stroke-miterlimit="10"/>
<path d="M37.4524 119.194C36.1246 119.192 34.8045 118.992 33.5355 118.601C30.5801 117.642 28.062 115.663 26.4315 113.018C24.801 110.374 24.1642 107.235 24.6352 104.164C25.1061 101.092 26.6539 98.2887 29.002 96.2538C31.3501 94.2189 34.3454 93.0854 37.4524 93.0559C38.7802 93.0583 40.1002 93.2581 41.3692 93.6489C44.3247 94.6079 46.8427 96.5868 48.4733 99.2317C50.1038 101.877 50.7405 105.015 50.2696 108.087C49.7987 111.158 48.2509 113.961 45.9028 115.996C43.5547 118.031 40.5594 119.165 37.4524 119.194Z" fill="#E94732"/>
<path d="M37.452 95.1314C38.5682 95.1345 39.6777 95.3028 40.7446 95.6308C43.2525 96.425 45.3941 98.0893 46.7831 100.323C48.172 102.558 48.717 105.214 48.3197 107.815C47.9224 110.415 46.6089 112.788 44.6162 114.506C42.6235 116.223 40.0826 117.172 37.452 117.181C36.3344 117.181 35.2237 117.007 34.1593 116.666C31.6431 115.882 29.4915 114.221 28.095 111.986C26.6985 109.751 26.1497 107.089 26.548 104.483C26.9464 101.878 28.2656 99.5017 30.2662 97.7859C32.2668 96.07 34.8163 95.1282 37.452 95.1314ZM37.452 90.9805C33.6278 90.9839 29.9461 92.4316 27.1439 95.0339C24.3417 97.6362 22.6258 101.201 22.3399 105.014C22.0539 108.828 23.219 112.609 25.6018 115.6C27.9846 118.591 31.4092 120.571 35.1901 121.145C38.971 121.719 42.829 120.843 45.9918 118.693C49.1546 116.544 51.3887 113.279 52.2467 109.552C53.1048 105.825 52.5235 101.912 50.6193 98.5957C48.7151 95.2793 45.6285 92.8047 41.9774 91.6671C40.5124 91.2104 38.9865 90.9789 37.452 90.9805Z" fill="#27B4E9"/>
</svg>
