<svg width="125" height="146" viewBox="0 0 125 146" fill="none" xmlns="http://www.w3.org/2000/svg">
<path d="M100.913 109.82L95.1377 103.19L78.9974 87.1026L47.232 66.6472L19.6006 94.5267L61.7547 135.702L67.5302 142.308C68.455 143.371 69.7623 144.021 71.1645 144.116C72.5667 144.211 73.949 143.742 75.0072 142.813C76.0655 141.885 76.713 140.572 76.8074 139.164C76.9018 137.756 76.4353 136.368 75.5105 135.305L69.7589 128.699L70.7415 127.713L76.9484 133.885C77.9513 134.852 79.2927 135.385 80.683 135.367C82.0733 135.349 83.401 134.784 84.3795 133.792C85.3579 132.8 85.9086 131.461 85.9127 130.065C85.9168 128.669 85.374 127.327 84.4014 126.329L78.2185 120.18L78.8895 119.506L84.8807 125.523C85.3712 126.028 85.9568 126.43 86.6036 126.706C87.2503 126.981 87.9452 127.125 88.6478 127.128C89.3504 127.132 90.0467 126.995 90.696 126.725C91.3453 126.456 91.9348 126.059 92.43 125.559C92.9252 125.058 93.3163 124.464 93.5805 123.81C93.8447 123.156 93.9768 122.456 93.9689 121.751C93.9611 121.045 93.8135 120.348 93.5349 119.701C93.2562 119.053 92.852 118.467 92.3457 117.978L86.3546 111.962L87.6367 110.662L92.9449 116.763C93.3751 117.362 93.9249 117.865 94.5593 118.239C95.1937 118.613 95.8986 118.85 96.6293 118.935C97.36 119.02 98.1004 118.952 98.8032 118.734C99.5061 118.516 100.156 118.153 100.712 117.669C101.267 117.185 101.716 116.59 102.03 115.922C102.344 115.254 102.516 114.528 102.535 113.789C102.554 113.051 102.42 112.317 102.14 111.633C101.861 110.95 101.443 110.332 100.913 109.82Z" fill="#FDFEFE" stroke="#E94732" stroke-width="2.9" stroke-linejoin="round"/>
<path d="M40.1024 48.9704L2 87.2324L13.9213 99.2036L52.0236 60.9416L40.1024 48.9704Z" fill="#D01A1C" stroke="#27B4E9" stroke-width="2.9" stroke-linejoin="round"/>
<path d="M105.922 94.5267L78.2423 66.6833L70.1303 69.3906C67.868 69.4734 65.6698 70.1676 63.7676 71.4001L63.4441 71.6167C62.4654 72.292 61.5861 73.1021 60.8319 74.0232L55.6435 78.6196L43.3975 90.568C42.3566 91.6667 41.7794 93.1273 41.7867 94.6438C41.794 96.1603 42.3853 97.6151 43.4368 98.7036C44.4883 99.7922 45.9184 100.43 47.4276 100.484C48.9369 100.537 50.4082 100.002 51.5336 98.9908L60.6043 90.1469C61.8476 91.7345 63.4473 93.0043 65.2727 93.8524C67.0982 94.7004 69.0976 95.1028 71.1075 95.0265C73.1174 94.9502 75.0808 94.3975 76.8373 93.4135C78.5938 92.4295 80.0936 91.0421 81.214 89.3647L96.4077 104.61L105.922 94.5267Z" fill="#E94732" stroke="#D01A1C" stroke-width="2.9" stroke-linejoin="round"/>
<path d="M37.9092 110.771C38.4248 110.256 38.8292 109.639 39.0972 108.96C39.3652 108.281 39.491 107.554 39.4668 106.824C39.4426 106.094 39.2689 105.377 38.9566 104.717C38.6442 104.057 38.1999 103.469 37.6513 102.99C37.1027 102.51 36.4616 102.149 35.768 101.929C35.0743 101.709 34.343 101.635 33.6196 101.711C32.8962 101.788 32.1962 102.013 31.5633 102.373C30.9304 102.733 30.3781 103.22 29.9409 103.804L24.1534 110.446C23.3476 111.522 22.9781 112.864 23.1194 114.203C23.2606 115.542 23.9022 116.777 24.9147 117.659C25.9271 118.542 27.2351 119.006 28.5749 118.958C29.9146 118.91 31.1864 118.353 32.1336 117.401L37.9092 110.771Z" fill="#E94732" stroke="#D01A1C" stroke-width="2.9" stroke-linejoin="round"/>
<path d="M63.4197 135.702C64.3445 134.64 64.811 133.251 64.7167 131.843C64.6223 130.435 63.9747 129.123 62.9165 128.194C61.8582 127.265 60.476 126.797 59.0737 126.892C57.6715 126.986 56.3642 127.637 55.4395 128.699L49.6639 135.341C48.8384 136.415 48.453 137.766 48.5865 139.116C48.7199 140.466 49.3623 141.714 50.382 142.604C51.4017 143.494 52.7216 143.96 54.0717 143.905C55.4217 143.85 56.6998 143.278 57.6442 142.308L63.4197 135.702Z" fill="#E94732" stroke="#D01A1C" stroke-width="2.9" stroke-linejoin="round"/>
<path d="M46.6335 118.929C47.4814 117.858 47.8859 116.501 47.7628 115.138C47.6398 113.776 46.9988 112.513 45.9729 111.613C44.947 110.713 43.6152 110.245 42.2543 110.305C40.8934 110.366 39.608 110.95 38.6652 111.938L32.8897 118.568C32.4108 119.09 32.0407 119.703 31.8015 120.371C31.5622 121.039 31.4585 121.748 31.4964 122.457C31.5344 123.166 31.7132 123.86 32.0225 124.498C32.3317 125.136 32.7651 125.706 33.297 126.173C33.8289 126.641 34.4486 126.997 35.1196 127.22C35.7906 127.443 36.4994 127.529 37.204 127.473C37.9087 127.417 38.595 127.22 39.2225 126.893C39.8501 126.566 40.4062 126.117 40.858 125.571L46.6335 118.929Z" fill="#E94732" stroke="#D01A1C" stroke-width="2.9" stroke-linejoin="round"/>
<path d="M54.8167 127.568C55.6996 126.502 56.1326 125.131 56.0233 123.748C55.914 122.365 55.2711 121.08 54.2317 120.167C53.1923 119.253 51.8386 118.783 50.4593 118.858C49.08 118.932 47.7842 119.545 46.8484 120.565L41.0729 127.207C40.1899 128.274 39.7569 129.645 39.8662 131.028C39.9755 132.41 40.6184 133.695 41.6578 134.609C42.6973 135.522 44.051 135.992 45.4302 135.918C46.8095 135.843 48.1053 135.23 49.0411 134.21L54.8167 127.568Z" fill="#E94732" stroke="#D01A1C" stroke-width="2.9" stroke-linejoin="round"/>
<path d="M123 87.2374L84.8975 48.9755L72.9762 60.9467L111.079 99.2086L123 87.2374Z" fill="#27B4E9" stroke="#D01A1C" stroke-width="2.9" stroke-linejoin="round"/>
<path d="M63.1924 25.3633C63.1472 25.3281 63.1093 25.2841 63.0812 25.2341C63.053 25.184 63.035 25.1288 63.0283 25.0716C63.0217 25.0145 63.0264 24.9566 63.0422 24.9014C63.058 24.8461 63.0846 24.7945 63.1205 24.7497L82.1965 0.660423C82.2325 0.615859 82.2769 0.578912 82.3272 0.551728C82.3775 0.524544 82.4327 0.507664 82.4895 0.502067C82.5464 0.49647 82.6038 0.502268 82.6584 0.519124C82.713 0.53598 82.7637 0.563559 82.8076 0.60026L95.4251 10.6715C95.5138 10.7446 95.5709 10.8494 95.5843 10.9638C95.5977 11.0783 95.5664 11.1935 95.497 11.2852L76.409 35.3504C76.373 35.395 76.3286 35.4319 76.2783 35.4591C76.228 35.4863 76.1728 35.5032 76.116 35.5088C76.0591 35.5143 76.0017 35.5086 75.9471 35.4917C75.8925 35.4748 75.8418 35.4473 75.7979 35.4106L63.1924 25.3633Z" fill="#D01A1C"/>
<path d="M68.0572 22.0424L67.1226 23.2457C67.5152 23.6089 67.764 24.1022 67.8235 24.6349C67.8829 25.1677 67.7489 25.704 67.4461 26.1455L74.0963 31.4519C74.4717 31.094 74.9523 30.8678 75.4664 30.807C75.9805 30.7463 76.5003 30.8543 76.9481 31.115L91.327 12.9097C91.0022 12.497 90.7968 12.0025 90.7333 11.4803C90.6699 10.9582 90.751 10.4286 90.9675 9.94964L84.533 4.78766C84.1091 5.11181 83.6014 5.30683 83.0704 5.3495C82.5393 5.39216 82.0072 5.28068 81.5374 5.02831L69.555 20.1052" stroke="#0080BB" stroke-width="0.63" stroke-linecap="round"/>
<path d="M79.2963 23.9555C82.5654 23.9555 85.2156 21.2942 85.2156 18.0114C85.2156 14.7285 82.5654 12.0673 79.2963 12.0673C76.0271 12.0673 73.377 14.7285 73.377 18.0114C73.377 21.2942 76.0271 23.9555 79.2963 23.9555Z" stroke="#FDFEFE" stroke-width="0.63"/>
<path d="M79.3561 22.5718C81.8708 22.5718 83.9094 20.5246 83.9094 17.9994C83.9094 15.4741 81.8708 13.427 79.3561 13.427C76.8413 13.427 74.8027 15.4741 74.8027 17.9994C74.8027 20.5246 76.8413 22.5718 79.3561 22.5718Z" stroke="#FDFEFE" stroke-width="0.63"/>
<path d="M72.9095 27.3608C73.6044 27.3608 74.1677 26.7951 74.1677 26.0973C74.1677 25.3996 73.6044 24.8339 72.9095 24.8339C72.2147 24.8339 71.6514 25.3996 71.6514 26.0973C71.6514 26.7951 72.2147 27.3608 72.9095 27.3608Z" stroke="#27B4E9" stroke-width="0.63"/>
<path d="M85.7064 11.2009C86.4012 11.2009 86.9645 10.6352 86.9645 9.93743C86.9645 9.23966 86.4012 8.67401 85.7064 8.67401C85.0115 8.67401 84.4482 9.23966 84.4482 9.93743C84.4482 10.6352 85.0115 11.2009 85.7064 11.2009Z" stroke="#27B4E9" stroke-width="0.63"/>
<path d="M82.5275 0.851531L63.3755 25.0211L76.0803 35.1729L95.2323 11.0033L82.5275 0.851531Z" stroke="#FDFEFE" stroke-width="0.63"/>
<path d="M79.128 16.4713C79.03 16.3416 78.902 16.238 78.7551 16.1694C78.6082 16.1008 78.4468 16.0693 78.285 16.0776C78.1232 16.0859 77.9659 16.1338 77.8267 16.2171C77.6875 16.3004 77.5707 16.4165 77.4864 16.5555M77.4864 16.5555L76.8394 16.0501M77.4864 16.5555C77.3778 16.6731 77.2976 16.8142 77.2519 16.9679C77.2062 17.1215 77.1963 17.2837 77.2229 17.4418C77.2496 17.6 77.312 17.7499 77.4055 17.8799C77.499 18.01 77.6209 18.1167 77.762 18.1919C78.8165 18.8537 79.2838 17.8189 79.7511 17.6745C79.9533 17.593 80.1751 17.5735 80.3883 17.6184C80.6016 17.6634 80.7968 17.7709 80.9493 17.9272C81.1584 18.1221 81.2913 18.3855 81.3243 18.67C81.3572 18.9545 81.288 19.2415 81.1291 19.4794M81.1291 19.4794L81.7761 19.9848M81.1291 19.4794C81.0381 19.6097 80.9187 19.7174 80.78 19.7944C80.6413 19.8715 80.487 19.9157 80.3287 19.9238C80.1705 19.9319 80.0124 19.9037 79.8667 19.8413C79.7209 19.7789 79.5912 19.6839 79.4875 19.5636" stroke="#FDFEFE" stroke-width="0.63"/>
<path d="M11.7878 24.0999C11.768 24.0233 11.7634 23.9435 11.7744 23.8651C11.7854 23.7867 11.8116 23.7112 11.8517 23.643C11.8918 23.5748 11.9449 23.5153 12.0079 23.4677C12.071 23.4202 12.1427 23.3856 12.2191 23.366L53.4506 12.9698C53.6046 12.9329 53.7668 12.9574 53.9031 13.0382C54.0395 13.119 54.1393 13.2498 54.1815 13.403L59.6335 35.2181C59.6698 35.3743 59.6438 35.5387 59.5609 35.6759C59.478 35.8131 59.3449 35.9122 59.1902 35.9521L17.9707 46.3602C17.8936 46.38 17.8133 46.384 17.7346 46.3722C17.6559 46.3605 17.5803 46.333 17.5122 46.2916C17.4442 46.2501 17.385 46.1955 17.3383 46.1309C17.2915 46.0662 17.258 45.9928 17.2398 45.915L11.7878 24.0999Z" fill="#D01A1C"/>
<path d="M19.9364 24.5693L17.9113 25.0867C18.038 25.8196 17.8984 26.5737 17.5179 27.2119C17.1375 27.8502 16.5415 28.33 15.8384 28.5641L18.7142 40.0312C19.6847 40.0312 21.7217 40.332 22.1771 42.1128L53.3313 34.2555C52.9599 31.9814 55.3563 30.6457 55.3563 30.6457L52.5764 19.5397C51.5819 19.4554 49.485 18.9019 49.0776 17.2775L23.2555 23.739" stroke="#0080BB" stroke-width="0.88" stroke-linecap="round"/>
<path d="M35.7043 37.8773C40.244 37.8773 43.9242 34.1816 43.9242 29.6229C43.9242 25.0641 40.244 21.3685 35.7043 21.3685C31.1646 21.3685 27.4844 25.0641 27.4844 29.6229C27.4844 34.1816 31.1646 37.8773 35.7043 37.8773Z" stroke="#FDFEFE" stroke-width="0.88"/>
<path d="M35.7766 36.0002C39.2642 36.0002 42.0914 33.1611 42.0914 29.659C42.0914 26.1569 39.2642 23.3178 35.7766 23.3178C32.2891 23.3178 29.4619 26.1569 29.4619 29.659C29.4619 33.1611 32.2891 36.0002 35.7766 36.0002Z" stroke="#FDFEFE" stroke-width="0.88"/>
<path d="M21.8891 34.8932C22.8553 34.8932 23.6385 34.1066 23.6385 33.1364C23.6385 32.1662 22.8553 31.3796 21.8891 31.3796C20.9229 31.3796 20.1396 32.1662 20.1396 33.1364C20.1396 34.1066 20.9229 34.8932 21.8891 34.8932Z" stroke="#27B4E9" stroke-width="0.88"/>
<path d="M49.5321 27.9142C50.4983 27.9142 51.2816 27.1277 51.2816 26.1575C51.2816 25.1872 50.4983 24.4007 49.5321 24.4007C48.566 24.4007 47.7827 25.1872 47.7827 26.1575C47.7827 27.1277 48.566 27.9142 49.5321 27.9142Z" stroke="#27B4E9" stroke-width="0.88"/>
<path d="M53.6458 13.4601L12.2754 23.9029L17.7642 45.83L59.1345 35.3873L53.6458 13.4601Z" stroke="#FDFEFE" stroke-width="0.88"/>
<path d="M36.8073 27.7939C36.7234 27.1562 36.2082 26.0131 34.9261 26.4944M34.9261 26.4944L34.6385 25.3874M34.9261 26.4944C34.7083 26.535 34.5026 26.6247 34.3245 26.7568C34.1463 26.8889 34.0004 27.0599 33.8977 27.2569C33.795 27.4539 33.7382 27.6717 33.7316 27.894C33.725 28.1163 33.7688 28.3371 33.8596 28.5399C34.4587 30.1523 35.8487 29.4183 36.4958 29.6469C36.7857 29.728 37.0452 29.8936 37.2414 30.1228C37.4376 30.3519 37.5618 30.6344 37.5981 30.9344C37.676 31.3286 37.6067 31.7378 37.4033 32.084C37.2 32.4302 36.877 32.6892 36.4958 32.8115M36.4958 32.8115L36.7714 33.9305M36.4958 32.8115C36.286 32.8797 36.0636 32.899 35.8453 32.8678C35.627 32.8367 35.4187 32.756 35.2362 32.6319C35.0536 32.5077 34.9017 32.3434 34.7919 32.1515C34.6821 31.9595 34.6173 31.7449 34.6025 31.524" stroke="#FDFEFE" stroke-width="0.88"/>
<path d="M48.19 28.5761C48.2201 28.3365 48.3421 28.1182 48.5301 27.9676C48.7181 27.817 48.9572 27.7461 49.1966 27.7699L112.907 34.5563C113.147 34.5835 113.366 34.7052 113.517 34.8948C113.667 35.0843 113.737 35.3261 113.71 35.567L110.115 69.2583C110.085 69.4979 109.963 69.7162 109.775 69.8668C109.587 70.0174 109.348 70.0883 109.109 70.0645L45.494 63.242C45.3757 63.23 45.261 63.1946 45.1564 63.1378C45.0519 63.0809 44.9596 63.0039 44.8849 62.911C44.8103 62.8181 44.7547 62.7112 44.7214 62.5966C44.6882 62.482 44.6779 62.3619 44.6912 62.2433L48.19 28.5761Z" fill="#D01A1C"/>
<path d="M79.225 61.2927C86.0611 61.2927 91.6028 55.7277 91.6028 48.863C91.6028 41.9983 86.0611 36.4333 79.225 36.4333C72.3889 36.4333 66.8472 41.9983 66.8472 48.863C66.8472 55.7277 72.3889 61.2927 79.225 61.2927Z" stroke="#FDFEFE" stroke-width="1.33"/>
<path d="M79.3075 58.5132C84.5619 58.5132 88.8215 54.2357 88.8215 48.9593C88.8215 43.6828 84.5619 39.4054 79.3075 39.4054C74.053 39.4054 69.7935 43.6828 69.7935 48.9593C69.7935 54.2357 74.053 58.5132 79.3075 58.5132Z" stroke="#FDFEFE" stroke-width="1.33"/>
<path d="M59.5381 33.4974L56.3987 33.1605C56.0632 34.5683 54.6373 37.3117 51.6776 36.9989L49.7964 54.7349C51.1983 55.1681 53.9063 56.7323 53.6188 59.4757L101.764 64.6137C102.411 61.2084 106.557 60.4865 106.557 60.4865L108.366 43.328C107 42.6903 104.316 40.8132 104.58 38.2863L64.6665 34.0148" stroke="#0080BB" stroke-width="1.33" stroke-linecap="round"/>
<path d="M57.8605 49.2842C59.323 49.2842 60.5086 48.0936 60.5086 46.625C60.5086 45.1563 59.323 43.9658 57.8605 43.9658C56.398 43.9658 55.2124 45.1563 55.2124 46.625C55.2124 48.0936 56.398 49.2842 57.8605 49.2842Z" stroke="#27B4E9" stroke-width="1.33"/>
<path d="M100.589 53.8324C102.051 53.8324 103.237 52.6418 103.237 51.1732C103.237 49.7045 102.051 48.514 100.589 48.514C99.126 48.514 97.9404 49.7045 97.9404 51.1732C97.9404 52.6418 99.126 53.8324 100.589 53.8324Z" stroke="#27B4E9" stroke-width="1.33"/>
<path d="M49.0482 28.5481L45.4658 62.434L109.404 69.2503L112.987 35.3645L49.0482 28.5481Z" stroke="#FDFEFE" stroke-width="1.33"/>
<path d="M81.7403 46.8535C81.944 45.9149 81.8122 44.0258 79.7392 44.0379M79.7392 44.0379L79.9189 42.3172M79.7392 44.0379C79.4112 43.9822 79.075 44.0022 78.7558 44.0963C78.4367 44.1904 78.1431 44.3562 77.8972 44.5811C77.6513 44.806 77.4595 45.0841 77.3365 45.3944C77.2134 45.7047 77.1623 46.0391 77.1869 46.3722C77.1869 48.9712 79.5834 48.6463 80.3383 49.3081C80.7064 49.5763 80.9872 49.9481 81.145 50.3764C81.3028 50.8047 81.3306 51.2704 81.225 51.7147C81.1238 52.304 80.8128 52.8363 80.3499 53.2126C79.887 53.5889 79.3038 53.7835 78.7087 53.7602M78.7087 53.7602L78.529 55.4809M78.7087 53.7602C78.3766 53.7467 78.052 53.6571 77.7597 53.4984C77.4673 53.3396 77.215 53.1159 77.0219 52.8442C76.8288 52.5726 76.7002 52.2602 76.6457 51.9309C76.5912 51.6017 76.6124 51.2643 76.7077 50.9446" stroke="#FDFEFE" stroke-width="1.33"/>
</svg>
