<svg width="142" height="115" viewBox="0 0 142 115" fill="none" xmlns="http://www.w3.org/2000/svg">
<path d="M38.2908 75.2955C38.2908 75.2955 37.9928 69.8478 33.451 68.6319V65.5802H28.5993V68.608C27.1307 68.9681 25.8379 69.8382 24.9514 71.0631C24.065 72.288 23.6425 73.788 23.7595 75.2955C23.7665 77.1174 24.4516 78.8714 25.6813 80.2157C26.911 81.56 28.5972 82.3983 30.4112 82.5671C31.6033 82.5671 33.451 83.1751 33.451 84.9513C33.4741 85.2703 33.4282 85.5905 33.3165 85.8902C33.2049 86.1899 33.03 86.4621 32.8039 86.6883C32.5777 86.9144 32.3055 87.0893 32.0058 87.2009C31.7061 87.3126 31.3859 87.3584 31.0669 87.3354C30.4345 87.3354 29.8281 87.0842 29.381 86.6371C28.9339 86.19 28.6827 85.5836 28.6827 84.9513H23.7595C23.7595 84.9513 23.1515 89.195 28.5993 91.6149V94.6427H33.451V91.6268C34.8461 91.1503 36.0599 90.2543 36.9262 89.0615C37.7926 87.8687 38.2692 86.4373 38.2908 84.9632C38.321 84.0255 38.1639 83.0913 37.8287 82.215C37.4936 81.3388 36.9871 80.5382 36.3389 79.86C35.6907 79.1818 34.9138 78.6397 34.0536 78.2653C33.1934 77.891 32.2672 77.6918 31.3291 77.6797C28.5993 77.6797 28.5993 75.8558 28.5993 75.2955C28.5894 74.9798 28.6442 74.6653 28.7605 74.3715C28.8768 74.0778 29.0521 73.811 29.2755 73.5876C29.4989 73.3642 29.7657 73.189 30.0594 73.0727C30.3532 72.9564 30.6676 72.9015 30.9834 72.9114C31.3038 72.8821 31.6268 72.9236 31.9294 73.0331C32.2319 73.1425 32.5067 73.3172 32.7342 73.5447C32.9618 73.7722 33.1364 74.047 33.2459 74.3496C33.3553 74.6522 33.3969 74.9751 33.3675 75.2955H38.2908Z" fill="#27B4E9"/>
<path d="M63.3241 1.23251C62.4427 1.7412 61.6701 2.41854 61.0505 3.22585C60.4309 4.03315 59.9763 4.95462 59.7129 5.9376C59.4494 6.92059 59.3822 7.94585 59.515 8.95483C59.6478 9.96381 59.9781 10.9367 60.487 11.818L77.1163 40.7256L90.539 32.9772L73.85 4.06963C72.8208 2.30797 71.1391 1.02253 69.1692 0.491546C67.1992 -0.0394375 65.0993 0.226759 63.3241 1.23251Z" fill="#27B4E9"/>
<path d="M64.2655 22.7494C63.2523 21.3427 61.6907 20.7229 60.594 21.3547C59.4973 21.9864 59.2469 23.6673 59.9502 25.2289L77.5451 55.7815C77.6515 56.0359 77.7749 56.2828 77.9147 56.5206C79.1067 58.5113 80.9783 59.5603 82.1822 58.9047C83.3862 58.2491 83.3743 56.0318 82.2895 54.0411C82.1485 53.7977 81.9933 53.5628 81.8246 53.3378L64.2894 22.7255L64.2655 22.7494Z" fill="#27B4E9"/>
<path d="M77.9624 42.2037L91.3851 34.4553C91.3851 34.4553 125.705 93.8917 118.993 97.7659C112.282 101.64 77.9624 42.2037 77.9624 42.2037Z" fill="#27B4E9"/>
<path d="M131.272 29.6394H99.1693L114.225 55.8648H123.666C125.683 55.8648 127.618 56.6661 129.044 58.0924C130.47 59.5187 131.272 61.4531 131.272 63.4702V98.3142C131.272 100.332 130.471 102.268 129.045 103.696C127.619 105.124 125.684 105.928 123.666 105.932H18.4785C16.4603 105.928 14.5259 105.124 13.0999 103.696C11.674 102.268 10.8731 100.332 10.8731 98.3142V63.4702C10.8731 61.4531 11.6744 59.5187 13.1007 58.0924C14.527 56.6661 16.4614 55.8648 18.4785 55.8648H69.7373L54.5742 29.6394H10.8731C8.02772 29.6394 5.29886 30.7697 3.28686 32.7817C1.27486 34.7937 0.144531 37.5226 0.144531 40.368L0.144531 103.547C0.144531 106.393 1.27486 109.122 3.28686 111.134C5.29886 113.146 8.02772 114.276 10.8731 114.276H131.272C134.117 114.276 136.846 113.146 138.858 111.134C140.87 109.122 142 106.393 142 103.547V40.368C142 37.5226 140.87 34.7937 138.858 32.7817C136.846 30.7697 134.117 29.6394 131.272 29.6394Z" fill="#E94732"/>
<path d="M50.2114 70.1696V76.1299H85.9734L82.0038 70.1696H50.2114Z" fill="#E94732"/>
<path d="M50.2114 84.4744V90.4347H96.7019L92.6251 84.4744H50.2114Z" fill="#E94732"/>
</svg>
