<svg width="170" height="105" viewBox="0 0 170 105" fill="none" xmlns="http://www.w3.org/2000/svg">
<g clip-path="url(#clip0_1644_18279)">
<g filter="url(#filter0_d_1644_18279)">
<path d="M46.5275 93.0753C37.0336 93.0753 27.9287 89.337 21.2155 82.683C14.5024 76.0289 10.731 67.004 10.731 57.5937C10.731 48.1834 14.5024 39.1586 21.2155 32.5045C27.9287 25.8504 37.0336 22.1122 46.5275 22.1122H122.529C132.023 22.1122 141.128 25.8504 147.841 32.5045C154.554 39.1586 158.326 48.1834 158.326 57.5937C158.326 67.004 154.554 76.0289 147.841 82.683C141.128 89.337 132.023 93.0753 122.529 93.0753H46.5275Z" fill="#E94732"/>
<path d="M162 57.6095C161.987 47.3633 157.875 37.5403 150.566 30.2951C143.256 23.0498 133.346 18.974 123.009 18.9614C122.162 18.9614 121.349 19.295 120.75 19.8889C120.151 20.4827 119.814 21.2882 119.814 22.128C119.814 22.9678 120.151 23.7732 120.75 24.3671C121.349 24.9609 122.162 25.2946 123.009 25.2946C127.35 25.1993 131.666 25.9645 135.705 27.5453C139.743 29.1261 143.423 31.4906 146.527 34.5C149.631 37.5094 152.097 41.1031 153.781 45.0702C155.465 49.0373 156.332 53.2977 156.332 57.6016C156.332 61.9055 155.465 66.166 153.781 70.133C152.097 74.1001 149.631 77.6938 146.527 80.7032C143.423 83.7126 139.743 86.0771 135.705 87.6579C131.666 89.2387 127.35 90.0039 123.009 89.9086H68.3796C73.8055 86.3886 78.2587 81.5814 81.3351 75.923C84.4115 70.2647 86.0136 63.9345 85.9962 57.5069C85.9787 51.0792 84.3422 44.7577 81.2351 39.1158C78.1281 33.474 73.6488 28.6906 68.2039 25.1996L96.7485 25.0412L90.7265 29.6486C90.202 30.052 89.8174 30.6073 89.626 31.2373C89.4346 31.8674 89.446 32.5409 89.6585 33.1642C89.8711 33.7876 90.2743 34.3298 90.812 34.7156C91.3498 35.1013 91.9955 35.3115 92.6593 35.3168C93.3651 35.3146 94.0504 35.0808 94.608 34.6518L107.722 24.6296C108.15 24.3065 108.488 23.8817 108.706 23.3946C108.923 22.9075 109.014 22.3739 108.968 21.843C109.011 21.3147 108.919 20.7842 108.702 20.3001C108.484 19.816 108.147 19.3938 107.722 19.0722L94.64 9.06583C94.3075 8.81113 93.9277 8.62383 93.5221 8.51463C93.1166 8.40543 92.6934 8.37647 92.2766 8.4294C91.4348 8.53629 90.6704 8.97025 90.1514 9.63582C89.6325 10.3014 89.4015 11.144 89.5094 11.9784C89.6172 12.8127 90.055 13.5705 90.7265 14.0849L96.7644 18.7081L47.2468 18.9614H46.9912C36.6501 18.9614 26.7325 23.0332 19.4203 30.2812C12.108 37.5291 8 47.3594 8 57.6095C8 67.8596 12.108 77.6899 19.4203 84.9379C26.7325 92.1858 36.6501 96.2576 46.9912 96.2576H124.239H124.654C134.702 95.8214 144.193 91.5597 151.15 84.3602C158.107 77.1608 161.993 67.5786 162 57.6095ZM14.3894 57.6095C14.3862 51.2169 16.296 44.9669 19.8771 39.6503C23.4582 34.3337 28.5498 30.1894 34.5076 27.7416C40.4655 25.2938 47.0219 24.6525 53.3476 25.8989C59.6732 27.1453 65.4837 30.2233 70.0441 34.7436C74.6045 39.2638 77.7099 45.0233 78.9673 51.2932C80.2248 57.5632 79.5778 64.062 77.1083 69.9674C74.6387 75.8728 70.4576 80.9196 65.0938 84.4692C59.73 88.0188 53.4246 89.9118 46.9752 89.9086C38.3368 89.8961 30.0558 86.4891 23.9475 80.4346C17.8393 74.38 14.4021 66.1719 14.3894 57.6095Z" fill="#D01A1C"/>
<path d="M46.9907 60.7761C47.1874 60.7924 47.3851 60.7924 47.5817 60.7761C47.7731 60.7917 47.9654 60.7917 48.1568 60.7761H54.8656C55.7129 60.7761 56.5255 60.4425 57.1246 59.8486C57.7237 59.2548 58.0603 58.4493 58.0603 57.6095C58.0603 56.7697 57.7237 55.9642 57.1246 55.3704C56.5255 54.7765 55.7129 54.4429 54.8656 54.4429H50.2014V50.9755C50.2014 50.1357 49.8648 49.3302 49.2657 48.7364C48.6666 48.1426 47.854 47.8089 47.0067 47.8089C46.1594 47.8089 45.3468 48.1426 44.7477 48.7364C44.1486 49.3302 43.812 50.1357 43.812 50.9755V57.6095C43.812 58.4466 44.1464 59.2496 44.7421 59.843C45.3377 60.4364 46.1462 60.7719 46.9907 60.7761Z" fill="#FDFEFE"/>
<path d="M29.0371 77.844C33.6774 81.9862 39.6333 84.389 45.8731 84.6363C46.2301 84.7735 46.6084 84.8485 46.9912 84.8579C47.3743 84.8511 47.7531 84.776 48.1094 84.6363C54.9229 84.3501 61.3731 81.5124 66.1581 76.696C70.9431 71.8797 73.7065 65.4433 73.8905 58.6861C73.8905 58.6861 73.8905 58.5753 73.8905 58.512C73.898 58.4808 73.898 58.4482 73.8905 58.417C73.8985 58.2746 73.8985 58.1319 73.8905 57.9895C73.9006 53.6106 72.823 49.2966 70.753 45.4282C68.683 41.5597 65.6841 38.2558 62.0211 35.808C58.358 33.3602 54.1434 31.8437 49.7492 31.3924C45.355 30.9411 40.9162 31.5689 36.8247 33.2203C32.7331 34.8718 29.1146 37.4961 26.2884 40.8617C23.4622 44.2273 21.5152 48.2307 20.6193 52.5186C19.7234 56.8065 19.9061 61.247 21.1513 65.4484C22.3965 69.6497 24.6659 73.4827 27.7592 76.609C27.8894 76.8589 28.0563 77.0883 28.2544 77.2898C28.4911 77.506 28.754 77.6921 29.0371 77.844ZM30.5226 55.3454H26.673C27.0877 52.1656 28.2654 49.1306 30.1073 46.4948L32.8068 49.1706C33.1035 49.465 33.4558 49.6986 33.8437 49.8579C34.2315 50.0173 34.6472 50.0993 35.067 50.0993C35.4869 50.0993 35.9026 50.0173 36.2904 49.8579C36.6782 49.6986 37.0306 49.465 37.3273 49.1706C37.6267 48.8762 37.8644 48.526 38.0266 48.1401C38.1888 47.7542 38.2723 47.3403 38.2723 46.9223C38.2723 46.5043 38.1888 46.0904 38.0266 45.7045C37.8644 45.3186 37.6267 44.9684 37.3273 44.674L34.516 41.8874C37.2244 39.8124 40.4158 38.4458 43.7965 37.9134V41.08C43.7965 41.9198 44.1331 42.7252 44.7322 43.3191C45.3314 43.9129 46.1439 44.2465 46.9912 44.2465C47.8385 44.2465 48.6511 43.9129 49.2502 43.3191C49.8493 42.7252 50.1859 41.9198 50.1859 41.08V37.9134C53.4129 38.4032 56.4747 39.6519 59.1151 41.5549L56.16 44.484C55.5584 45.0824 55.2213 45.8932 55.2228 46.7379C55.2243 47.5827 55.5643 48.3922 56.168 48.9885C56.7717 49.5848 57.5896 49.9189 58.4418 49.9174C59.2941 49.916 60.1108 49.579 60.7124 48.9806L63.6515 46.0515C65.672 48.7869 66.9632 51.9836 67.4053 55.3454H64.0029C63.1557 55.3454 62.3431 55.679 61.7439 56.2729C61.1448 56.8667 60.8083 57.6722 60.8083 58.512C60.8083 59.3518 61.1448 60.1572 61.7439 60.7511C62.3431 61.3449 63.1557 61.6786 64.0029 61.6786H67.1976C66.6828 64.4599 65.5953 67.1062 64.0029 69.4525L61.6229 67.0934C61.0234 66.4971 60.2096 66.1613 59.3603 66.1598C58.5111 66.1583 57.696 66.4913 57.0944 67.0855C56.4929 67.6797 56.154 68.4864 56.1525 69.3282C56.1511 70.17 56.487 70.9779 57.0864 71.5741L59.5943 74.0599C56.8577 76.1645 53.6252 77.5431 50.2019 78.0656V75.0415C50.2019 74.2017 49.8653 73.3963 49.2662 72.8024C48.6671 72.2086 47.8545 71.875 47.0072 71.875C46.1599 71.875 45.3473 72.2086 44.7482 72.8024C44.1491 73.3963 43.8125 74.2017 43.8125 75.0415V78.0656C40.7824 77.5987 37.8987 76.4565 35.3785 74.7249L37.5349 72.5874C37.8318 72.2922 38.067 71.9419 38.2272 71.5565C38.3875 71.1712 38.4696 70.7583 38.4688 70.3415C38.4681 69.9247 38.3845 69.5121 38.2229 69.1273C38.0613 68.7425 37.8248 68.393 37.527 68.0988C37.2291 67.8046 36.8757 67.5714 36.4869 67.4126C36.0981 67.2538 35.6816 67.1724 35.2611 67.1731C34.8406 67.1739 34.4243 67.2567 34.0361 67.4169C33.6479 67.5771 33.2953 67.8115 32.9985 68.1067L30.7462 70.3392C28.7761 67.8034 27.4404 64.8408 26.8487 61.6944H30.5226C31.3699 61.6944 32.1825 61.3608 32.7816 60.7669C33.3807 60.1731 33.7173 59.3676 33.7173 58.5278C33.7173 57.688 33.3807 56.8826 32.7816 56.2887C32.1825 55.6949 31.3699 55.3612 30.5226 55.3612V55.3454Z" fill="#FDFEFE"/>
<path d="M104.224 51.3081C104.224 59.2245 111.732 61.2195 113.409 61.2195C115.086 61.2195 117.578 62.0586 117.578 64.5285C117.623 64.9741 117.567 65.4239 117.415 65.8456C117.263 66.2672 117.019 66.6502 116.699 66.9668C116.38 67.2834 115.994 67.5257 115.568 67.6763C115.143 67.8269 114.689 67.882 114.239 67.8376C113.799 67.844 113.362 67.7628 112.954 67.5988C112.546 67.4347 112.176 67.1912 111.864 66.8827C111.553 66.5741 111.307 66.2068 111.142 65.8024C110.976 65.398 110.894 64.9649 110.901 64.5285H104.224C104.224 64.5285 103.393 70.3234 110.901 73.6325V77.7648H117.578V73.6325C119.5 72.9821 121.173 71.7579 122.365 70.1279C123.558 68.4979 124.212 66.5419 124.239 64.5285C124.277 63.2512 124.058 61.9791 123.595 60.7864C123.133 59.5937 122.435 58.5043 121.543 57.5817C120.65 56.6591 119.582 55.9219 118.399 55.4129C117.217 54.9039 115.944 54.6334 114.655 54.6171C110.901 54.6171 110.901 52.1314 110.901 51.3081C110.878 50.8668 110.949 50.4257 111.108 50.0132C111.268 49.6006 111.513 49.2257 111.827 48.9126C112.142 48.5994 112.519 48.3549 112.934 48.1949C113.349 48.0348 113.794 47.9627 114.239 47.9831C114.692 47.9291 115.152 47.9781 115.583 48.1264C116.014 48.2746 116.405 48.5182 116.727 48.8387C117.048 49.1592 117.292 49.5481 117.44 49.976C117.587 50.4038 117.634 50.8594 117.578 51.3081H124.239C124.239 51.3081 123.823 43.8666 117.578 42.2041V38.0717H110.901V42.2041C108.881 42.6931 107.102 43.8762 105.879 45.5432C104.657 47.2101 104.07 49.2528 104.224 51.3081Z" fill="#27B4E9"/>
</g>
</g>
<defs>
<filter id="filter0_d_1644_18279" x="4" y="8.40369" width="162" height="95.8539" filterUnits="userSpaceOnUse" color-interpolation-filters="sRGB">
<feFlood flood-opacity="0" result="BackgroundImageFix"/>
<feColorMatrix in="SourceAlpha" type="matrix" values="0 0 0 0 0 0 0 0 0 0 0 0 0 0 0 0 0 0 127 0" result="hardAlpha"/>
<feOffset dy="4"/>
<feGaussianBlur stdDeviation="2"/>
<feComposite in2="hardAlpha" operator="out"/>
<feColorMatrix type="matrix" values="0 0 0 0 0 0 0 0 0 0 0 0 0 0 0 0 0 0 0.25 0"/>
<feBlend mode="normal" in2="BackgroundImageFix" result="effect1_dropShadow_1644_18279"/>
<feBlend mode="normal" in="SourceGraphic" in2="effect1_dropShadow_1644_18279" result="shape"/>
</filter>
<clipPath id="clip0_1644_18279">
<rect width="170" height="103.854" fill="white" transform="translate(0 0.403687)"/>
</clipPath>
</defs>
</svg>
