<svg width="161" height="130" viewBox="0 0 161 130" fill="none" xmlns="http://www.w3.org/2000/svg">
<g filter="url(#filter0_d_1644_18291)">
<path d="M5.09326 80.644L5.79824 118.008L37.0908 112.785L32.4437 76.8313L5.09326 80.644Z" fill="#FDFEFE"/>
<path d="M45.982 107.002L41.896 78.8024C41.896 78.8024 48.9314 76.558 58.3839 74.1553C67.8364 71.7526 81.9217 81.4928 90.0361 82.615C98.1506 83.7373 106.812 79.6512 112.869 79.7376C118.926 79.8239 119.214 84.6724 118.509 86.2263C117.804 87.7801 113.344 92.197 103.071 93.9523C92.7985 95.7075 89.547 97.4772 89.547 97.4772L100.956 103.232L143.399 83.3488C143.399 83.3488 149.744 81.5216 152.276 84.9026C154.808 88.2837 153.125 90.5425 150.161 93.0027C147.197 95.463 104.208 119.547 96.4529 119.85C88.6981 120.152 61.765 107.707 45.982 107.002Z" fill="#FDFEFE"/>
<path d="M4.77692 120.123L4 79.0757L34.7314 74.7595L39.8389 114.238L4.77692 120.123ZM7.65439 82.1978L8.31621 115.879L35.8392 111.289L31.6238 78.8743L7.65439 82.1978Z" fill="#E94732"/>
<path d="M96.928 121.634C93.101 121.634 86.267 119.389 77.6777 116.569C67.1461 113.116 55.1902 109.189 46.6297 108.8C46.211 108.784 45.8114 108.62 45.501 108.339C45.1906 108.058 44.9892 107.676 44.932 107.261L40.846 79.0614C40.7852 78.6395 40.8763 78.2097 41.1029 77.8487C41.3295 77.4877 41.677 77.2189 42.0833 77.0903C42.1553 77.0903 49.277 74.7883 58.672 72.4144C65.1751 70.7599 73.2895 74.1697 80.4257 77.1766C83.7889 78.7839 87.3214 80.0097 90.9572 80.831C95.2734 81.4353 99.9206 80.3994 104.395 79.3923C107.394 78.5608 110.479 78.0781 113.589 77.9536C117.459 78.0399 119.344 79.7664 120.25 81.2051C120.78 82.0562 121.108 83.0178 121.208 84.0156C121.307 85.0134 121.177 86.0208 120.825 86.9601C119.646 89.521 114.236 93.9379 104.107 95.5925C100.966 96.0801 97.8577 96.7575 94.7987 97.6211L101.733 101.146L143.37 81.6943L143.629 81.5936C143.946 81.5072 151.212 79.4642 154.449 83.7948C158.42 89.0606 153.96 92.7726 152.046 94.3552C148.981 96.9161 105.474 121.331 97.2589 121.691L96.928 121.634ZM48.2843 105.304C57.2332 106.038 68.628 109.778 78.8143 113.159C86.6266 115.72 94.0218 118.181 97.115 118.037C104.122 117.778 146.593 94.2257 149.744 91.5928C152.895 88.9599 152.981 87.8233 151.571 85.9529C150.161 84.0826 146.219 84.6293 144.766 85.0178L102.467 104.829C102.221 104.95 101.95 105.013 101.676 105.013C101.402 105.013 101.131 104.95 100.885 104.829L89.461 99.0742C89.1759 98.918 88.938 98.688 88.7723 98.4083C88.6067 98.1286 88.5192 97.8095 88.5192 97.4844C88.5192 97.1593 88.6067 96.8402 88.7723 96.5605C88.938 96.2808 89.1759 96.0508 89.461 95.8946C89.8206 95.6932 93.288 93.8516 103.589 92.1539C113.387 90.5425 117.2 86.4997 117.617 85.5789C117.719 85.18 117.741 84.7648 117.681 84.3574C117.622 83.95 117.483 83.5583 117.272 83.205C116.835 82.6556 116.268 82.2243 115.623 81.9504C114.977 81.6764 114.272 81.5686 113.574 81.6367C110.761 81.7535 107.971 82.1928 105.258 82.946C100.697 83.9819 95.5324 85.1472 90.5256 84.3847C86.5803 83.5292 82.7471 82.2209 79.102 80.4857C72.4839 77.6946 64.9736 74.5294 59.6359 75.8818C52.8307 77.6083 47.234 79.2772 44.7018 80.0541L48.2843 105.304Z" fill="#E94732"/>
<circle cx="84.4398" cy="37.7121" r="15.6966" transform="rotate(-9.51326 84.4398 37.7121)" fill="#D01A1C"/>
<path d="M82.1882 24.6393C82.8821 24.5262 83.5832 24.4624 84.2861 24.4482C87.6279 24.4101 90.861 25.6347 93.3388 27.8773C95.8167 30.12 97.3568 33.2152 97.6511 36.5443C97.9454 39.8733 96.9723 43.1908 94.9263 45.8334C92.8804 48.476 89.9123 50.2489 86.6156 50.7976C85.9216 50.9142 85.2192 50.9734 84.5154 50.9745C81.1889 50.9899 77.978 49.7548 75.5192 47.5142C73.0604 45.2735 71.5333 42.1908 71.2405 38.8772C70.9476 35.5635 71.9105 32.2608 73.9383 29.6237C75.966 26.9865 78.9106 25.2075 82.1882 24.6393ZM81.7864 22.2413C77.9028 22.9074 74.4119 25.0096 72.0067 28.1307C69.6015 31.2517 68.4582 35.1631 68.8036 39.0882C69.1491 43.0132 70.9581 46.6648 73.8714 49.3177C76.7847 51.9707 80.5892 53.4309 84.5294 53.4084C85.3633 53.4085 86.1957 53.3373 87.0175 53.1957C90.9184 52.5459 94.4303 50.4477 96.851 47.3205C99.2716 44.1933 100.423 40.2677 100.074 36.3285C99.7254 32.3892 97.9027 28.7268 94.9704 26.0734C92.0381 23.42 88.2122 21.9712 84.2579 22.0168C83.4295 22.0277 82.6032 22.1028 81.7864 22.2413Z" fill="#E94732"/>
<path d="M89.1337 34.4163C89.1337 34.4163 88.8987 30.7503 85.8184 29.9536L85.8118 27.9124L82.536 27.9508L82.5567 29.9896C81.575 30.2425 80.7136 30.8329 80.1235 31.6573C79.5335 32.4817 79.2525 33.4875 79.3298 34.4983C79.345 35.7289 79.8181 36.9096 80.6568 37.8101C81.4955 38.7107 82.6396 39.2665 83.8659 39.3691C84.6796 39.3495 85.9004 39.7576 85.9157 40.9804C85.9497 41.202 85.9314 41.4285 85.8623 41.6419C85.7932 41.8552 85.6752 42.0494 85.5177 42.209C85.3602 42.3686 85.1676 42.4892 84.9553 42.5611C84.7429 42.633 84.5167 42.6544 84.2946 42.6234C84.0795 42.6276 83.8658 42.5887 83.666 42.509C83.4662 42.4293 83.2843 42.3104 83.1312 42.1593C82.9781 42.0082 82.8568 41.828 82.7744 41.6293C82.6921 41.4305 82.6503 41.2173 82.6517 41.0022L79.39 41.0383C79.39 41.0383 79.007 43.8887 82.6911 45.5033L82.7119 47.5422L85.9735 47.5061L85.9528 45.4673C87.0227 45.09 87.9251 44.3475 88.5014 43.3703C89.0777 42.3932 89.2909 41.2441 89.1034 40.1253C88.9159 39.0065 88.3398 37.9896 87.4764 37.2538C86.6131 36.5179 85.5178 36.1101 84.3834 36.1022C82.548 36.118 82.5564 34.9496 82.5371 34.486C82.5266 34.2694 82.5612 34.0529 82.6387 33.8503C82.7161 33.6476 82.8348 33.4633 82.9872 33.3089C83.1395 33.1545 83.3223 33.0334 83.5238 32.9532C83.7254 32.873 83.9414 32.8355 84.1582 32.8431C84.3846 32.7983 84.6185 32.8086 84.84 32.8731C85.0616 32.9377 85.2644 33.0546 85.4313 33.214C85.5982 33.3735 85.7243 33.5707 85.799 33.7891C85.8736 34.0075 85.8946 34.2406 85.8602 34.4689L89.1361 34.4305" fill="#27B4E9"/>
<circle cx="121.847" cy="59.2931" r="15.6966" fill="#D01A1C"/>
<path d="M121.847 46.028C124.471 46.028 127.035 46.806 129.217 48.2635C131.398 49.7211 133.098 51.7929 134.102 54.2168C135.106 56.6407 135.369 59.3078 134.857 61.881C134.345 64.4542 133.082 66.8178 131.227 68.673C129.372 70.5282 127.008 71.7915 124.435 72.3034C121.862 72.8152 119.195 72.5525 116.771 71.5485C114.347 70.5445 112.275 68.8443 110.817 66.6628C109.36 64.4814 108.582 61.9167 108.582 59.2931C108.589 55.7773 109.989 52.4077 112.476 49.9216C114.962 47.4356 118.331 46.0356 121.847 46.028ZM121.847 43.5965C118.743 43.5965 115.708 44.5171 113.126 46.2419C110.545 47.9666 108.533 50.4181 107.345 53.2863C106.157 56.1545 105.846 59.3105 106.452 62.3554C107.058 65.4002 108.553 68.1971 110.748 70.3923C112.943 72.5875 115.74 74.0825 118.785 74.6881C121.83 75.2938 124.986 74.9829 127.854 73.7949C130.722 72.6069 133.174 70.595 134.898 68.0137C136.623 65.4324 137.544 62.3976 137.544 59.2931C137.544 55.1301 135.89 51.1376 132.946 48.1939C130.003 45.2502 126.01 43.5965 121.847 43.5965Z" fill="#E94732"/>
<path d="M126.061 55.8832C126.061 55.8832 125.859 52.2145 122.795 51.3944V49.3514H119.529V51.3944C118.538 51.6332 117.664 52.2149 117.061 53.0365C116.458 53.8581 116.165 54.8665 116.234 55.8832C116.24 57.1109 116.703 58.2923 117.533 59.1968C118.363 60.1013 119.5 60.664 120.723 60.775C121.543 60.775 122.766 61.1922 122.766 62.4151C122.797 62.6359 122.777 62.8609 122.706 63.0724C122.635 63.2838 122.517 63.476 122.359 63.6336C122.201 63.7913 122.009 63.9101 121.798 63.9808C121.586 64.0515 121.361 64.0721 121.14 64.0409C120.925 64.0447 120.711 64.0054 120.511 63.9253C120.312 63.8451 120.13 63.7257 119.977 63.5742C119.824 63.4226 119.703 63.242 119.621 63.0429C119.539 62.8438 119.498 62.6304 119.5 62.4151H116.234C116.234 62.4151 115.831 65.2926 119.5 66.904V68.947H122.766V66.904C123.831 66.5316 124.733 65.7984 125.314 64.8313C125.895 63.8642 126.12 62.7242 125.949 61.6089C125.778 60.4935 125.223 59.473 124.379 58.7243C123.535 57.9755 122.455 57.5456 121.327 57.509C119.486 57.509 119.486 56.2861 119.486 55.8832C119.476 55.6651 119.511 55.4473 119.59 55.2437C119.669 55.04 119.789 54.8551 119.943 54.7007C120.098 54.5463 120.283 54.4258 120.486 54.347C120.69 54.2682 120.908 54.2328 121.126 54.2431C121.348 54.2114 121.575 54.2321 121.787 54.3035C122 54.375 122.193 54.4952 122.351 54.6545C122.509 54.8139 122.628 55.008 122.697 55.2214C122.767 55.4347 122.785 55.6614 122.752 55.8832H126.018" fill="#27B4E9"/>
<circle cx="123.287" cy="20.4431" r="15.6966" transform="rotate(18.3884 123.287 20.4431)" fill="#D01A1C"/>
<path d="M127.394 7.82951C130.562 8.86175 133.226 11.047 134.858 13.9518C136.489 16.8566 136.97 20.2686 136.203 23.511C135.436 26.7533 133.479 29.589 130.719 31.4556C127.959 33.3221 124.599 34.083 121.304 33.5874C118.01 33.0918 115.022 31.3759 112.933 28.78C110.845 26.1841 109.808 22.8981 110.029 19.5737C110.251 16.2493 111.714 13.1296 114.128 10.8334C116.542 8.53727 119.731 7.23246 123.062 7.17788C124.532 7.15669 125.995 7.37683 127.394 7.82951ZM128.161 5.5222C126.503 4.98174 124.767 4.71725 123.024 4.73928C119.32 4.80464 115.758 6.17672 112.968 8.61321C110.177 11.0497 108.337 14.3939 107.773 18.0552C107.209 21.7165 107.957 25.4594 109.884 28.6229C111.812 31.7864 114.795 34.167 118.308 35.3443C119.983 35.9005 121.74 36.1668 123.504 36.1317C127.217 36.076 130.79 34.7057 133.588 32.2644C136.386 29.8231 138.228 26.4688 138.787 22.7977C139.345 19.1266 138.584 15.3764 136.639 12.2134C134.693 9.05044 131.689 6.67961 128.161 5.5222Z" fill="#E94732"/>
<path d="M128.554 17.0846C128.554 17.0846 128.265 13.395 125.225 12.6423L125.191 10.5995L121.929 10.6522L121.963 12.695C120.987 12.9614 120.135 13.5623 119.557 14.3927C118.979 15.2231 118.711 16.2302 118.8 17.2381C118.824 18.467 119.304 19.643 120.148 20.5371C120.991 21.4312 122.137 21.9795 123.363 22.0753C123.604 22.0404 123.851 22.0544 124.087 22.1165C124.324 22.1785 124.545 22.2873 124.739 22.4365C124.932 22.5856 125.094 22.7721 125.214 22.9849C125.334 23.1976 125.411 23.4323 125.439 23.6751C125.476 23.8974 125.46 24.1254 125.393 24.3405C125.325 24.5557 125.209 24.7521 125.052 24.9138C124.895 25.0755 124.702 25.1981 124.489 25.2716C124.275 25.3451 124.048 25.3675 123.825 25.337C123.609 25.3418 123.395 25.3037 123.194 25.2249C122.994 25.1461 122.811 25.0282 122.656 24.878C122.501 24.7278 122.378 24.5484 122.293 24.3502C122.209 24.1519 122.164 23.9388 122.163 23.7232L118.901 23.7759C118.901 23.7759 118.525 26.6835 122.235 28.2046L122.268 30.2474L125.512 30.2493L125.492 28.2111C126.43 27.8774 127.241 27.2606 127.814 26.4459C128.386 25.6312 128.691 24.6589 128.687 23.6633C128.696 23.0324 128.579 22.406 128.343 21.8206C128.108 21.2352 127.759 20.7024 127.315 20.2532C126.872 19.804 126.344 19.4473 125.762 19.2039C125.18 18.9605 124.555 18.8353 123.924 18.8354C122.082 18.8597 122.062 17.6404 122.062 17.2309C122.046 17.0146 122.076 16.7973 122.149 16.5933C122.223 16.3893 122.339 16.2032 122.49 16.0471C122.64 15.8911 122.822 15.7686 123.023 15.6878C123.225 15.607 123.441 15.5696 123.658 15.5781C123.879 15.5407 124.106 15.5557 124.321 15.6219C124.535 15.688 124.731 15.8035 124.893 15.959C125.055 16.1145 125.179 16.3058 125.253 16.5175C125.328 16.7292 125.352 16.9555 125.324 17.1782L128.554 17.0846Z" fill="#27B4E9"/>
</g>
<defs>
<filter id="filter0_d_1644_18291" x="0" y="4.73804" width="160.044" height="124.953" filterUnits="userSpaceOnUse" color-interpolation-filters="sRGB">
<feFlood flood-opacity="0" result="BackgroundImageFix"/>
<feColorMatrix in="SourceAlpha" type="matrix" values="0 0 0 0 0 0 0 0 0 0 0 0 0 0 0 0 0 0 127 0" result="hardAlpha"/>
<feOffset dy="4"/>
<feGaussianBlur stdDeviation="2"/>
<feComposite in2="hardAlpha" operator="out"/>
<feColorMatrix type="matrix" values="0 0 0 0 0 0 0 0 0 0 0 0 0 0 0 0 0 0 0.25 0"/>
<feBlend mode="normal" in2="BackgroundImageFix" result="effect1_dropShadow_1644_18291"/>
<feBlend mode="normal" in="SourceGraphic" in2="effect1_dropShadow_1644_18291" result="shape"/>
</filter>
</defs>
</svg>
