<svg width="163" height="122" viewBox="0 0 163 122" fill="none" xmlns="http://www.w3.org/2000/svg">
<path d="M152.26 0.75H10.74C7.89157 0.75 5.15981 1.88153 3.14567 3.89567C1.13153 5.90981 0 8.64157 0 11.49L0 111.01C0 113.858 1.13153 116.59 3.14567 118.604C5.15981 120.618 7.89157 121.75 10.74 121.75H152.26C155.108 121.75 157.84 120.618 159.854 118.604C161.868 116.59 163 113.858 163 111.01V11.49C163 8.64157 161.868 5.90981 159.854 3.89567C157.84 1.88153 155.108 0.75 152.26 0.75ZM31 113.75C31 110.861 30.431 108 29.3253 105.331C28.2197 102.662 26.5992 100.237 24.5563 98.1936C22.5135 96.1508 20.0882 94.5303 17.419 93.4247C14.7499 92.319 11.8891 91.75 9 91.75V30.75C11.8891 30.75 14.7499 30.181 17.419 29.0753C20.0882 27.9697 22.5135 26.3492 24.5563 24.3063C26.5992 22.2635 28.2197 19.8382 29.3253 17.169C30.431 14.4999 31 11.6391 31 8.75H132C132 14.5848 134.318 20.1805 138.444 24.3063C142.569 28.4321 148.165 30.75 154 30.75V91.75C148.165 91.75 142.569 94.0678 138.444 98.1936C134.318 102.319 132 107.915 132 113.75H31Z" fill="#E94732"/>
<path d="M101 24.85L81.9 12.75C81.8331 12.7061 81.7549 12.6827 81.675 12.6827C81.595 12.6827 81.5168 12.7061 81.45 12.75L62.4 24.85C62.321 24.8975 62.2598 24.9696 62.2259 25.0552C62.1919 25.1409 62.187 25.2353 62.2121 25.324C62.2371 25.4127 62.2906 25.4907 62.3643 25.546C62.438 25.6013 62.5278 25.6308 62.62 25.63H67.17V41.63H64.1C63.8551 41.63 63.62 41.7266 63.4459 41.8988C63.2718 42.0711 63.1726 42.3051 63.17 42.55V46.75C63.17 46.9966 63.268 47.2332 63.4424 47.4076C63.6168 47.582 63.8533 47.68 64.1 47.68H99.25C99.4949 47.6774 99.7289 47.5782 99.9011 47.4041C100.073 47.23 100.17 46.9949 100.17 46.75V42.55C100.17 42.4292 100.146 42.3095 100.1 42.1979C100.054 42.0863 99.9859 41.9849 99.9005 41.8995C99.8151 41.814 99.7137 41.7463 99.602 41.7C99.4904 41.6538 99.3708 41.63 99.25 41.63H96.17V25.63H100.72C100.818 25.6479 100.919 25.6304 101.005 25.5807C101.091 25.5311 101.157 25.4524 101.191 25.3587C101.224 25.2651 101.224 25.1625 101.189 25.0694C101.154 24.9762 101.087 24.8984 101 24.85ZM86.22 25.63V41.63H84.26C84.4 39.5 84.17 34.7 81.67 34.7C79.17 34.7 78.95 39.5 79.09 41.63H77.17V25.63H86.22ZM71.22 25.63H73.22V41.63H71.22V25.63ZM92.22 41.63H90.22V25.63H92.22V41.63Z" fill="#27B4E9"/>
<path d="M81.5002 52.87C72.5002 52.87 65.2002 62.44 65.2002 74.25C65.2002 86.06 72.5002 95.63 81.5002 95.63C90.5002 95.63 97.8002 86.06 97.8002 74.25C97.8002 62.44 90.5002 52.87 81.5002 52.87ZM81.7702 72.12C83.2451 72.1584 84.6596 72.7141 85.7663 73.6899C86.873 74.6656 87.6015 75.9994 87.8243 77.4579C88.0471 78.9164 87.7501 80.4068 86.9853 81.6686C86.2204 82.9303 85.0364 83.8829 83.6402 84.36V87.03H79.3802V84.36C74.5902 82.24 75.1202 78.51 75.1202 78.51H79.3802C79.3762 78.7908 79.4285 79.0696 79.5341 79.3299C79.6397 79.5901 79.7965 79.8265 79.9951 80.0251C80.1937 80.2237 80.4301 80.3805 80.6903 80.4861C80.9506 80.5917 81.2294 80.644 81.5102 80.64C81.7949 80.6592 82.0804 80.6172 82.3475 80.517C82.6146 80.4167 82.8572 80.2605 83.0589 80.0587C83.2607 79.857 83.4169 79.6144 83.5172 79.3473C83.6175 79.0802 83.6594 78.7947 83.6402 78.51C83.6402 76.91 82.0402 76.38 80.9802 76.38C79.9202 76.38 75.1202 75.05 75.1202 69.99C75.0193 68.6677 75.3927 67.3528 76.1733 66.2808C76.9539 65.2088 78.0908 64.4499 79.3802 64.14V61.47H83.6402V64.14C87.6402 65.2 87.9002 69.99 87.9002 69.99H83.6402C83.6719 69.7025 83.6386 69.4117 83.5428 69.1388C83.447 68.866 83.291 68.6181 83.0866 68.4136C82.8821 68.2092 82.6342 68.0532 82.3614 67.9574C82.0885 67.8616 81.7976 67.8283 81.5102 67.86C81.2255 67.8408 80.94 67.8827 80.6729 67.983C80.4058 68.0833 80.1632 68.2395 79.9615 68.4412C79.7597 68.643 79.6035 68.8856 79.5032 69.1527C79.4029 69.4198 79.361 69.7053 79.3802 69.99C79.3802 70.52 79.3802 72.12 81.7702 72.12Z" fill="#E94732"/>
<path d="M55.7702 72.27H39.9302C38.8367 72.27 37.9502 73.1565 37.9502 74.25C37.9502 75.3435 38.8367 76.23 39.9302 76.23H55.7702C56.8637 76.23 57.7502 75.3435 57.7502 74.25C57.7502 73.1565 56.8637 72.27 55.7702 72.27Z" fill="#27B4E9"/>
<path d="M123.07 72.27H107.23C106.136 72.27 105.25 73.1565 105.25 74.25C105.25 75.3435 106.136 76.23 107.23 76.23H123.07C124.164 76.23 125.05 75.3435 125.05 74.25C125.05 73.1565 124.164 72.27 123.07 72.27Z" fill="#27B4E9"/>
<path d="M116.56 101.3H45.8599C44.9376 101.3 44.1899 102.045 44.1899 102.965C44.1899 103.885 44.9376 104.63 45.8599 104.63H116.56C117.482 104.63 118.23 103.885 118.23 102.965C118.23 102.045 117.482 101.3 116.56 101.3Z" fill="#27B4E9"/>
</svg>
