<svg width="36" height="37" viewBox="0 0 36 37" fill="none" xmlns="http://www.w3.org/2000/svg">
<path d="M33.9 36.25C29.7333 36.25 25.6167 35.3417 21.55 33.525C17.4833 31.7083 13.7833 29.1333 10.45 25.8C7.11667 22.4667 4.54167 18.7667 2.725 14.7C0.908333 10.6333 0 6.51667 0 2.35C0 1.75 0.2 1.25 0.6 0.85C1 0.45 1.5 0.25 2.1 0.25H10.2C10.6667 0.25 11.0833 0.408333 11.45 0.725C11.8167 1.04167 12.0333 1.41667 12.1 1.85L13.4 8.85C13.4667 9.38333 13.45 9.83333 13.35 10.2C13.25 10.5667 13.0667 10.8833 12.8 11.15L7.95 16.05C8.61667 17.2833 9.40833 18.475 10.325 19.625C11.2417 20.775 12.25 21.8833 13.35 22.95C14.3833 23.9833 15.4667 24.9417 16.6 25.825C17.7333 26.7083 18.9333 27.5167 20.2 28.25L24.9 23.55C25.2 23.25 25.5917 23.025 26.075 22.875C26.5583 22.725 27.0333 22.6833 27.5 22.75L34.4 24.15C34.8667 24.2833 35.25 24.525 35.55 24.875C35.85 25.225 36 25.6167 36 26.05V34.15C36 34.75 35.8 35.25 35.4 35.65C35 36.05 34.5 36.25 33.9 36.25ZM6.05 12.25L9.35 8.95L8.5 4.25H4.05C4.21667 5.61667 4.45 6.96667 4.75 8.3C5.05 9.63333 5.48333 10.95 6.05 12.25ZM23.95 30.15C25.25 30.7167 26.575 31.1667 27.925 31.5C29.275 31.8333 30.6333 32.05 32 32.15V27.75L27.3 26.8L23.95 30.15Z" fill="#D01A1C"/>
</svg>
