<svg width="90" height="65" viewBox="0 0 90 65" fill="none" xmlns="http://www.w3.org/2000/svg">
<path d="M82.8521 0.914307H7.43372C5.53796 0.914307 3.71985 1.66739 2.37935 3.00789C1.03885 4.34839 0.285767 6.16651 0.285767 8.06226V57.8522C0.285767 59.748 1.03885 61.5661 2.37935 62.9066C3.71985 64.2471 5.53796 65.0002 7.43372 65.0002H82.8521C84.7478 65.0002 86.5659 64.2471 87.9064 62.9066C89.2469 61.5661 90 59.748 90 57.8522V8.06226C90 7.12358 89.8151 6.19409 89.4559 5.32686C89.0967 4.45963 88.5702 3.67164 87.9064 3.00789C87.2427 2.34414 86.4547 1.81763 85.5875 1.45841C84.7202 1.0992 83.7907 0.914307 82.8521 0.914307ZM52.4049 47.2841C52.7126 48.5437 51.7587 49.7586 50.462 49.7586H40.0441C38.7843 49.7586 37.8382 48.608 38.0818 47.372L40.2126 36.5591C40.3869 35.6744 39.9347 34.7986 39.1955 34.2822C37.7238 33.2541 36.5396 31.8524 35.7724 30.2098C34.7886 28.1033 34.5488 25.7253 35.0922 23.4649C35.6356 21.2044 36.9301 19.1953 38.7638 17.7662C40.5975 16.337 42.862 15.5725 45.1867 15.5977C47.5115 15.6229 49.7588 16.4363 51.5612 17.9048C53.3635 19.3733 54.6142 21.41 55.1085 23.6817C55.6028 25.9534 55.3115 28.3256 54.2823 30.4103C53.4959 32.0032 52.3141 33.3562 50.8616 34.347C50.0755 34.8833 49.6051 35.822 49.8309 36.7464L52.4049 47.2841Z" fill="#D01A1C"/>
</svg>
