<svg width="31" height="30" viewBox="0 0 31 30" fill="none" xmlns="http://www.w3.org/2000/svg">
<path d="M15.3987 0C17.4776 0 19.425 0.394265 21.241 1.1828C23.057 1.97133 24.646 3.04062 26.008 4.39068C27.37 5.74074 28.4453 7.32378 29.2338 9.13979C30.0224 10.9558 30.4166 12.9032 30.4166 14.9821C30.4166 17.0609 30.0224 19.0084 29.2338 20.8244C28.4453 22.6404 27.37 24.2294 26.008 25.5914C24.646 26.9534 23.057 28.0287 21.241 28.8172C19.425 29.6057 17.4776 30 15.3987 30C13.3199 30 11.3724 29.6057 9.55641 28.8172C7.7404 28.0287 6.15737 26.9534 4.80731 25.5914C3.45725 24.2294 2.38795 22.6404 1.59942 20.8244C0.810891 19.0084 0.416626 17.0609 0.416626 14.9821C0.416626 12.9032 0.810891 10.9558 1.59942 9.13979C2.38795 7.32378 3.45725 5.74074 4.80731 4.39068C6.15737 3.04062 7.7404 1.97133 9.55641 1.1828C11.3724 0.394265 13.3199 0 15.3987 0ZM10.7392 11.2545H6.97577V23.4409H10.7392V11.2545ZM8.83957 10.2867C9.36525 10.2867 9.81328 10.1075 10.1837 9.7491C10.554 9.39068 10.7392 8.94863 10.7392 8.42294C10.7392 7.89725 10.554 7.4552 10.1837 7.09677C9.81328 6.73835 9.36525 6.55914 8.83957 6.55914C8.31388 6.55914 7.87182 6.73835 7.5134 7.09677C7.15498 7.4552 6.97577 7.89725 6.97577 8.42294C6.97577 8.94863 7.15498 9.39068 7.5134 9.7491C7.87182 10.1075 8.31388 10.2867 8.83957 10.2867ZM23.8575 16.3799C23.8575 15.5197 23.6185 14.6774 23.1406 13.853C22.6627 13.0287 22.0415 12.4014 21.2768 11.9713C20.5839 11.589 19.7774 11.3859 18.8575 11.362C17.9375 11.3381 17.0952 11.4934 16.3306 11.828V11.2545H12.603V23.4409H16.3306V15.9857L17.9077 15.233C18.0988 15.1374 18.3557 15.0896 18.6783 15.0896C19.0009 15.0896 19.2577 15.1493 19.4489 15.2688C19.5923 15.3405 19.7356 15.4958 19.879 15.7348C20.0224 15.9737 20.094 16.1888 20.094 16.3799V23.4409H23.8575V16.3799Z" fill="#E0E9EC"/>
</svg>
