<?xml version="1.0" encoding="utf-8"?>
<!-- Generator: Adobe Illustrator 26.0.3, SVG Export Plug-In . SVG Version: 6.00 Build 0)  -->
<svg version="1.1" id="Capa_1" xmlns="http://www.w3.org/2000/svg" xmlns:xlink="http://www.w3.org/1999/xlink" x="0px" y="0px"
	 viewBox="0 0 1000 1000" style="enable-background:new 0 0 1000 1000;" xml:space="preserve">
<style type="text/css">
	.st0{fill:url(#SVGID_1_);}
</style>
<linearGradient id="SVGID_1_" gradientUnits="userSpaceOnUse" x1="77.7705" y1="524.2579" x2="897.9083" y2="524.2579">
	<stop  offset="0" style="stop-color:#E65B37"/>
	<stop  offset="1" style="stop-color:#CE1E17"/>
</linearGradient>
<path class="st0" d="M650.6,502.4c52.7,1,74.5,17,85.1,30.3s18.9,38.7,14.5,73.6c-4.4,34.8-47.9,58.9-93.3,56.3
	c-45.4-2.6-92.2-30-92.2-30l0.9,152.1c0,0,7.4,4.9,24.8,15.1c16.3,9.6,59.3,23.2,102.2,24.2c45.3,1.1,99.5-14.4,136.3-43.4
	c50.1-39.4,70-100.7,69-162.3s-32.2-112.6-62.8-146.3c-22.2-24.5-62.5-40.9-62.5-40.9s16.6-12.2,29.5-29.8
	c12.5-17.1,23.3-38.4,27.5-51.3c4.3-12.9,6.4-19.3,8.6-47.2c1.4-33.9-15.6-76.7-30.6-102.5c-15-25.7-28.6-43.6-28.6-43.6
	l-81.4,113.6c0.1,0.3,0.9,2.5,4.3,15c4.6,17.1,4.3,30,2.1,45c-2.1,15-21.2,36.7-33.5,44.9c-13.1,8.7-29.9,12.6-38.9,14.2
	c-3.8,0.7-7.7,0.9-11.6,0.9h-89.7V253.2h135L748,142.8l-670.2-3.3L117,251.7l273.1,0.5v141.5l-215.6-1l45.6,110.2l165.9,0.1
	c2.2,0,4.1,1.8,4.1,4.1V909l142.5-1V501.8C532.6,501.8,597.9,501.3,650.6,502.4z"/>
</svg>
