<svg width="117" height="125" viewBox="0 0 117 125" fill="none" xmlns="http://www.w3.org/2000/svg">
<g filter="url(#filter0_i_741_8388)">
<path d="M27.6096 62.6597V124.705L52.051 111.76V62.6597C54.9477 60.5171 65.9312 60.8742 71.0609 61.3205C78.7554 59.9814 96.4074 73.8189 88.713 85.4246C82.5574 94.7091 65.6295 89.2931 57.935 85.4246V111.76C74.9534 122.83 87.3551 119.795 94.1444 116.671C136.69 93.0129 109.533 55.0713 94.1444 50.1613C118.043 31.9493 104.705 10.7318 95.0496 2.39958L81.0185 22.0399C86.4499 37.7522 74.8327 42.573 68.3452 43.0193H52.051V19.3617H75.5871L90.0708 0.167725H5.43141C2.17256 0.524821 0.452617 3.88748 0 5.52418V30.0746C2.89675 24.361 10.5611 20.552 14.0311 19.3617H27.6096V43.4657H15.389C11.406 43.4657 9.8067 47.2695 9.50496 49.1714V69.8016C13.1259 65.5164 17.9538 63.2548 19.9152 62.6597H27.6096Z" fill="#D01A1C"/>
</g>
<defs>
<filter id="filter0_i_741_8388" x="0" y="0.167725" width="116.957" height="124.537" filterUnits="userSpaceOnUse" color-interpolation-filters="sRGB">
<feFlood flood-opacity="0" result="BackgroundImageFix"/>
<feBlend mode="normal" in="SourceGraphic" in2="BackgroundImageFix" result="shape"/>
<feColorMatrix in="SourceAlpha" type="matrix" values="0 0 0 0 0 0 0 0 0 0 0 0 0 0 0 0 0 0 127 0" result="hardAlpha"/>
<feOffset/>
<feGaussianBlur stdDeviation="2"/>
<feComposite in2="hardAlpha" operator="arithmetic" k2="-1" k3="1"/>
<feColorMatrix type="matrix" values="0 0 0 0 0 0 0 0 0 0 0 0 0 0 0 0 0 0 0.25 0"/>
<feBlend mode="normal" in2="shape" result="effect1_innerShadow_741_8388"/>
</filter>
</defs>
</svg>
