<svg width="1370" height="1459" viewBox="0 0 1370 1459" fill="none" xmlns="http://www.w3.org/2000/svg">
<g filter="url(#filter0_i_1310_13943)">
<path d="M323.411 732.115V1459L609.71 1307.35V732.115C643.642 707.014 772.299 711.197 832.387 716.427C922.518 700.738 1129.29 862.849 1039.16 998.814C967.053 1107.58 768.765 1044.14 678.634 998.814V1307.35C877.983 1437.04 1023.25 1401.48 1102.78 1364.87C1601.15 1087.71 1283.04 643.215 1102.78 585.692C1382.72 372.333 1226.49 123.762 1113.38 26.147L949.027 256.24C1012.65 440.315 876.569 496.792 800.576 502.021H609.71V224.864H885.405L1055.06 0H63.6219C25.4488 4.18351 5.30183 43.5783 0 62.7527V350.369C33.9317 283.433 123.709 238.809 164.357 224.864H323.411V507.251H180.262C133.606 507.251 114.873 551.814 111.338 574.095V815.785C153.753 765.583 210.306 739.087 233.28 732.115H323.411Z" fill="#D01A1C"/>
</g>
<defs>
<filter id="filter0_i_1310_13943" x="0" y="0" width="1370" height="1459" filterUnits="userSpaceOnUse" color-interpolation-filters="sRGB">
<feFlood flood-opacity="0" result="BackgroundImageFix"/>
<feBlend mode="normal" in="SourceGraphic" in2="BackgroundImageFix" result="shape"/>
<feColorMatrix in="SourceAlpha" type="matrix" values="0 0 0 0 0 0 0 0 0 0 0 0 0 0 0 0 0 0 127 0" result="hardAlpha"/>
<feOffset/>
<feGaussianBlur stdDeviation="2"/>
<feComposite in2="hardAlpha" operator="arithmetic" k2="-1" k3="1"/>
<feColorMatrix type="matrix" values="0 0 0 0 0 0 0 0 0 0 0 0 0 0 0 0 0 0 0.25 0"/>
<feBlend mode="normal" in2="shape" result="effect1_innerShadow_1310_13943"/>
</filter>
</defs>
</svg>
