<svg width="24" height="24" viewBox="0 0 24 24" fill="none" xmlns="http://www.w3.org/2000/svg">
<path d="M3.6 22.8C2.93726 23.4627 1.86274 23.4627 1.2 22.8C0.537258 22.1373 0.537258 21.0627 1.2 20.4L8.18579 13.4142C8.96684 12.6332 8.96684 11.3668 8.18579 10.5858L1.2 3.6C0.537258 2.93726 0.537258 1.86274 1.2 1.2C1.86274 0.537258 2.93726 0.537258 3.6 1.2L10.5858 8.18579C11.3668 8.96684 12.6332 8.96684 13.4142 8.18579L20.4 1.2C21.0627 0.537258 22.1373 0.537258 22.8 1.2C23.4627 1.86274 23.4627 2.93726 22.8 3.6L15.8142 10.5858C15.0332 11.3668 15.0332 12.6332 15.8142 13.4142L22.8 20.4C23.4627 21.0627 23.4627 22.1373 22.8 22.8C22.1373 23.4627 21.0627 23.4627 20.4 22.8L13.4142 15.8142C12.6332 15.0332 11.3668 15.0332 10.5858 15.8142L3.6 22.8Z" fill="#280000"/>
</svg>
