<svg width="33" height="36" viewBox="0 0 33 36" fill="none" xmlns="http://www.w3.org/2000/svg">
<path d="M7.81866 17.8415V35.5556L14.6917 31.8598V17.8415C15.5063 17.2298 18.5949 17.3317 20.0374 17.4592C22.2011 17.0769 27.165 21.0275 25.0012 24.3409C23.2702 26.9916 18.51 25.4454 16.3463 24.3409V31.8598C21.132 35.0203 24.6194 34.1537 26.5286 33.2617C38.4927 26.5074 30.856 15.675 26.5286 14.2732C33.2489 9.07368 29.4984 3.01606 26.7831 0.637196L22.8375 6.24452C24.3648 10.7304 21.098 12.1067 19.2737 12.2342H14.6917V5.47989H21.3102L25.3831 0H1.58203C0.665623 0.101951 0.181966 1.06199 0.0546875 1.52927V8.53843C0.869268 6.90721 3.02451 5.81973 4.00031 5.47989H7.81866V12.3616H4.38215C3.2621 12.3616 2.81238 13.4476 2.72753 13.9906V19.8805C3.74576 18.6571 5.10339 18.0114 5.65493 17.8415H7.81866Z" fill="#0080BB"/>
</svg>
