<svg width="167" height="156" viewBox="0 0 167 156" fill="none" xmlns="http://www.w3.org/2000/svg">
<path d="M83.4524 99.1744C73.645 99.1744 64.0578 96.2661 55.9033 90.8174C47.7487 85.3687 41.393 77.6243 37.6399 68.5634C33.8867 59.5025 32.9047 49.5322 34.8181 39.9132C36.7314 30.2942 41.4541 21.4587 48.389 14.5238C55.3239 7.58888 64.1595 2.86616 73.7785 0.952826C83.3974 -0.960506 93.3677 0.0214852 102.429 3.77462C111.489 7.52776 119.234 13.8835 124.683 22.038C130.131 30.1926 133.04 39.7798 133.04 49.5872C133.04 56.0991 131.757 62.5472 129.265 68.5634C126.773 74.5796 123.12 80.046 118.516 84.6506C109.216 93.95 96.6038 99.1744 83.4524 99.1744ZM83.4524 19.4479C77.4723 19.4479 71.6265 21.2212 66.6542 24.5436C61.6819 27.8659 57.8064 32.5882 55.5179 38.1131C53.2294 43.638 52.6307 49.7175 53.7973 55.5827C54.964 61.4479 57.8437 66.8355 62.0723 71.0641C66.3009 75.2927 71.6884 78.1724 77.5537 79.3391C83.4189 80.5057 89.4984 79.9069 95.0233 77.6184C100.548 75.3299 105.27 71.4545 108.593 66.4822C111.915 61.5099 113.689 55.6641 113.689 49.6839C113.689 41.6648 110.503 33.9742 104.833 28.3038C99.1622 22.6334 91.4715 19.4479 83.4524 19.4479Z" fill="#0081BC"/>
<path d="M167 155.51H147.649C147.649 133.897 118.271 115.599 83.5483 115.599C48.8252 115.599 19.4478 133.849 19.4478 155.51H0C0 138.953 9.20386 123.654 25.9063 112.442C41.4234 102.029 61.8751 96.2959 83.4516 96.2959C105.028 96.2959 125.516 102.029 141.045 112.442C157.796 123.654 167 138.953 167 155.51Z" fill="#0081BC"/>
</svg>
