<svg width="63" height="80" viewBox="0 0 63 80" fill="none" xmlns="http://www.w3.org/2000/svg">
<path d="M15.75 63.7H47.25V55.8H15.75V63.7ZM15.75 47.9H47.25V40H15.75V47.9ZM7.875 79.5C5.70937 79.5 3.85547 78.7265 2.31328 77.1794C0.771094 75.6323 0 73.7725 0 71.6V8.4C0 6.2275 0.771094 4.36771 2.31328 2.82063C3.85547 1.27354 5.70937 0.5 7.875 0.5H39.375L63 24.2V71.6C63 73.7725 62.2289 75.6323 60.6867 77.1794C59.1445 78.7265 57.2906 79.5 55.125 79.5H7.875ZM35.4375 28.15V8.4H7.875V71.6H55.125V28.15H35.4375Z" fill="#0080BB"/>
</svg>
