<svg width="27" height="29" viewBox="0 0 27 29" fill="none" xmlns="http://www.w3.org/2000/svg">
<path d="M23.0554 4.13738C21.8122 2.82024 20.3315 1.77604 18.6997 1.06571C17.0678 0.355381 15.3175 -0.00686728 13.5509 9.85851e-05C6.14823 9.85851e-05 0.115269 6.32875 0.108488 14.0982C0.108488 16.5866 0.728905 19.0074 1.90024 21.1507L0 28.4595L7.12632 26.4993C9.09688 27.6274 11.3061 28.2177 13.5509 28.2158H13.5576C20.962 28.2158 26.9932 21.8871 27 14.1106C27.0015 12.2573 26.6536 10.422 25.9763 8.71034C25.2991 6.9987 24.3075 5.44455 23.0554 4.13738ZM13.5509 25.8287C11.5492 25.8271 9.58463 25.262 7.862 24.1923L7.45517 23.9362L3.22752 25.0995L4.35648 20.7719L4.09204 20.3254C2.97293 18.4584 2.38106 16.2967 2.38504 14.091C2.38504 7.64144 7.39754 2.38001 13.5576 2.38001C15.0252 2.37725 16.4787 2.67932 17.8345 3.26882C19.1902 3.85831 20.4214 4.72357 21.4569 5.8147C22.4959 6.90176 23.3195 8.1938 23.8804 9.61639C24.4414 11.039 24.7284 12.564 24.7251 14.1035C24.7184 20.5762 19.7059 25.8287 13.5509 25.8287ZM19.6787 17.0526C19.3448 16.8765 17.6954 16.0245 17.3852 15.9035C17.0767 15.7879 16.8513 15.7275 16.6309 16.0796C16.4054 16.43 15.7613 17.2287 15.5681 17.4581C15.3748 17.6947 15.1748 17.7214 14.8391 17.5471C14.5052 17.3692 13.422 16.9992 12.1405 15.795C11.1404 14.8612 10.4708 13.7051 10.2708 13.3547C10.0775 13.0025 10.2521 12.8139 10.42 12.6378C10.5674 12.4813 10.7539 12.2252 10.9217 12.0224C11.0912 11.8196 11.1472 11.6702 11.2573 11.4354C11.3675 11.1971 11.315 10.9943 11.2319 10.8182C11.1472 10.6421 10.4776 8.90432 10.1945 8.20351C9.92328 7.51159 9.64697 7.60764 9.44017 7.59875C9.24692 7.5863 9.02147 7.5863 8.79602 7.5863C8.62578 7.59084 8.45828 7.63221 8.30398 7.70781C8.14968 7.7834 8.01191 7.8916 7.8993 8.02564C7.59078 8.37782 6.72796 9.22982 6.72796 10.9676C6.72796 12.7054 7.9315 14.3756 8.10102 14.6122C8.26714 14.8488 10.464 18.4044 13.8356 19.9341C14.6323 20.2987 15.2595 20.514 15.7494 20.6776C16.5546 20.948 17.2818 20.9071 17.8616 20.8199C18.5057 20.7167 19.8466 19.9661 20.1296 19.1426C20.4076 18.3173 20.4076 17.6129 20.3229 17.4653C20.2398 17.3158 20.0144 17.2287 19.6787 17.0526Z" fill="#FDFEFE"/>
</svg>
