<svg width="276" height="117" viewBox="0 0 276 117" fill="none" xmlns="http://www.w3.org/2000/svg">
<g opacity="0.5">
<g opacity="0.75">
<circle cx="11.5" cy="1.5" r="1.5" fill="#280000"/>
<circle cx="34.5" cy="1.5" r="1.5" fill="#280000"/>
<circle cx="57.5" cy="1.5" r="1.5" fill="#280000"/>
<circle cx="80.5" cy="1.5" r="1.5" fill="#280000"/>
<circle cx="103.5" cy="1.5" r="1.5" fill="#280000"/>
<circle cx="126.5" cy="1.5" r="1.5" fill="#280000"/>
<circle cx="149.5" cy="1.5" r="1.5" fill="#280000"/>
<circle cx="172.5" cy="1.5" r="1.5" fill="#280000"/>
<circle cx="195.5" cy="1.5" r="1.5" fill="#280000"/>
<circle cx="218.5" cy="1.5" r="1.5" fill="#280000"/>
<circle cx="241.5" cy="1.5" r="1.5" fill="#280000"/>
<circle cx="264.5" cy="1.5" r="1.5" fill="#280000"/>
</g>
<g opacity="0.65">
<circle cx="11.5" cy="20.5" r="1.5" fill="#280000"/>
<circle cx="34.5" cy="20.5" r="1.5" fill="#280000"/>
<circle cx="57.5" cy="20.5" r="1.5" fill="#280000"/>
<circle cx="80.5" cy="20.5" r="1.5" fill="#280000"/>
<circle cx="103.5" cy="20.5" r="1.5" fill="#280000"/>
<circle cx="126.5" cy="20.5" r="1.5" fill="#280000"/>
<circle cx="149.5" cy="20.5" r="1.5" fill="#280000"/>
<circle cx="172.5" cy="20.5" r="1.5" fill="#280000"/>
<circle cx="195.5" cy="20.5" r="1.5" fill="#280000"/>
<circle cx="218.5" cy="20.5" r="1.5" fill="#280000"/>
<circle cx="241.5" cy="20.5" r="1.5" fill="#280000"/>
<circle cx="264.5" cy="20.5" r="1.5" fill="#280000"/>
</g>
<g opacity="0.5">
<circle cx="11.5" cy="39.5" r="1.5" fill="#280000"/>
<circle cx="34.5" cy="39.5" r="1.5" fill="#280000"/>
<circle cx="57.5" cy="39.5" r="1.5" fill="#280000"/>
<circle cx="80.5" cy="39.5" r="1.5" fill="#280000"/>
<circle cx="103.5" cy="39.5" r="1.5" fill="#280000"/>
<circle cx="126.5" cy="39.5" r="1.5" fill="#280000"/>
<circle cx="149.5" cy="39.5" r="1.5" fill="#280000"/>
<circle cx="172.5" cy="39.5" r="1.5" fill="#280000"/>
<circle cx="195.5" cy="39.5" r="1.5" fill="#280000"/>
<circle cx="218.5" cy="39.5" r="1.5" fill="#280000"/>
<circle cx="241.5" cy="39.5" r="1.5" fill="#280000"/>
<circle cx="264.5" cy="39.5" r="1.5" fill="#280000"/>
</g>
<g opacity="0.35">
<circle cx="11.5" cy="58.5" r="1.5" fill="#280000"/>
<circle cx="34.5" cy="58.5" r="1.5" fill="#280000"/>
<circle cx="57.5" cy="58.5" r="1.5" fill="#280000"/>
<circle cx="80.5" cy="58.5" r="1.5" fill="#280000"/>
<circle cx="103.5" cy="58.5" r="1.5" fill="#280000"/>
<circle cx="126.5" cy="58.5" r="1.5" fill="#280000"/>
<circle cx="149.5" cy="58.5" r="1.5" fill="#280000"/>
<circle cx="172.5" cy="58.5" r="1.5" fill="#280000"/>
<circle cx="195.5" cy="58.5" r="1.5" fill="#280000"/>
<circle cx="218.5" cy="58.5" r="1.5" fill="#280000"/>
<circle cx="241.5" cy="58.5" r="1.5" fill="#280000"/>
<circle cx="264.5" cy="58.5" r="1.5" fill="#280000"/>
</g>
<g opacity="0.25">
<circle cx="11.5" cy="77.5" r="1.5" fill="#280000"/>
<circle cx="34.5" cy="77.5" r="1.5" fill="#280000"/>
<circle cx="57.5" cy="77.5" r="1.5" fill="#280000"/>
<circle cx="80.5" cy="77.5" r="1.5" fill="#280000"/>
<circle cx="103.5" cy="77.5" r="1.5" fill="#280000"/>
<circle cx="126.5" cy="77.5" r="1.5" fill="#280000"/>
<circle cx="149.5" cy="77.5" r="1.5" fill="#280000"/>
<circle cx="172.5" cy="77.5" r="1.5" fill="#280000"/>
<circle cx="195.5" cy="77.5" r="1.5" fill="#280000"/>
<circle cx="218.5" cy="77.5" r="1.5" fill="#280000"/>
<circle cx="241.5" cy="77.5" r="1.5" fill="#280000"/>
<circle cx="264.5" cy="77.5" r="1.5" fill="#280000"/>
</g>
<g opacity="0.1">
<circle cx="11.5" cy="96.5" r="1.5" fill="#280000"/>
<circle cx="34.5" cy="96.5" r="1.5" fill="#280000"/>
<circle cx="57.5" cy="96.5" r="1.5" fill="#280000"/>
<circle cx="80.5" cy="96.5" r="1.5" fill="#280000"/>
<circle cx="103.5" cy="96.5" r="1.5" fill="#280000"/>
<circle cx="126.5" cy="96.5" r="1.5" fill="#280000"/>
<circle cx="149.5" cy="96.5" r="1.5" fill="#280000"/>
<circle cx="172.5" cy="96.5" r="1.5" fill="#280000"/>
<circle cx="195.5" cy="96.5" r="1.5" fill="#280000"/>
<circle cx="218.5" cy="96.5" r="1.5" fill="#280000"/>
<circle cx="241.5" cy="96.5" r="1.5" fill="#280000"/>
<circle cx="264.5" cy="96.5" r="1.5" fill="#280000"/>
</g>
<g opacity="0.05">
<circle cx="11.5" cy="115.5" r="1.5" fill="#280000"/>
<circle cx="34.5" cy="115.5" r="1.5" fill="#280000"/>
<circle cx="57.5" cy="115.5" r="1.5" fill="#280000"/>
<circle cx="80.5" cy="115.5" r="1.5" fill="#280000"/>
<circle cx="103.5" cy="115.5" r="1.5" fill="#280000"/>
<circle cx="126.5" cy="115.5" r="1.5" fill="#280000"/>
<circle cx="149.5" cy="115.5" r="1.5" fill="#280000"/>
<circle cx="172.5" cy="115.5" r="1.5" fill="#280000"/>
<circle cx="195.5" cy="115.5" r="1.5" fill="#280000"/>
<circle cx="218.5" cy="115.5" r="1.5" fill="#280000"/>
<circle cx="241.5" cy="115.5" r="1.5" fill="#280000"/>
<circle cx="264.5" cy="115.5" r="1.5" fill="#280000"/>
</g>
</g>
</svg>
