<svg width="70" height="94" viewBox="0 0 70 94" fill="none" xmlns="http://www.w3.org/2000/svg">
<path d="M24.5283 25.8258V63.4147H9.95068V25.8258C9.95068 19.3908 12.5013 13.2194 17.0414 8.66926C21.5815 4.11907 27.7392 1.56281 34.1598 1.56281C40.5805 1.56281 46.7382 4.11907 51.2783 8.66926C55.8183 13.2194 58.3689 19.3908 58.3689 25.8258C58.3084 27.7227 57.514 29.5217 56.1537 30.8422C54.7934 32.1626 52.9739 32.9009 51.0801 32.9009C49.1864 32.9009 47.3669 32.1626 46.0066 30.8422C44.6463 29.5217 43.8518 27.7227 43.7913 25.8258C43.7913 23.2656 42.7766 20.8104 40.9703 19.0001C39.1641 17.1898 36.7142 16.1728 34.1598 16.1728C31.6054 16.1728 29.1556 17.1898 27.3493 19.0001C25.543 20.8104 24.5283 23.2656 24.5283 25.8258Z" fill="#D01A1C" stroke="#280000" stroke-width="3" stroke-miterlimit="10"/>
<path d="M7.28226 91.2984C5.99873 91.2964 4.76834 90.7845 3.86074 89.8749C2.95315 88.9653 2.4424 87.7322 2.44043 86.4458V47.0428C2.4424 45.7564 2.95315 44.5233 3.86074 43.6137C4.76834 42.7041 5.99873 42.1922 7.28226 42.1902H62.0843C63.3678 42.1922 64.5982 42.7041 65.5058 43.6137C66.4134 44.5233 66.9241 45.7564 66.9261 47.0428V86.4458C66.9241 87.7322 66.4134 88.9653 65.5058 89.8749C64.5982 90.7845 63.3678 91.2964 62.0843 91.2984H7.28226ZM33.3983 62.5561C30.24 62.8548 27.1486 64.4449 24.4 67.2072C23.5879 67.9902 23.1191 69.0642 23.0964 70.1934V82.7504C23.0964 83.8401 23.5278 84.8852 24.2959 85.6564C25.064 86.4276 26.1061 86.8619 27.1933 86.8639H42.1657C42.7121 86.863 43.2527 86.753 43.7561 86.5404C44.2596 86.3277 44.7156 86.0166 45.0978 85.6253C45.4799 85.234 45.7804 84.7703 45.9817 84.2613C46.1829 83.7523 46.281 83.2082 46.2701 82.6608L45.9871 70.171C45.9438 69.0519 45.462 67.995 44.6463 67.2296C41.905 64.4822 38.4253 62.873 34.5566 62.5636C36.5016 62.608 39.3689 61.2648 40.5798 59.7421C41.7908 58.2194 42.3828 56.2943 42.2372 54.3526C42.0917 52.4109 41.2193 50.596 39.7949 49.2717C38.3706 47.9474 36.4995 47.2116 34.5566 47.2116C32.6138 47.2116 30.7427 47.9474 29.3183 49.2717C27.894 50.596 27.0216 52.4109 26.8761 54.3526C26.7305 56.2943 27.3225 58.2194 28.5334 59.7421C29.7443 61.2648 32.6116 62.608 34.5566 62.5636C34.1043 62.5607 33.3983 62.5561 33.3983 62.5561Z" fill="#D01A1C"/>
<path d="M34.5566 62.5636C38.4253 62.873 41.905 64.4822 44.6463 67.2296C45.462 67.995 45.9438 69.0519 45.9871 70.171L46.2701 82.6608C46.281 83.2082 46.1829 83.7523 45.9817 84.2613C45.7804 84.7703 45.4799 85.234 45.0978 85.6253C44.7157 86.0166 44.2596 86.3277 43.7561 86.5404C43.2527 86.753 42.7121 86.863 42.1657 86.8639H27.1933C26.1061 86.8619 25.064 86.4276 24.2959 85.6564C23.5278 84.8852 23.0964 83.8401 23.0964 82.7504V70.1934C23.1191 69.0642 23.5879 67.9902 24.4 67.2072C27.1486 64.4449 30.24 62.8548 33.3983 62.5561C33.3983 62.5561 34.1043 62.5607 34.5566 62.5636ZM34.5566 62.5636C36.5016 62.608 39.3689 61.2648 40.5798 59.7421C41.7908 58.2194 42.3828 56.2943 42.2372 54.3526C42.0917 52.4109 41.2193 50.596 39.7949 49.2717C38.3706 47.9474 36.4995 47.2116 34.5566 47.2116C32.6138 47.2116 30.7427 47.9474 29.3183 49.2717C27.894 50.596 27.0216 52.4109 26.8761 54.3526C26.7305 56.2943 27.3225 58.2194 28.5334 59.7421C29.7443 61.2648 32.6116 62.608 34.5566 62.5636ZM7.28226 91.2984C5.99873 91.2964 4.76834 90.7845 3.86074 89.8749C2.95315 88.9653 2.4424 87.7322 2.44043 86.4458V47.0428C2.4424 45.7564 2.95315 44.5233 3.86074 43.6137C4.76834 42.7041 5.99873 42.1922 7.28226 42.1902H62.0843C63.3678 42.1922 64.5982 42.7041 65.5058 43.6137C66.4134 44.5233 66.9241 45.7564 66.9261 47.0428V86.4458C66.9241 87.7322 66.4134 88.9653 65.5058 89.8749C64.5982 90.7845 63.3678 91.2964 62.0843 91.2984H7.28226Z" stroke="#280000" stroke-width="3"/>
</svg>
