<svg width="100" height="119" viewBox="0 0 100 119" fill="none" xmlns="http://www.w3.org/2000/svg">
<path d="M18.7415 75.4311C18.7415 71.3785 19.5397 67.3656 21.0905 63.6215C22.6414 59.8774 24.9145 56.4754 27.7801 53.6098C30.6458 50.7442 34.0477 48.4711 37.7919 46.9202C41.536 45.3693 45.5489 44.5711 49.6015 44.5711C53.6541 44.5711 57.667 45.3693 61.4111 46.9202C65.1552 48.4711 68.5572 50.7442 71.4228 53.6098C74.2884 56.4754 76.5615 59.8774 78.1124 63.6215C79.6632 67.3656 80.4615 71.3785 80.4615 75.4311H87.5615C87.3988 65.3528 83.2811 55.7423 76.0964 48.6727C68.9118 41.603 59.2361 37.6409 49.1565 37.6409C39.0768 37.6409 29.4011 41.603 22.2165 48.6727C15.0319 55.7423 10.9141 65.3528 10.7515 75.4311H18.7415Z" fill="#D01A1C" stroke="#280000" stroke-width="3.79" stroke-miterlimit="10"/>
<path d="M18.7415 104.961C14.498 104.961 10.4283 103.275 7.42775 100.275C4.42716 97.2743 2.74146 93.2046 2.74146 88.9612C2.74146 84.7177 4.42716 80.6481 7.42775 77.6475C10.4283 74.6469 14.498 72.9612 18.7415 72.9612V104.961Z" fill="#D01A1C" stroke="#280000" stroke-width="3.79" stroke-miterlimit="10"/>
<path d="M19.7815 104.421C29.7815 104.421 29.7815 73.1711 19.7815 73.1711V104.421Z" fill="#480303" stroke="#0080BB" stroke-width="5.04" stroke-miterlimit="10"/>
<path d="M79.5415 104.651C71.6515 104.651 71.6515 73.4712 79.5415 73.4712V104.651Z" fill="#480303" stroke="#280000" stroke-width="4.49" stroke-miterlimit="10"/>
<path d="M80.4614 104.951C84.7049 104.951 88.7746 103.265 91.7751 100.265C94.7757 97.2643 96.4614 93.1946 96.4614 88.9512C96.4614 84.7077 94.7757 80.638 91.7751 77.6375C88.7746 74.6369 84.7049 72.9512 80.4614 72.9512V104.951Z" fill="#D01A1C" stroke="#280000" stroke-width="3.79" stroke-miterlimit="10"/>
<path d="M49.5115 53.2912C40.7015 53.2212 22.8615 56.1512 22.8615 77.1212C22.8615 98.0912 21.8615 99.5612 25.6815 105.241C29.5015 110.921 43.7915 115.931 49.5115 116.311C55.2315 116.691 70.2615 108.851 73.8615 105.241C77.2015 101.851 76.4515 89.7312 76.4515 76.4912C76.4115 55.6312 58.3215 53.3512 49.5115 53.2912Z" fill="#27B4E9"/>
<path d="M49.2215 56.9011H49.4815C55.4815 56.9011 60.7115 58.1011 64.4815 60.2311C70.0715 63.4011 72.7915 68.7211 72.7915 76.4911C72.7915 78.6111 72.7915 80.6911 72.7915 82.7111C72.7915 87.9011 72.8815 92.8111 72.5815 96.6011C72.1715 101.601 71.2915 102.601 71.2015 102.701C69.9915 103.931 66.2015 106.431 61.2015 108.851C55.3515 111.701 51.4515 112.711 49.8815 112.711H49.7015C44.1815 112.351 31.4415 107.441 28.6415 103.251C26.2815 99.7111 26.2015 99.1111 26.3215 87.3811C26.3215 84.6411 26.3915 81.2311 26.3915 77.1311C26.3915 69.3011 29.0515 63.8711 34.5315 60.5111C39.6415 57.3711 45.9115 56.9111 49.1815 56.9111M49.1815 53.2911C40.2815 53.2911 22.7815 56.3811 22.7815 77.1311C22.7815 98.1311 21.8315 99.5311 25.6415 105.251C29.4515 110.971 43.7515 115.941 49.4715 116.321H49.8815C55.8815 116.321 70.3015 108.761 73.7815 105.241C77.2615 101.721 76.3715 89.7311 76.3715 76.4911C76.3715 55.6311 58.2815 53.3511 49.4715 53.2911H49.1815Z" fill="#280000"/>
<path d="M45.3515 115.561C47.1215 120.131 55.5215 113.511 65.1915 109.751C74.8615 105.991 85.7715 105.081 84.0415 100.591C82.3115 96.1012 73.3615 101.171 63.6315 104.941C53.9015 108.711 43.5915 111.061 45.3515 115.561Z" fill="#D01A1C" stroke="#280000" stroke-width="3.79" stroke-miterlimit="10"/>
<path d="M82.5214 61.0212C87.7018 61.0212 91.9014 56.8216 91.9014 51.6412C91.9014 46.4607 87.7018 42.2612 82.5214 42.2612C77.3409 42.2612 73.1414 46.4607 73.1414 51.6412C73.1414 56.8216 77.3409 61.0212 82.5214 61.0212Z" fill="#FFBC0A" stroke="#0080BB" stroke-width="2.11" stroke-miterlimit="10"/>
<path d="M85.4415 49.6911C85.4415 49.6911 85.3215 47.5011 83.5015 47.0111V45.7911H81.5015V47.0111C80.9012 47.142 80.3683 47.4851 80.0009 47.9775C79.6334 48.4699 79.4561 49.0784 79.5015 49.6911C79.5168 50.4205 79.7974 51.1193 80.2906 51.6567C80.7839 52.1942 81.4561 52.5335 82.1815 52.6111C82.6615 52.6111 83.4015 52.8511 83.4015 53.6111C83.4176 53.7463 83.4028 53.8834 83.3582 54.0121C83.3137 54.1407 83.2405 54.2576 83.1442 54.3538C83.0479 54.4501 82.9311 54.5233 82.8024 54.5678C82.6738 54.6124 82.5367 54.6272 82.4015 54.6111C82.1363 54.6111 81.8819 54.5058 81.6944 54.3182C81.5069 54.1307 81.4015 53.8764 81.4015 53.6111H79.4015C79.4015 53.6111 79.1615 55.3211 81.4015 56.2911V57.5111H83.4015V56.2611C83.9838 56.0853 84.4951 55.7291 84.8618 55.2438C85.2284 54.7585 85.4315 54.1693 85.4415 53.5611C85.4522 53.1848 85.3879 52.8102 85.2524 52.459C85.117 52.1078 84.913 51.787 84.6525 51.5153C84.392 51.2435 84.08 51.0263 83.7348 50.8763C83.3895 50.7262 83.0179 50.6463 82.6415 50.6411C81.5515 50.6411 81.5515 49.9111 81.5515 49.6411C81.541 49.5071 81.5596 49.3724 81.6062 49.2463C81.6527 49.1202 81.726 49.0057 81.821 48.9107C81.9161 48.8156 82.0306 48.7423 82.1567 48.6958C82.2828 48.6493 82.4175 48.6306 82.5515 48.6411C82.6871 48.623 82.8251 48.6364 82.9546 48.6803C83.0842 48.7241 83.2019 48.7972 83.2987 48.894C83.3954 48.9907 83.4685 49.1084 83.5124 49.238C83.5562 49.3676 83.5696 49.5055 83.5515 49.6411H85.4915" fill="#D01A1C"/>
<path d="M75.5615 49.6211C75.5628 49.0587 75.6752 48.5021 75.8923 47.9832C76.1093 47.4643 76.4268 46.9934 76.8263 46.5976C77.2259 46.2018 77.6997 45.8888 78.2206 45.6766C78.7414 45.4644 79.2991 45.3572 79.8615 45.3611C81.0315 45.3611 78.6515 46.0911 77.4315 47.3011C76.2115 48.5111 75.5615 50.8111 75.5615 49.6211Z" fill="#FAFAFA"/>
<path d="M63.0113 42.9811C68.1918 42.9811 72.3913 38.7816 72.3913 33.6011C72.3913 28.4207 68.1918 24.2211 63.0113 24.2211C57.8309 24.2211 53.6313 28.4207 53.6313 33.6011C53.6313 38.7816 57.8309 42.9811 63.0113 42.9811Z" fill="#FFBC0A" stroke="#0080BB" stroke-width="2.11" stroke-miterlimit="10"/>
<path d="M65.9414 31.6512C65.9414 31.6512 65.8614 29.4612 63.9914 28.9712V27.7512H61.9914V28.9712C61.3931 29.1058 60.8626 29.4499 60.4959 29.9414C60.1291 30.4329 59.9502 31.0393 59.9914 31.6512C60.0117 32.3945 60.3074 33.1038 60.821 33.6415C61.3347 34.1792 62.0297 34.5069 62.7714 34.5612C63.2614 34.5612 63.9914 34.8112 63.9914 35.5612C64.0095 35.6968 63.9961 35.8347 63.9522 35.9643C63.9084 36.0939 63.8353 36.2116 63.7385 36.3083C63.6418 36.4051 63.5241 36.4782 63.3945 36.522C63.2649 36.5659 63.127 36.5793 62.9914 36.5612C62.7261 36.5612 62.4718 36.4558 62.2843 36.2683C62.0967 36.0807 61.9914 35.8264 61.9914 35.5612H59.9914C59.9914 35.5612 59.7514 37.2612 61.9914 38.2312V39.4512H63.9914V38.2212C64.6274 38.0009 65.1662 37.5649 65.5142 36.9888C65.8622 36.4127 65.9974 35.7329 65.8964 35.0675C65.7954 34.4021 65.4646 33.793 64.9613 33.3461C64.458 32.8992 63.8141 32.6427 63.1414 32.6212C62.0414 32.6212 62.0414 31.8912 62.0414 31.6212C62.0308 31.4872 62.0495 31.3525 62.096 31.2264C62.1425 31.1003 62.2158 30.9857 62.3109 30.8907C62.4059 30.7956 62.5205 30.7223 62.6466 30.6758C62.7727 30.6293 62.9074 30.6106 63.0414 30.6212C63.1778 30.5987 63.3175 30.609 63.4492 30.6513C63.5808 30.6936 63.7004 30.7666 63.7981 30.8644C63.8959 30.9621 63.9689 31.0818 64.0112 31.2134C64.0535 31.345 64.0639 31.4848 64.0414 31.6212H65.9914" fill="#D01A1C"/>
<path d="M56.0615 31.5611C56.0615 30.4287 56.5114 29.3426 57.3122 28.5418C58.113 27.741 59.199 27.2911 60.3315 27.2911C61.5015 27.2911 59.1115 28.0211 57.9015 29.2411C56.6915 30.4611 56.0615 32.7711 56.0615 31.5611Z" fill="#FAFAFA"/>
<path d="M87.0214 29.9211C92.2018 29.9211 96.4014 25.7216 96.4014 20.5411C96.4014 15.3607 92.2018 11.1611 87.0214 11.1611C81.8409 11.1611 77.6414 15.3607 77.6414 20.5411C77.6414 25.7216 81.8409 29.9211 87.0214 29.9211Z" fill="#FFBC0A" stroke="#0080BB" stroke-width="2.11" stroke-miterlimit="10"/>
<path d="M89.9514 18.5612C89.9514 18.5612 89.8314 16.3712 87.9514 15.8812V14.7012H85.9514V15.9112C85.3531 16.0458 84.8227 16.3899 84.4559 16.8814C84.0891 17.3729 83.9102 17.9793 83.9514 18.5912C83.943 19.3574 84.2341 20.0966 84.7627 20.6513C85.2913 21.2061 86.0156 21.5325 86.7814 21.5612C87.2714 21.5612 88.0014 21.8112 88.0014 22.5612C88.0195 22.6968 88.0061 22.8347 87.9622 22.9643C87.9184 23.0939 87.8453 23.2116 87.7485 23.3083C87.6518 23.4051 87.5341 23.4782 87.4045 23.522C87.2749 23.5659 87.137 23.5793 87.0014 23.5612C86.7362 23.5612 86.4818 23.4558 86.2943 23.2683C86.1067 23.0807 86.0014 22.8264 86.0014 22.5612H84.0014C84.0014 22.5612 83.7614 24.2612 86.0014 25.2412V26.4512H88.0014V25.1712C88.573 24.9895 89.0733 24.6332 89.432 24.1525C89.7907 23.6719 89.9899 23.0909 90.0014 22.4912C90.0135 22.1099 89.9486 21.73 89.8107 21.3744C89.6728 21.0187 89.4646 20.6944 89.1986 20.4209C88.9326 20.1475 88.6142 19.9304 88.2625 19.7827C87.9108 19.635 87.5329 19.5596 87.1514 19.5612C86.0514 19.5612 86.0514 18.8312 86.0514 18.5612C86.0408 18.4272 86.0595 18.2925 86.106 18.1664C86.1525 18.0403 86.2259 17.9258 86.3209 17.8307C86.416 17.7357 86.5305 17.6623 86.6566 17.6158C86.7827 17.5693 86.9174 17.5506 87.0514 17.5612C87.1874 17.5409 87.3262 17.5528 87.4568 17.5959C87.5873 17.639 87.706 17.7121 87.8032 17.8093C87.9004 17.9065 87.9735 18.0252 88.0166 18.1558C88.0597 18.2863 88.0716 18.4252 88.0514 18.5612H90.0514" fill="#D01A1C"/>
<path d="M80.0715 18.5611C80.0715 17.4287 80.5214 16.3426 81.3222 15.5418C82.123 14.741 83.2091 14.2911 84.3415 14.2911C85.5115 14.2911 83.1215 15.0211 81.9015 16.2911C80.6815 17.5611 80.0715 19.7111 80.0715 18.5611Z" fill="#FAFAFA"/>
<path d="M65.4614 11.9312V18.4612" stroke="#27B4E9" stroke-width="2.11" stroke-miterlimit="10"/>
<path d="M62.2014 15.2012H68.7314" stroke="#27B4E9" stroke-width="2.11" stroke-miterlimit="10"/>
<path d="M96.6313 56.1611V62.6911" stroke="#27B4E9" stroke-width="2.11" stroke-miterlimit="10"/>
<path d="M93.3716 59.4211H99.9016" stroke="#27B4E9" stroke-width="2.11" stroke-miterlimit="10"/>
<path d="M95.7915 0.561157V7.09116" stroke="#27B4E9" stroke-width="2.11" stroke-miterlimit="10"/>
<path d="M92.5215 3.82117H99.0515" stroke="#27B4E9" stroke-width="2.11" stroke-miterlimit="10"/>
<path d="M94.5315 35.5212V42.0512" stroke="#27B4E9" stroke-width="2.11" stroke-miterlimit="10"/>
<path d="M91.2615 38.7911H97.7915" stroke="#27B4E9" stroke-width="2.11" stroke-miterlimit="10"/>
</svg>
