<svg width="75" height="71" viewBox="0 0 75 71" fill="none" xmlns="http://www.w3.org/2000/svg">
<path d="M37.682 45.1227C33.3014 45.1227 29.0192 43.8237 25.3768 41.39C21.7345 38.9562 18.8956 35.4971 17.2192 31.4499C15.5428 27.4027 15.1042 22.9493 15.9588 18.6529C16.8134 14.3564 18.9229 10.4099 22.0205 7.31233C25.118 4.21476 29.0646 2.10528 33.361 1.25067C37.6575 0.396049 42.1109 0.83467 46.158 2.51106C50.2052 4.18746 53.6644 7.02633 56.0981 10.6687C58.5319 14.311 59.8309 18.5933 59.8309 22.9739C59.8309 25.8825 59.258 28.7627 58.1449 31.4499C57.0318 34.1371 55.4003 36.5788 53.3436 38.6355C49.1899 42.7892 43.5563 45.1227 37.682 45.1227ZM37.682 9.51175C35.0109 9.51175 32.3998 10.3038 30.1789 11.7878C27.9579 13.2718 26.2269 15.3811 25.2047 17.8488C24.1825 20.3166 23.9151 23.0321 24.4362 25.6519C24.9573 28.2717 26.2435 30.6781 28.1323 32.5669C30.0211 34.4556 32.4275 35.7419 35.0473 36.263C37.6671 36.7841 40.3825 36.5167 42.8503 35.4945C45.3181 34.4723 47.4274 32.7413 48.9114 30.5203C50.3954 28.2994 51.1874 25.6882 51.1874 23.0171C51.1874 19.4353 49.7645 16.0001 47.2318 13.4674C44.699 10.9346 41.2639 9.51175 37.682 9.51175Z" fill="#0081BC"/>
<path d="M74.9992 70.286H66.3557C66.3557 60.6323 53.2339 52.4589 37.7243 52.4589C22.2147 52.4589 9.09291 60.6107 9.09291 70.286H0.40625C0.40625 62.8904 4.51729 56.0567 11.9777 51.0489C18.9086 46.3977 28.0437 43.837 37.6811 43.837C47.3186 43.837 56.4698 46.3977 63.4062 51.0489C70.8882 56.0567 74.9992 62.8904 74.9992 70.286Z" fill="#0081BC"/>
</svg>
