<svg width="151" height="202" viewBox="0 0 151 202" fill="none" xmlns="http://www.w3.org/2000/svg">
<path d="M75.8176 0.297607C45.9396 0.297607 23.9668 15.0467 23.9668 37.9409V81.0228L43.0016 81.1393V51.3562C43.0016 31.7641 56.8575 19.1387 75.6806 19.1387C94.5038 19.1387 107.949 32.4245 107.949 48.0283V81.1393L126.984 81.23V34.0691C126.984 15.8237 105.696 0.297607 75.8176 0.297607Z" fill="#D01A1C"/>
<path d="M138.549 90.3512H12.4512C9.28154 90.3512 6.24171 91.6609 4.00042 93.9922C1.75914 96.3235 0.5 99.4855 0.5 102.782V189.374C0.5 192.671 1.75914 195.832 4.00042 198.164C6.24171 200.495 9.28154 201.805 12.4512 201.805H138.549C141.718 201.805 144.758 200.495 147 198.164C149.241 195.832 150.5 192.671 150.5 189.374V102.782C150.5 101.15 150.191 99.5334 149.59 98.0252C148.99 96.517 148.109 95.1466 147 93.9922C145.89 92.8379 144.572 91.9222 143.122 91.2975C141.672 90.6727 140.118 90.3512 138.549 90.3512ZM88.0755 172.841C88.3703 174.096 87.4178 175.298 86.1285 175.298H65.3222C64.0683 175.298 63.1237 174.157 63.3571 172.926L67.4729 151.201C67.6375 150.332 67.2048 149.468 66.4576 148.994C63.5781 147.17 61.2686 144.498 59.8328 141.3C58.1879 137.636 57.7869 133.501 58.6955 129.57C59.604 125.638 61.7683 122.144 64.8343 119.659C67.9003 117.173 71.6864 115.844 75.5733 115.888C79.4602 115.931 83.2177 117.346 86.2312 119.9C89.2447 122.454 91.3357 125.996 92.1622 129.947C92.9887 133.897 92.5017 138.023 90.7809 141.649C89.2943 144.781 86.963 147.379 84.0877 149.137C83.2914 149.624 82.8408 150.549 83.0541 151.458L88.0755 172.841Z" fill="#D01A1C"/>
</svg>
