<svg width="235" height="208" viewBox="0 0 235 208" fill="none" xmlns="http://www.w3.org/2000/svg">
<path d="M4 11C4 6.85787 7.35787 3.5 11.5 3.5H223.5C227.642 3.5 231 6.85786 231 11V115.157C231 119.299 227.642 122.657 223.5 122.657H11.5C7.35787 122.657 4 119.299 4 115.157V11Z" fill="#6FDCB0" stroke="#23845D" stroke-width="7"/>
<path d="M42.2127 16.2783H40.652C35.1388 16.2783 30.6963 20.6419 27.5648 25.1795C27.0079 25.9864 26.3766 26.762 25.6646 27.4772C21.3786 31.7827 15.7605 36.464 15.7605 42.5391V85.5995C15.7605 90.843 19.6629 95.1737 24.0377 98.0642C24.9528 98.6688 25.8381 99.3546 26.6535 100.127C31.0653 104.303 35.9462 109.878 42.0214 109.878H192.839C198.56 109.878 203.147 105.058 206.906 100.745C208.108 99.3649 209.467 98.2149 210.816 97.2696C214.838 94.451 218.221 90.214 218.221 85.3027V40.4849C218.221 35.7501 215.076 31.6676 211.152 29.0178C209.861 28.1459 208.593 27.1388 207.455 26.0006C203.16 21.704 198.036 16.2783 191.96 16.2783H60.5257" stroke="#23845D" stroke-width="7" stroke-linecap="round"/>
<circle cx="117.5" cy="62.9379" r="43.3" stroke="#23845D" stroke-width="7"/>
<circle cx="117.816" cy="63.2537" r="33.1261" stroke="#23845D" stroke-width="7"/>
<circle cx="41.1955" cy="63.0783" r="8.7087" stroke="#23845D" stroke-width="7"/>
<circle cx="193.804" cy="63.0783" r="8.7087" stroke="#23845D" stroke-width="7"/>
<rect x="4" y="3.5" width="227" height="119.157" rx="7.5" stroke="#23845D" stroke-width="7"/>
<path d="M125.639 54.9392C125.978 51.5479 124.825 44.9687 117.5 45.7826M117.5 45.7826V39.6783M117.5 45.7826C114.448 45.7826 108.547 47.614 109.361 54.9392C110.378 64.0956 118.518 62.0609 121.57 64.0956C124.622 66.1304 125.639 68.1652 125.639 72.2348C125.639 76.3043 121.569 80.3739 117.5 80.3739M117.5 80.3739V86.4783M117.5 80.3739C114.448 80.3739 108.547 78.5426 109.361 71.2174" stroke="#23845D" stroke-width="7"/>
<path d="M165.747 184.602V101.281L226.16 157.554L198.188 160.571L213.739 197.687L203.149 202.561L186.928 165.785L165.747 184.602Z" fill="white" stroke="#280000" stroke-width="7" stroke-miterlimit="10"/>
</svg>
