<svg width="41" height="18" viewBox="0 0 41 18" fill="none" xmlns="http://www.w3.org/2000/svg">
<path d="M40.722 9.98435C41.0452 9.53584 40.9639 8.8857 40.5403 8.53221L33.6376 2.77171C33.214 2.41822 32.6085 2.49524 32.2853 2.94374C31.962 3.39224 32.0433 4.04239 32.4669 4.39588L38.6027 9.51632L33.9201 16.013C33.5968 16.4615 33.6782 17.1116 34.1018 17.4651C34.5253 17.8186 35.1308 17.7416 35.4541 17.2931L40.722 9.98435ZM1.13848 2.26801C1.44526 3.25336 1.44496 3.25346 1.44471 3.25355C1.44467 3.25356 1.44445 3.25364 1.44438 3.25366C1.44424 3.25371 1.44426 3.2537 1.44443 3.25364C1.44476 3.25353 1.4457 3.25321 1.44725 3.25269C1.45035 3.25165 1.45587 3.24981 1.46375 3.24722C1.47953 3.24204 1.50481 3.23385 1.53924 3.22305C1.6081 3.20144 1.71353 3.16938 1.85281 3.13C2.13145 3.0512 2.54503 2.9432 3.07182 2.83081C4.12641 2.60582 5.6289 2.36446 7.40685 2.30263C10.9699 2.17873 15.5833 2.77703 19.9252 5.60859L20.9094 3.84648C16.1384 0.735115 11.1123 0.103655 7.31422 0.235726C5.41158 0.301887 3.80305 0.559943 2.66675 0.802369C2.0981 0.92369 1.64628 1.04141 1.33337 1.12989C1.17688 1.17415 1.055 1.21113 0.970502 1.23764C0.928248 1.2509 0.895327 1.26155 0.872082 1.26918C0.860458 1.273 0.851253 1.27607 0.844509 1.27833C0.841136 1.27946 0.838379 1.2804 0.836242 1.28112C0.835173 1.28148 0.834259 1.28179 0.833502 1.28205C0.833124 1.28218 0.832671 1.28234 0.832483 1.2824C0.83207 1.28254 0.831697 1.28267 1.13848 2.26801ZM19.9252 5.60859C24.6472 8.68802 29.6868 9.87212 33.52 10.2931C35.4407 10.504 37.0706 10.5247 38.2241 10.4923C38.8011 10.4761 39.2599 10.4465 39.5773 10.4207C39.736 10.4078 39.8594 10.3958 39.9447 10.3868C39.9874 10.3823 40.0205 10.3786 40.0437 10.3759C40.0554 10.3745 40.0645 10.3734 40.0711 10.3726C40.0745 10.3722 40.0771 10.3719 40.0792 10.3716C40.0802 10.3715 40.0811 10.3714 40.0818 10.3713C40.0822 10.3713 40.0826 10.3712 40.0827 10.3712C40.0831 10.3712 40.0834 10.3711 39.955 9.34429C39.8266 8.31747 39.8268 8.31744 39.827 8.31742C39.827 8.31741 39.8272 8.31739 39.8272 8.31739C39.8273 8.31738 39.8272 8.31739 39.827 8.31742C39.8265 8.31748 39.8254 8.31762 39.8237 8.31783C39.8202 8.31825 39.8143 8.31896 39.8059 8.31994C39.7891 8.32189 39.7626 8.32488 39.7267 8.32866C39.6548 8.33622 39.5454 8.3469 39.4013 8.35863C39.1129 8.3821 38.6861 8.40975 38.1434 8.425C37.0574 8.45552 35.5115 8.43629 33.687 8.23591C30.0296 7.83424 25.3003 6.70996 20.9094 3.84648L19.9252 5.60859Z" fill="black"/>
</svg>
