<svg width="40" height="18" viewBox="0 0 40 18" fill="none" xmlns="http://www.w3.org/2000/svg">
<path d="M39.0512 11.82C39.5742 11.7188 39.9133 11.1816 39.8086 10.6201L38.1023 1.4702C37.9976 0.908716 37.4887 0.535587 36.9657 0.63679C36.4426 0.737994 36.1035 1.27521 36.2082 1.83669L37.725 9.96992L30.1486 11.4359C29.6256 11.5371 29.2865 12.0743 29.3912 12.6358C29.4959 13.1973 30.0048 13.5704 30.5278 13.4692L39.0512 11.82ZM38.8616 10.8033C39.3972 9.95487 39.3967 9.9545 39.3962 9.95412C39.3959 9.95395 39.3954 9.95353 39.3949 9.9532C39.394 9.95254 39.3929 9.95177 39.3917 9.95089C39.3893 9.94913 39.3863 9.94694 39.3827 9.94434C39.3754 9.93913 39.3658 9.93225 39.3538 9.92379C39.3298 9.90687 39.2963 9.88362 39.2536 9.85477C39.1683 9.79709 39.046 9.71698 38.8888 9.6203C38.5747 9.42704 38.1201 9.16701 37.5416 8.88759C36.3858 8.32936 34.7266 7.68952 32.6975 7.35431C28.6134 6.67962 23.0909 7.25203 17.2475 12.0621L18.444 13.7084C23.839 9.26753 28.8244 8.79897 32.4386 9.39604C34.2587 9.69672 35.7462 10.271 36.7749 10.7678C37.2887 11.016 37.6858 11.2437 37.9502 11.4064C38.0823 11.4877 38.1811 11.5525 38.2445 11.5954C38.2761 11.6168 38.2989 11.6327 38.3126 11.6423C38.3195 11.6471 38.324 11.6504 38.3263 11.652C38.3274 11.6528 38.3279 11.6532 38.3279 11.6532C38.3279 11.6531 38.3277 11.653 38.3274 11.6528C38.3272 11.6527 38.3269 11.6524 38.3268 11.6524C38.3264 11.6521 38.326 11.6518 38.8616 10.8033ZM17.2475 12.0621C11.8346 16.5177 8.1136 16.2233 5.82723 15.1113C4.63913 14.5334 3.75125 13.6943 3.15663 12.9892C2.86071 12.6383 2.6422 12.3262 2.50012 12.1063C2.42921 11.9966 2.37777 11.9105 2.34564 11.8549C2.32958 11.8271 2.31839 11.8069 2.31203 11.7953C2.30885 11.7895 2.30689 11.7859 2.30613 11.7845C2.30576 11.7838 2.30568 11.7836 2.30591 11.7841C2.30603 11.7843 2.30622 11.7846 2.30648 11.7851C2.30662 11.7854 2.30687 11.7859 2.30694 11.786C2.30721 11.7865 2.30751 11.7871 1.46614 12.277C0.624766 12.7668 0.625099 12.7674 0.625452 12.7681C0.625596 12.7684 0.625971 12.7691 0.62626 12.7697C0.62684 12.7708 0.627501 12.772 0.628243 12.7734C0.629729 12.7762 0.631539 12.7797 0.633676 12.7837C0.63795 12.7917 0.643532 12.802 0.650424 12.8146C0.664208 12.8397 0.683253 12.8738 0.707597 12.916C0.756261 13.0002 0.82625 13.1169 0.917878 13.2587C1.10085 13.5419 1.37179 13.9278 1.73347 14.3566C2.45401 15.2111 3.55383 16.2586 5.05583 16.9892C8.14965 18.494 12.6184 18.5038 18.444 13.7084L17.2475 12.0621Z" fill="black"/>
</svg>
