<?xml version="1.0" encoding="UTF-8"?>
<svg id="Capa_1" data-name="Capa 1" xmlns="http://www.w3.org/2000/svg" xmlns:xlink="http://www.w3.org/1999/xlink" viewBox="0 0 1440 629.8">
  <defs>
    <style>
      .cls-1 {
        fill: url(#MotivoFederal2);
        opacity: .15;
      }

      .cls-2 {
        fill: #171818;
      }

      .cls-3 {
        fill: url(#Degradado_sin_nombre_21);
      }

      .cls-4 {
        isolation: isolate;
        opacity: .5;
      }

      .cls-4, .cls-5 {
        fill: #647276;
      }

      .cls-6 {
        opacity: .65;
      }

      .cls-7 {
        opacity: .7;
      }

      .cls-8 {
        opacity: .4;
      }

      .cls-9 {
        opacity: .3;
      }

      .cls-10 {
        opacity: .75;
      }

      .cls-11 {
        fill: #e94732;
      }

      .cls-12 {
        fill: none;
      }

      .cls-13 {
        opacity: .1;
      }

      .cls-14 {
        mask: url(#mask);
      }

      .cls-15 {
        opacity: .2;
      }

      .cls-16 {
        opacity: .15;
      }
    </style>
    <linearGradient id="Degradado_sin_nombre_21" data-name="Degradado sin nombre 21" x1="718.5" y1="452.07" x2="718.5" y2="42.69" gradientUnits="userSpaceOnUse">
      <stop offset=".2" stop-color="#000"/>
      <stop offset=".28" stop-color="#131313"/>
      <stop offset=".45" stop-color="#444"/>
      <stop offset=".7" stop-color="#949494"/>
      <stop offset="1" stop-color="#fff"/>
    </linearGradient>
    <mask id="mask" x="-428.68" y="0" width="2294.36" height="486.38" maskUnits="userSpaceOnUse">
      <path class="cls-3" d="M519.35,342.74C-515.87,470.74-437.06,149.8-420.57,0H1865.68V486.38c-233.58-83.43-693.41-224.36-1346.32-143.64Z"/>
    </mask>
    <pattern id="MotivoFederal2" x="0" y="0" width="320" height="238.21" patternTransform="translate(6356.78 -1640.96)" patternUnits="userSpaceOnUse" viewBox="0 0 320 238.21">
      <g>
        <rect class="cls-12" width="320" height="238.21"/>
        <g>
          <g>
            <path class="cls-2" d="M36.15,61.35H11.82c-.82,0-1.49-.67-1.49-1.49V16.31c0-.82,.67-1.49,1.49-1.49h25.62c.82,0,1.49,.67,1.49,1.49v8.75h8.75c.82,0,1.49,.67,1.49,1.49s-.67,1.49-1.49,1.49h-10.25c-.82,0-1.49-.67-1.49-1.49v-8.75H13.31V58.37h22.84c.82,0,1.49,.67,1.49,1.49s-.67,1.49-1.49,1.49Z"/>
            <path class="cls-2" d="M49.06,27.13c.23-.56,.1-1.2-.32-1.63l-10.25-10.25c-.43-.43-1.07-.55-1.63-.32-.56,.23-.92,.78-.92,1.38v10.25c0,.82,.67,1.49,1.49,1.49h10.25c.6,0,1.15-.36,1.38-.92Zm-10.13-7.21l5.15,5.15h-5.15v-5.15Z"/>
            <path class="cls-2" d="M55.37,35.74c-.82,0-1.49-.67-1.49-1.49v-14.75l-9.37-9.37H21v4.7h16.44c.82,0,1.49,.67,1.49,1.49v8.75h8.75c.82,0,1.49,.67,1.49,1.49v5.12c0,.82-.67,1.49-1.49,1.49s-1.49-.67-1.49-1.49v-3.63h-8.75c-.82,0-1.49-.67-1.49-1.49v-8.75H19.5c-.82,0-1.49-.67-1.49-1.49v-7.69c0-.82,.67-1.49,1.49-1.49h25.62c.4,0,.78,.16,1.06,.44l10.25,10.25c.28,.28,.44,.66,.44,1.06v15.37c0,.82-.67,1.49-1.49,1.49Z"/>
            <path class="cls-2" d="M56.75,19.44c.23-.56,.1-1.2-.32-1.63l-10.25-10.25c-.43-.43-1.07-.55-1.63-.32-.56,.23-.92,.78-.92,1.38v10.25c0,.82,.67,1.49,1.49,1.49h10.25c.6,0,1.15-.36,1.38-.92Zm-10.13-7.21l5.15,5.15h-5.15v-5.15Z"/>
            <path class="cls-2" d="M49.06,27.13c.23-.56,.1-1.2-.32-1.63l-10.25-10.25c-.43-.43-1.07-.55-1.63-.32-.56,.23-.92,.78-.92,1.38v10.25c0,.82,.67,1.49,1.49,1.49h10.25c.6,0,1.15-.36,1.38-.92Zm-10.13-7.21l5.15,5.15h-5.15v-5.15Z"/>
            <path class="cls-2" d="M28.68,26.56c0-3.65-2.97-6.62-6.62-6.62s-6.62,2.97-6.62,6.62,2.97,6.62,6.62,6.62,6.62-2.97,6.62-6.62Zm-2.99,0c0,2-1.63,3.63-3.63,3.63s-3.63-1.63-3.63-3.63,1.63-3.63,3.63-3.63,3.63,1.63,3.63,3.63Z"/>
            <path class="cls-2" d="M36.15,52.39H18.22c-.82,0-1.49-.67-1.49-1.49s.67-1.49,1.49-1.49h17.93c.82,0,1.49,.67,1.49,1.49s-.67,1.49-1.49,1.49Z"/>
            <path class="cls-2" d="M36.15,45.98H18.22c-.82,0-1.49-.67-1.49-1.49s.67-1.49,1.49-1.49h17.93c.82,0,1.49,.67,1.49,1.49s-.67,1.49-1.49,1.49Z"/>
            <path class="cls-2" d="M29.75,39.58h-11.53c-.82,0-1.49-.67-1.49-1.49s.67-1.49,1.49-1.49h11.53c.82,0,1.49,.67,1.49,1.49s-.67,1.49-1.49,1.49Z"/>
          </g>
          <path class="cls-2" d="M48.7,61.35c3.08-.21,6-1.56,8.22-3.78s3.57-5.15,3.78-8.24c0,0,0,0,0,0,.28-4.13-1.26-7.92-4.33-10.69,0,0-.01,0-.02-.01-2.44-2.14-5.52-3.32-8.67-3.32-2.74,0-5.37,.84-7.61,2.44-2.21,1.58-3.83,3.74-4.69,6.25,0,0,0,0,0,.01-.46,1.37-.72,2.94-.72,4.31,0,1.01,.14,1.99,.28,2.81,0,.03,.01,.06,.02,.09,1.41,6.04,6.61,10.17,12.61,10.17,.37,0,.75-.02,1.13-.05Zm-11.05-13.02c0-1.05,.21-2.31,.56-3.37,1.37-3.99,5.18-6.67,9.47-6.67,2.42,0,4.8,.91,6.69,2.57,2.37,2.14,3.56,5.07,3.34,8.26-.33,4.85-4.39,8.91-9.24,9.24,0,0-.02,0-.03,0-4.96,.43-9.4-2.83-10.57-7.77-.11-.69-.23-1.49-.23-2.27Zm21.56,.9h0Z"/>
          <path class="cls-2" d="M47.68,44.7c-.82,0-1.49-.67-1.49-1.49v-1.28c0-.82,.67-1.49,1.49-1.49s1.49,.67,1.49,1.49v1.28c0,.82-.67,1.49-1.49,1.49Z"/>
          <path class="cls-2" d="M47.68,56.23c-.82,0-1.49-.67-1.49-1.49v-1.28c0-.82,.67-1.49,1.49-1.49s1.49,.67,1.49,1.49v1.28c0,.82-.67,1.49-1.49,1.49Z"/>
          <path class="cls-2" d="M47.68,54.95h-.26c-1.06,0-2.07-.43-2.85-1.21l-.51-.51c-.58-.58-.58-1.53,0-2.11,.58-.58,1.53-.58,2.11,0l.51,.51c.22,.22,.47,.33,.74,.33h.26c.59,0,1.07-.48,1.07-1.07s-.48-1.07-1.07-1.07c-2.24,0-4.05-1.82-4.05-4.05s1.82-4.05,4.05-4.05h.26c1.06,0,2.07,.43,2.85,1.21l.51,.51c.58,.58,.58,1.53,0,2.11-.58,.58-1.53,.58-2.11,0l-.51-.51c-.22-.22-.47-.33-.74-.33h-.26c-.59,0-1.07,.48-1.07,1.07s.48,1.07,1.07,1.07c2.24,0,4.05,1.82,4.05,4.05s-1.82,4.05-4.05,4.05Z"/>
        </g>
        <g>
          <g>
            <g>
              <path class="cls-2" d="M167.45,51.41V30.21c0-2.92-2.37-5.29-5.29-5.29h-35.02c-2.92,0-5.29,2.37-5.29,5.29v21.2c0,2.92,2.37,5.29,5.29,5.29h35.02c2.92,0,5.29-2.37,5.29-5.29Zm-5.29-23.3c1.18,0,2.1,.92,2.1,2.1v21.2c0,1.18-.92,2.1-2.1,2.1h-35.02c-1.18,0-2.1-.92-2.1-2.1V30.21c0-1.18,.92-2.1,2.1-2.1h35.02Z"/>
              <path class="cls-2" d="M165.85,35.63h-42.41c-.88,0-1.59-.71-1.59-1.59s.71-1.59,1.59-1.59h42.41c.88,0,1.59,.71,1.59,1.59s-.71,1.59-1.59,1.59Z"/>
            </g>
            <g>
              <path class="cls-2" d="M172.56,44.66c-.14,0-.27-.02-.41-.05-.85-.23-1.36-1.1-1.13-1.95l5.47-20.52c.33-1.23-.3-2.39-1.47-2.7l-33.65-9.03c-1.23-.33-2.39,.3-2.7,1.47l-2.6,9.58c-.23,.85-1.11,1.35-1.96,1.12-.85-.23-1.35-1.11-1.12-1.96l2.6-9.58c.76-2.87,3.66-4.51,6.6-3.72l33.65,9.03c2.87,.77,4.51,3.67,3.73,6.6l-5.47,20.52c-.19,.71-.84,1.18-1.54,1.18Z"/>
              <path class="cls-2" d="M177.07,27.7c-.14,0-.27-.02-.41-.05l-41.04-10.94c-.85-.23-1.36-1.1-1.13-1.95,.23-.85,1.1-1.36,1.95-1.13l41.04,10.94c.85,.23,1.36,1.1,1.13,1.95-.19,.71-.83,1.18-1.54,1.18Z"/>
            </g>
          </g>
          <path class="cls-2" d="M161.98,49.08c0-1.3-.98-2.28-2.28-2.28h-8.21c-1.3,0-2.28,.98-2.28,2.28s.98,2.28,2.28,2.28h8.21c1.3,0,2.28-.98,2.28-2.28Zm-2.28,.91h0Z"/>
          <path class="cls-2" d="M146.93,49.08c0-1.26-1.02-2.28-2.28-2.28s-2.28,1.02-2.28,2.28,1.02,2.28,2.28,2.28,2.28-1.02,2.28-2.28Zm-1.37,0c0,.5-.41,.91-.91,.91s-.91-.41-.91-.91,.41-.91,.91-.91,.91,.41,.91,.91Z"/>
        </g>
        <g>
          <path class="cls-2" d="M237.65,187.05c1.25-1.25,1.97-2.95,1.97-4.64,0-3.65-2.97-6.62-6.62-6.62h-40.99c-1.7,0-3.39,.72-4.64,1.97-1.25,1.25-1.97,2.95-1.97,4.64,0,3.65,2.97,6.62,6.62,6.62h2.56c.82,0,1.49-.67,1.49-1.49v-3.63h32.88v3.63c0,.82,.67,1.49,1.49,1.49h2.56c1.7,0,3.39-.72,4.64-1.97Zm-5.71-4.64c0-.82-.67-1.49-1.49-1.49h-35.86c-.82,0-1.49,.67-1.49,1.49v3.63h-1.07c-2,0-3.63-1.63-3.63-3.63,0-.91,.4-1.83,1.1-2.53s1.62-1.1,2.53-1.1h40.99c2,0,3.63,1.63,3.63,3.63,0,.91-.4,1.83-1.1,2.53-.7,.7-1.62,1.1-2.53,1.1h-1.07v-3.63Z"/>
          <path class="cls-2" d="M233.01,183.9h-2.56c-.82,0-1.49-.67-1.49-1.49s.67-1.49,1.49-1.49h2.56c.82,0,1.49,.67,1.49,1.49s-.67,1.49-1.49,1.49Z"/>
          <path class="cls-2" d="M231.94,228.52v-46.11c0-.82-.67-1.49-1.49-1.49h-35.86c-.82,0-1.49,.67-1.49,1.49v46.11c0,.82,.67,1.49,1.49,1.49h3.84c.82,0,1.49-.67,1.49-1.49,0-.59,.48-1.07,1.07-1.07s1.07,.48,1.07,1.07c0,.82,.67,1.49,1.49,1.49h6.4c.82,0,1.49-.67,1.49-1.49,0-.59,.48-1.07,1.07-1.07s1.07,.48,1.07,1.07c0,.82,.67,1.49,1.49,1.49h6.4c.82,0,1.49-.67,1.49-1.49,0-.59,.48-1.07,1.07-1.07s1.07,.48,1.07,1.07c0,.82,.67,1.49,1.49,1.49h3.84c.82,0,1.49-.67,1.49-1.49Zm-7.9-4.05c-1.71,0-3.17,1.06-3.77,2.56h-3.99c-.6-1.5-2.06-2.56-3.77-2.56s-3.17,1.06-3.77,2.56h-3.99c-.6-1.5-2.06-2.56-3.77-2.56s-3.17,1.06-3.77,2.56h-1.14v-43.13h32.88v43.13h-1.14c-.6-1.5-2.06-2.56-3.77-2.56Z"/>
          <path class="cls-2" d="M194.58,183.9h-2.56c-.82,0-1.49-.67-1.49-1.49s.67-1.49,1.49-1.49h2.56c.82,0,1.49,.67,1.49,1.49s-.67,1.49-1.49,1.49Z"/>
          <path class="cls-2" d="M212.51,194.15h-11.53c-.82,0-1.49-.67-1.49-1.49s.67-1.49,1.49-1.49h11.53c.82,0,1.49,.67,1.49,1.49s-.67,1.49-1.49,1.49Z"/>
          <path class="cls-2" d="M224.04,200.55h-23.06c-.82,0-1.49-.67-1.49-1.49s.67-1.49,1.49-1.49h23.06c.82,0,1.49,.67,1.49,1.49s-.67,1.49-1.49,1.49Z"/>
          <path class="cls-2" d="M224.04,206.96h-23.06c-.82,0-1.49-.67-1.49-1.49s.67-1.49,1.49-1.49h23.06c.82,0,1.49,.67,1.49,1.49s-.67,1.49-1.49,1.49Z"/>
          <path class="cls-2" d="M224.04,213.36h-23.06c-.82,0-1.49-.67-1.49-1.49s.67-1.49,1.49-1.49h23.06c.82,0,1.49,.67,1.49,1.49s-.67,1.49-1.49,1.49Z"/>
          <path class="cls-2" d="M224.04,219.77h-23.06c-.82,0-1.49-.67-1.49-1.49s.67-1.49,1.49-1.49h23.06c.82,0,1.49,.67,1.49,1.49s-.67,1.49-1.49,1.49Z"/>
        </g>
        <g>
          <g>
            <path class="cls-2" d="M87.64,229.59v-10.25c0-.82-.67-1.49-1.49-1.49h-7.69c-.82,0-1.49,.67-1.49,1.49v10.25c0,.82,.67,1.49,1.49,1.49h7.69c.82,0,1.49-.67,1.49-1.49Zm-7.69-8.75h4.7v7.26h-4.7v-7.26Z"/>
            <path class="cls-2" d="M103.01,229.59v-25.62c0-.82-.67-1.49-1.49-1.49h-7.69c-.82,0-1.49,.67-1.49,1.49v25.62c0,.82,.67,1.49,1.49,1.49h7.69c.82,0,1.49-.67,1.49-1.49Zm-7.69-24.12h4.7v22.63h-4.7v-22.63Z"/>
            <path class="cls-2" d="M118.38,229.59v-40.99c0-.82-.67-1.49-1.49-1.49h-7.69c-.82,0-1.49,.67-1.49,1.49v40.99c0,.82,.67,1.49,1.49,1.49h7.69c.82,0,1.49-.67,1.49-1.49Zm-7.69-39.5h4.7v38h-4.7v-38Z"/>
            <g>
              <path class="cls-2" d="M72.06,210.59c-.38,0-.76-.15-1.06-.44-.58-.58-.58-1.53,0-2.11l30.74-30.74c.58-.58,1.53-.58,2.11,0,.58,.58,.58,1.53,0,2.11l-30.74,30.74c-.29,.29-.67,.44-1.06,.44Z"/>
              <path class="cls-2" d="M102.8,187.53c-.82,0-1.49-.67-1.49-1.49v-6.19h-6.19c-.82,0-1.49-.67-1.49-1.49s.67-1.49,1.49-1.49h7.69c.82,0,1.49,.67,1.49,1.49v7.69c0,.82-.67,1.49-1.49,1.49Z"/>
            </g>
          </g>
          <path class="cls-2" d="M123.29,231.08h-51.24c-.82,0-1.49-.67-1.49-1.49s.67-1.49,1.49-1.49h51.24c.82,0,1.49,.67,1.49,1.49s-.67,1.49-1.49,1.49Z"/>
        </g>
        <g>
          <path class="cls-2" d="M308.93,95.75h-51.24c-.82,0-1.49-.67-1.49-1.49s.67-1.49,1.49-1.49h51.24c.82,0,1.49,.67,1.49,1.49s-.67,1.49-1.49,1.49Z"/>
          <path class="cls-2" d="M307.86,123.71v-29.46c0-.82-.67-1.49-1.49-1.49h-46.11c-.82,0-1.49,.67-1.49,1.49v29.46c0,2.99,2.34,5.34,5.34,5.34h38.43c2.99,0,5.34-2.34,5.34-5.34Zm-2.99-27.97v27.97c0,1.36-.99,2.35-2.35,2.35h-38.43c-1.36,0-2.35-.99-2.35-2.35v-27.97h43.13Z"/>
          <path class="cls-2" d="M287.36,142.93c0-2.24-1.82-4.05-4.05-4.05s-4.05,1.82-4.05,4.05,1.82,4.05,4.05,4.05,4.05-1.82,4.05-4.05Zm-2.99,0c0,.59-.48,1.07-1.07,1.07s-1.07-.48-1.07-1.07,.48-1.07,1.07-1.07,1.07,.48,1.07,1.07Z"/>
          <path class="cls-2" d="M283.31,141.86c-.82,0-1.49-.67-1.49-1.49v-12.81c0-.82,.67-1.49,1.49-1.49s1.49,.67,1.49,1.49v12.81c0,.82-.67,1.49-1.49,1.49Z"/>
          <path class="cls-2" d="M298.68,121.36h-30.74c-.82,0-1.49-.67-1.49-1.49s.67-1.49,1.49-1.49h30.74c.82,0,1.49,.67,1.49,1.49s-.67,1.49-1.49,1.49Z"/>
          <path class="cls-2" d="M277.12,119.87v-7.69c0-.82-.67-1.49-1.49-1.49h-5.12c-.82,0-1.49,.67-1.49,1.49v7.69c0,.82,.67,1.49,1.49,1.49h5.12c.82,0,1.49-.67,1.49-1.49Zm-5.12-6.19h2.14v4.7h-2.14v-4.7Z"/>
          <path class="cls-2" d="M297.61,119.87v-17.93c0-.82-.67-1.49-1.49-1.49h-5.12c-.82,0-1.49,.67-1.49,1.49v17.93c0,.82,.67,1.49,1.49,1.49h5.12c.82,0,1.49-.67,1.49-1.49Zm-5.12-16.44h2.14v14.95h-2.14v-14.95Z"/>
          <path class="cls-2" d="M287.36,119.87v-12.81c0-.82-.67-1.49-1.49-1.49h-5.12c-.82,0-1.49,.67-1.49,1.49v12.81c0,.82,.67,1.49,1.49,1.49h5.12c.82,0,1.49-.67,1.49-1.49Zm-5.12-11.32h2.14v9.82h-2.14v-9.82Z"/>
        </g>
        <g>
          <path class="cls-2" d="M42.73,195.4c3.68-3.68,5.7-8.55,5.7-13.72,0-3.43-.89-7.52-2.49-11.5-1.67-4.13-4.03-7.88-6.64-10.55-.28-.29-.66-.45-1.06-.45-.39,0-.77,.15-1.05,.42-.06,.03-.24,.09-.5,.09h-15.37c-.26,0-.44-.06-.5-.09-.28-.27-.65-.42-1.05-.42-.4,0-.78,.16-1.06,.45-2.61,2.68-4.97,6.42-6.64,10.55-1.61,3.98-2.49,8.06-2.49,11.5,0,5.17,2.03,10.04,5.71,13.72,3.68,3.68,8.55,5.71,13.72,5.71s10.04-2.03,13.72-5.71Zm-21.41-32.72h15.37c.31,0,.74-.03,1.21-.16,4.35,4.94,7.54,12.97,7.54,19.16,0,9.06-7.37,16.44-16.44,16.44s-16.44-7.37-16.44-16.44c0-6.2,3.19-14.22,7.54-19.16,.47,.13,.9,.16,1.21,.16Zm15.87-3.08s0,0,0,0c0,0,0,0,0,0Zm-16.38,0"/>
          <path class="cls-2" d="M39.28,161.73l.26-.26c.78-.78,1.21-1.79,1.21-2.85,0-1.73-.98-3.18-2.57-3.81-.54-.25-1.04-.25-1.49-.25h-15.37c-.35,0-.92,0-1.46,.24-.67,.25-1.08,.66-1.39,.97-.78,.78-1.21,1.79-1.21,2.85,0,1.27,.51,2.33,1.53,3.17,.82,.77,1.93,.89,2.53,.89h15.37c.61,0,1.77-.12,2.59-.95Zm-18.57-2.22c-.39-.31-.46-.56-.46-.88,0-.27,.11-.52,.33-.74,.1-.1,.26-.26,.31-.28,.04-.01,.07-.03,.11-.04,.08,0,.23,0,.31,0h15.37c.11,0,.23,0,.3,0,.02,.01,.05,.02,.07,.03,.46,.17,.7,.52,.7,1.04,0,.27-.11,.52-.33,.74l-.24,.24c-.06,.03-.24,.09-.5,.09h-15.37c-.26,0-.44-.06-.5-.09-.03-.03-.07-.06-.11-.09Zm16.46,.11h0s0,0,0,0Zm-16.33,0h0s0,0,0,0Zm.25-2.09s0,0,0,0c0,0,0,0,0,0Zm15.83,0s0,0,0,0c0,0,0,0,0,0Z"/>
          <path class="cls-2" d="M38.13,157.58c.39-.15,.7-.47,.85-.86l2.95-7.81c.17-.46,.11-.97-.17-1.38-.28-.4-.74-.64-1.23-.64H17.48c-.49,0-.95,.24-1.23,.64-.28,.4-.34,.92-.17,1.38l2.95,7.81c.15,.4,.46,.71,.85,.86,.37,.14,.78,.14,1.14-.02,.07,0,.2,0,.3,0h15.37c.11,0,.23,0,.3,0,.19,.08,.39,.12,.6,.12,.18,0,.37-.03,.54-.1Zm-18.5-7.71h18.74l-1.77,4.7h-15.19l-1.77-4.7Z"/>
          <g>
            <path class="cls-2" d="M29.01,187.02h-.26c-1.35,0-2.48-.45-3.36-1.33l-.64-.64c-.58-.58-.58-1.53,0-2.11,.58-.58,1.53-.58,2.11,0l.64,.64c.32,.32,.7,.46,1.25,.46h.26c.97,0,1.71-.73,1.71-1.71s-.73-1.71-1.71-1.71c-2.63,0-4.7-2.06-4.7-4.7s2.06-4.7,4.7-4.7h.26c1.13,0,2.22,.41,3.24,1.22,.04,.03,.08,.07,.12,.11l.64,.64c.58,.58,.58,1.53,0,2.11-.58,.58-1.53,.58-2.11,0l-.58-.58c-.46-.35-.89-.52-1.31-.52h-.26c-.97,0-1.71,.73-1.71,1.71s.73,1.71,1.71,1.71c2.63,0,4.7,2.06,4.7,4.7s-2.06,4.7-4.7,4.7Z"/>
            <path class="cls-2" d="M29.01,174.21c-.82,0-1.49-.67-1.49-1.49v-2.56c0-.82,.67-1.49,1.49-1.49s1.49,.67,1.49,1.49v2.56c0,.82-.67,1.49-1.49,1.49Z"/>
            <path class="cls-2" d="M29.01,189.58c-.82,0-1.49-.67-1.49-1.49v-2.56c0-.82,.67-1.49,1.49-1.49s1.49,.67,1.49,1.49v2.56c0,.82-.67,1.49-1.49,1.49Z"/>
          </g>
        </g>
        <g id="briefcase_simple" data-name="briefcase simple">
          <path class="cls-2" d="M115.72,129.86v-24.27c0-3.06-2.49-5.54-5.54-5.54h-36.42c-3.06,0-5.54,2.49-5.54,5.54v24.27c0,3.06,2.49,5.54,5.54,5.54h36.42c3.06,0,5.54-2.49,5.54-5.54Zm-5.54-26.83c1.41,0,2.56,1.15,2.56,2.56v24.27c0,1.41-1.15,2.56-2.56,2.56h-36.42c-1.41,0-2.56-1.15-2.56-2.56v-24.27c0-1.41,1.15-2.56,2.56-2.56h36.42Z"/>
          <path class="cls-2" d="M115.72,107.75s0-.09,0-.14v-2.11c0-3.06-2.49-5.54-5.54-5.54h-36.42c-3.06,0-5.54,2.49-5.54,5.54,0,.03,0,.07,0,.1v2.1c-.01,5.28,4.27,9.58,9.54,9.6h28.39c5.26,0,9.56-4.28,9.57-9.54Zm-41.97-4.81h36.42c1.41,0,2.56,1.15,2.56,2.56v2.14s0,.07,0,.1c0,3.62-2.96,6.57-6.59,6.57h-28.38c-3.63,0-6.58-2.97-6.57-6.61v-2.21c0-1.41,1.15-2.56,2.56-2.56h0Z"/>
          <rect class="cls-2" x="90.48" y="112.19" width="2.99" height="7.04"/>
          <path class="cls-2" d="M99.2,91.96h-14.45l-2.79,11.06h20.03l-2.79-11.06Zm-12.13,2.99h9.8l1.28,5.09h-12.37l1.28-5.09Z"/>
        </g>
        <g>
          <path class="cls-2" d="M266.55,7.13c-.9,1.67-2.18,2.95-3.84,3.84h0c1.67,.9,2.95,2.18,3.84,3.84h0c.9-1.67,2.18-2.95,3.84-3.84h0c-1.67-.9-2.95-2.18-3.84-3.84h0Z"/>
          <path class="cls-2" d="M288.32,14.82c-.9,1.67-2.18,2.95-3.84,3.84h0c1.67,.9,2.95,2.18,3.84,3.84h0c.9-1.67,2.18-2.95,3.84-3.84h0c-1.67-.9-2.95-2.18-3.84-3.84h0Z"/>
          <path class="cls-2" d="M244.77,14.82c-.9,1.67-2.18,2.95-3.84,3.84h0c1.67,.9,2.95,2.18,3.84,3.84h0c.9-1.67,2.18-2.95,3.84-3.84h0c-1.67-.9-2.95-2.18-3.84-3.84h0Z"/>
          <path class="cls-2" d="M288.54,40.43c0-12.12-9.86-21.99-21.99-21.99s-21.99,9.86-21.99,21.99,9.86,21.99,21.99,21.99,21.99-9.86,21.99-21.99Zm-2.99,0c0,10.48-8.52,19-19,19s-19-8.52-19-19,8.52-19,19-19,19,8.52,19,19Z"/>
          <path class="cls-2" d="M283.03,40.43c0-9.09-7.39-16.48-16.48-16.48s-16.48,7.39-16.48,16.48,7.39,16.48,16.48,16.48,16.48-7.39,16.48-16.48Zm-2.99,0c0,7.44-6.05,13.49-13.49,13.49s-13.49-6.05-13.49-13.49,6.05-13.49,13.49-13.49,13.49,6.05,13.49,13.49Z"/>
          <path class="cls-2" d="M266.55,26.56c-.82,0-1.49-.67-1.49-1.49v-5.12c0-.82,.67-1.49,1.49-1.49s1.49,.67,1.49,1.49v5.12c0,.82-.67,1.49-1.49,1.49Z"/>
          <path class="cls-2" d="M277.44,31.04c-.38,0-.76-.15-1.06-.44-.58-.58-.58-1.53,0-2.11l3.59-3.59c.58-.58,1.53-.58,2.11,0s.58,1.53,0,2.11l-3.59,3.59c-.29,.29-.67,.44-1.06,.44Z"/>
          <path class="cls-2" d="M287.04,41.93h-5.12c-.82,0-1.49-.67-1.49-1.49s.67-1.49,1.49-1.49h5.12c.82,0,1.49,.67,1.49,1.49s-.67,1.49-1.49,1.49Z"/>
          <path class="cls-2" d="M281.02,56.4c-.38,0-.76-.15-1.06-.44l-3.59-3.59c-.58-.58-.58-1.53,0-2.11,.58-.58,1.53-.58,2.11,0l3.59,3.59c.58,.58,.58,1.53,0,2.11-.29,.29-.67,.44-1.06,.44Z"/>
          <path class="cls-2" d="M266.55,62.42c-.82,0-1.49-.67-1.49-1.49v-5.12c0-.82,.67-1.49,1.49-1.49s1.49,.67,1.49,1.49v5.12c0,.82-.67,1.49-1.49,1.49Z"/>
          <path class="cls-2" d="M252.08,56.4c-.38,0-.76-.15-1.06-.44-.58-.58-.58-1.53,0-2.11l3.59-3.59c.58-.58,1.53-.58,2.11,0,.58,.58,.58,1.53,0,2.11l-3.59,3.59c-.29,.29-.67,.44-1.06,.44Z"/>
          <path class="cls-2" d="M251.18,41.93h-5.12c-.82,0-1.49-.67-1.49-1.49s.67-1.49,1.49-1.49h5.12c.82,0,1.49,.67,1.49,1.49s-.67,1.49-1.49,1.49Z"/>
          <path class="cls-2" d="M255.66,31.04c-.38,0-.76-.15-1.06-.44l-3.59-3.59c-.58-.58-.58-1.53,0-2.11,.58-.58,1.53-.58,2.11,0l3.59,3.59c.58,.58,.58,1.53,0,2.11-.29,.29-.67,.44-1.06,.44Z"/>
          <path class="cls-2" d="M266.55,48.33h-.26c-1.35,0-2.48-.45-3.36-1.33l-.64-.64c-.58-.58-.58-1.53,0-2.11,.58-.58,1.53-.58,2.11,0l.64,.64c.32,.32,.7,.46,1.25,.46h.26c.97,0,1.71-.73,1.71-1.71s-.73-1.71-1.71-1.71c-2.63,0-4.7-2.06-4.7-4.7s2.06-4.7,4.7-4.7h.26c1.13,0,2.22,.41,3.24,1.22,.04,.03,.08,.07,.12,.11l.64,.64c.58,.58,.58,1.53,0,2.11-.58,.58-1.53,.58-2.11,0l-.58-.58c-.46-.35-.89-.52-1.31-.52h-.26c-.97,0-1.71,.73-1.71,1.71s.73,1.71,1.71,1.71c2.63,0,4.7,2.06,4.7,4.7s-2.06,4.7-4.7,4.7Z"/>
          <path class="cls-2" d="M266.55,35.52c-.82,0-1.49-.67-1.49-1.49v-2.56c0-.82,.67-1.49,1.49-1.49s1.49,.67,1.49,1.49v2.56c0,.82-.67,1.49-1.49,1.49Z"/>
          <path class="cls-2" d="M266.55,50.89c-.82,0-1.49-.67-1.49-1.49v-2.56c0-.82,.67-1.49,1.49-1.49s1.49,.67,1.49,1.49v2.56c0,.82-.67,1.49-1.49,1.49Z"/>
        </g>
        <g>
          <path class="cls-2" d="M211.2,122.28c0,5.86-2.28,11.37-6.41,15.51-4.14,4.14-9.64,6.41-15.51,6.41s-11.1-2.17-15.2-6.12c-.12-.06-.24-.15-.34-.25-.1-.1-.19-.22-.25-.34-3.95-4.1-6.12-9.48-6.12-15.2s2.28-11.37,6.41-15.51c4.14-4.14,9.64-6.41,15.51-6.41,.76,0,1.38,.62,1.38,1.38v19.17h19.17c.76,0,1.38,.62,1.38,1.38Zm-2.8,1.38h-5.7l4.73,4.8c.52-1.52,.85-3.13,.97-4.8Zm-1.93,7.1l-7-7.1h-5.81l10.59,10.59c.86-1.08,1.61-2.24,2.23-3.49Zm-31.67,4.06l13.11-13.11v-18.55c-9.93,.71-17.79,9.01-17.79,19.12,0,4.79,1.77,9.17,4.68,12.54Zm21.76,5.19l-11.48-11.58-3.54,3.54,9.31,9.41c2.01-.16,3.93-.64,5.71-1.37Zm-19.82-3.24c2.97,2.57,6.73,4.25,10.86,4.61l-7.69-7.78-3.17,3.17Zm25.96-.82l-12.29-12.29h-.56l-3.15,3.15,12.04,12.14c1.45-.83,2.78-1.84,3.97-3Z"/>
          <path class="cls-2" d="M216.02,117.46c0,.76-.62,1.38-1.38,1.38h-20.54c-.76,0-1.38-.62-1.38-1.38v-20.54c0-.76,.62-1.38,1.38-1.38,5.86,0,11.37,2.28,15.51,6.41,4.14,4.14,6.41,9.64,6.41,15.51Zm-2.8-1.38c-.68-9.47-8.27-17.06-17.74-17.74v17.74h17.74Z"/>
        </g>
      </g>
    </pattern>
  </defs>
  <g class="cls-7">
    <g class="cls-13">
      <circle class="cls-5" cx="1433.5" cy="549.12" r="1.5"/>
      <circle class="cls-5" cx="1391.44" cy="549.12" r="1.5"/>
      <circle class="cls-5" cx="1349.38" cy="549.12" r="1.5"/>
      <circle class="cls-5" cx="1307.32" cy="549.12" r="1.5"/>
      <circle class="cls-5" cx="1265.26" cy="549.12" r="1.5"/>
      <circle class="cls-5" cx="1223.2" cy="549.12" r="1.5"/>
      <circle class="cls-5" cx="1181.14" cy="549.12" r="1.5"/>
      <circle class="cls-5" cx="1139.09" cy="549.12" r="1.5"/>
      <circle class="cls-5" cx="1097.03" cy="549.12" r="1.5"/>
      <circle class="cls-5" cx="1054.97" cy="549.12" r="1.5"/>
      <circle class="cls-5" cx="1012.91" cy="549.12" r="1.5"/>
      <circle class="cls-5" cx="970.85" cy="549.12" r="1.5"/>
      <circle class="cls-5" cx="928.79" cy="549.12" r="1.5"/>
      <circle class="cls-5" cx="886.73" cy="549.12" r="1.5"/>
      <circle class="cls-5" cx="844.67" cy="549.12" r="1.5"/>
      <circle class="cls-5" cx="802.62" cy="549.12" r="1.5"/>
      <circle class="cls-5" cx="760.56" cy="549.12" r="1.5"/>
      <circle class="cls-5" cx="718.5" cy="549.12" r="1.5"/>
      <circle class="cls-5" cx="676.44" cy="549.12" r="1.5"/>
      <circle class="cls-5" cx="634.38" cy="549.12" r="1.5"/>
      <circle class="cls-5" cx="592.32" cy="549.12" r="1.5"/>
      <circle class="cls-5" cx="550.26" cy="549.12" r="1.5"/>
      <circle class="cls-5" cx="508.2" cy="549.12" r="1.5"/>
      <circle class="cls-5" cx="466.14" cy="549.12" r="1.5"/>
      <circle class="cls-5" cx="424.09" cy="549.12" r="1.5"/>
      <circle class="cls-5" cx="382.03" cy="549.12" r="1.5"/>
      <circle class="cls-5" cx="339.97" cy="549.12" r="1.5"/>
      <circle class="cls-5" cx="297.91" cy="549.12" r="1.5"/>
      <circle class="cls-5" cx="255.85" cy="549.12" r="1.5"/>
      <circle class="cls-5" cx="213.79" cy="549.12" r="1.5"/>
      <circle class="cls-5" cx="171.73" cy="549.12" r="1.5"/>
      <circle class="cls-5" cx="129.67" cy="549.12" r="1.5"/>
      <circle class="cls-5" cx="87.62" cy="549.12" r="1.5"/>
      <circle class="cls-5" cx="45.56" cy="549.12" r="1.5"/>
      <circle class="cls-5" cx="3.5" cy="549.12" r="1.5"/>
    </g>
    <g class="cls-16">
      <circle class="cls-5" cx="1433.5" cy="521.1" r="1.5"/>
      <circle class="cls-5" cx="1391.44" cy="521.1" r="1.5"/>
      <circle class="cls-5" cx="1349.39" cy="521.1" r="1.5"/>
      <circle class="cls-5" cx="1307.34" cy="521.1" r="1.5"/>
      <circle class="cls-5" cx="1265.29" cy="521.1" r="1.5"/>
      <circle class="cls-5" cx="1223.24" cy="521.1" r="1.5"/>
      <circle class="cls-5" cx="1181.19" cy="521.1" r="1.5"/>
      <circle class="cls-5" cx="1139.13" cy="521.1" r="1.5"/>
      <circle class="cls-5" cx="1097.08" cy="521.1" r="1.5"/>
      <circle class="cls-5" cx="1055.03" cy="521.1" r="1.5"/>
      <circle class="cls-5" cx="1012.98" cy="521.1" r="1.5"/>
      <circle class="cls-5" cx="970.93" cy="521.1" r="1.5"/>
      <circle class="cls-5" cx="928.87" cy="521.1" r="1.5"/>
      <circle class="cls-5" cx="886.82" cy="521.1" r="1.5"/>
      <circle class="cls-5" cx="844.77" cy="521.1" r="1.5"/>
      <circle class="cls-5" cx="802.72" cy="521.1" r="1.5"/>
      <circle class="cls-5" cx="760.67" cy="521.1" r="1.5"/>
      <circle class="cls-5" cx="718.61" cy="521.1" r="1.5"/>
      <circle class="cls-5" cx="676.56" cy="521.1" r="1.5"/>
      <circle class="cls-5" cx="634.51" cy="521.1" r="1.5"/>
      <circle class="cls-5" cx="592.46" cy="521.1" r="1.5"/>
      <circle class="cls-5" cx="550.41" cy="521.1" r="1.5"/>
      <circle class="cls-5" cx="508.35" cy="521.1" r="1.5"/>
      <circle class="cls-5" cx="466.3" cy="521.1" r="1.5"/>
      <circle class="cls-5" cx="424.25" cy="521.1" r="1.5"/>
      <circle class="cls-5" cx="382.2" cy="521.1" r="1.5"/>
      <circle class="cls-5" cx="340.15" cy="521.1" r="1.5"/>
      <circle class="cls-5" cx="298.08" cy="521.1" r="1.5"/>
      <circle class="cls-5" cx="256" cy="521.1" r="1.5"/>
      <circle class="cls-5" cx="213.92" cy="521.1" r="1.5"/>
      <circle class="cls-5" cx="171.84" cy="521.1" r="1.5"/>
      <circle class="cls-5" cx="129.76" cy="521.1" r="1.5"/>
      <circle class="cls-5" cx="87.67" cy="521.1" r="1.5"/>
      <circle class="cls-5" cx="45.59" cy="521.1" r="1.5"/>
      <circle class="cls-5" cx="3.51" cy="521.1" r="1.5"/>
    </g>
    <g class="cls-15">
      <circle class="cls-5" cx="1433.5" cy="493.09" r="1.5"/>
      <circle class="cls-5" cx="1391.44" cy="493.09" r="1.5"/>
      <circle class="cls-5" cx="1349.38" cy="493.09" r="1.5"/>
      <circle class="cls-5" cx="1307.32" cy="493.09" r="1.5"/>
      <circle class="cls-5" cx="1265.26" cy="493.09" r="1.5"/>
      <circle class="cls-5" cx="1223.2" cy="493.09" r="1.5"/>
      <circle class="cls-5" cx="1181.14" cy="493.09" r="1.5"/>
      <circle class="cls-5" cx="1139.09" cy="493.09" r="1.5"/>
      <circle class="cls-5" cx="1097.03" cy="493.09" r="1.5"/>
      <circle class="cls-5" cx="1054.97" cy="493.09" r="1.5"/>
      <circle class="cls-5" cx="1012.91" cy="493.09" r="1.5"/>
      <circle class="cls-5" cx="970.85" cy="493.09" r="1.5"/>
      <circle class="cls-5" cx="928.79" cy="493.09" r="1.5"/>
      <circle class="cls-5" cx="886.73" cy="493.09" r="1.5"/>
      <circle class="cls-5" cx="844.67" cy="493.09" r="1.5"/>
      <circle class="cls-5" cx="802.62" cy="493.09" r="1.5"/>
      <circle class="cls-5" cx="760.56" cy="493.09" r="1.5"/>
      <circle class="cls-5" cx="718.5" cy="493.09" r="1.5"/>
      <circle class="cls-5" cx="676.44" cy="493.09" r="1.5"/>
      <circle class="cls-5" cx="634.38" cy="493.09" r="1.5"/>
      <circle class="cls-5" cx="592.32" cy="493.09" r="1.5"/>
      <circle class="cls-5" cx="550.26" cy="493.09" r="1.5"/>
      <circle class="cls-5" cx="508.2" cy="493.09" r="1.5"/>
      <circle class="cls-5" cx="466.14" cy="493.09" r="1.5"/>
      <circle class="cls-5" cx="424.09" cy="493.09" r="1.5"/>
      <circle class="cls-5" cx="382.03" cy="493.09" r="1.5"/>
      <circle class="cls-5" cx="339.97" cy="493.09" r="1.5"/>
      <circle class="cls-5" cx="297.91" cy="493.09" r="1.5"/>
      <circle class="cls-5" cx="255.85" cy="493.09" r="1.5"/>
      <circle class="cls-5" cx="213.79" cy="493.09" r="1.5"/>
      <circle class="cls-5" cx="171.73" cy="493.09" r="1.5"/>
      <circle class="cls-5" cx="129.67" cy="493.09" r="1.5"/>
      <circle class="cls-5" cx="87.62" cy="493.09" r="1.5"/>
      <circle class="cls-5" cx="45.56" cy="493.09" r="1.5"/>
      <circle class="cls-5" cx="3.5" cy="493.09" r="1.5"/>
    </g>
    <g class="cls-9">
      <circle class="cls-5" cx="1433.5" cy="465.09" r="1.5"/>
      <circle class="cls-5" cx="1391.44" cy="465.09" r="1.5"/>
      <circle class="cls-5" cx="1349.38" cy="465.09" r="1.5"/>
      <circle class="cls-5" cx="1307.32" cy="465.09" r="1.5"/>
      <circle class="cls-5" cx="1265.26" cy="465.09" r="1.5"/>
      <circle class="cls-5" cx="1223.2" cy="465.09" r="1.5"/>
      <circle class="cls-5" cx="1181.14" cy="465.09" r="1.5"/>
      <circle class="cls-5" cx="1139.09" cy="465.09" r="1.5"/>
      <circle class="cls-5" cx="1097.03" cy="465.09" r="1.5"/>
      <circle class="cls-5" cx="1054.97" cy="465.09" r="1.5"/>
      <circle class="cls-5" cx="1012.91" cy="465.09" r="1.5"/>
      <circle class="cls-5" cx="970.85" cy="465.09" r="1.5"/>
      <circle class="cls-5" cx="928.79" cy="465.09" r="1.5"/>
      <circle class="cls-5" cx="886.73" cy="465.09" r="1.5"/>
      <circle class="cls-5" cx="844.67" cy="465.09" r="1.5"/>
      <circle class="cls-5" cx="802.62" cy="465.09" r="1.5"/>
      <circle class="cls-5" cx="760.56" cy="465.09" r="1.5"/>
      <circle class="cls-5" cx="718.5" cy="465.09" r="1.5"/>
      <circle class="cls-5" cx="676.44" cy="465.09" r="1.5"/>
      <circle class="cls-5" cx="634.38" cy="465.09" r="1.5"/>
      <circle class="cls-5" cx="592.32" cy="465.09" r="1.5"/>
      <circle class="cls-5" cx="550.26" cy="465.09" r="1.5"/>
      <circle class="cls-5" cx="508.2" cy="465.09" r="1.5"/>
      <circle class="cls-5" cx="466.14" cy="465.09" r="1.5"/>
      <circle class="cls-5" cx="424.09" cy="465.09" r="1.5"/>
      <circle class="cls-5" cx="382.03" cy="465.09" r="1.5"/>
      <circle class="cls-5" cx="339.97" cy="465.09" r="1.5"/>
      <circle class="cls-5" cx="297.91" cy="465.09" r="1.5"/>
      <circle class="cls-5" cx="255.85" cy="465.09" r="1.5"/>
      <circle class="cls-5" cx="213.79" cy="465.09" r="1.5"/>
      <circle class="cls-5" cx="171.73" cy="465.09" r="1.5"/>
      <circle class="cls-5" cx="129.67" cy="465.09" r="1.5"/>
      <circle class="cls-5" cx="87.62" cy="465.09" r="1.5"/>
      <circle class="cls-5" cx="45.56" cy="465.09" r="1.5"/>
      <circle class="cls-5" cx="3.5" cy="465.09" r="1.5"/>
    </g>
    <g class="cls-8">
      <circle class="cls-5" cx="1433.5" cy="437.09" r="1.5"/>
      <circle class="cls-5" cx="1391.44" cy="437.09" r="1.5"/>
      <circle class="cls-5" cx="1349.38" cy="437.09" r="1.5"/>
      <circle class="cls-5" cx="1307.32" cy="437.09" r="1.5"/>
      <circle class="cls-5" cx="1265.26" cy="437.09" r="1.5"/>
      <circle class="cls-5" cx="1223.2" cy="437.09" r="1.5"/>
      <circle class="cls-5" cx="1181.14" cy="437.09" r="1.5"/>
      <circle class="cls-5" cx="1139.09" cy="437.09" r="1.5"/>
      <circle class="cls-5" cx="1097.03" cy="437.09" r="1.5"/>
      <circle class="cls-5" cx="1054.97" cy="437.09" r="1.5"/>
      <circle class="cls-5" cx="1012.91" cy="437.09" r="1.5"/>
      <circle class="cls-5" cx="970.85" cy="437.09" r="1.5"/>
      <circle class="cls-5" cx="928.79" cy="437.09" r="1.5"/>
      <circle class="cls-5" cx="886.73" cy="437.09" r="1.5"/>
      <circle class="cls-5" cx="844.67" cy="437.09" r="1.5"/>
      <circle class="cls-5" cx="802.62" cy="437.09" r="1.5"/>
      <circle class="cls-5" cx="760.56" cy="437.09" r="1.5"/>
      <circle class="cls-5" cx="718.5" cy="437.09" r="1.5"/>
      <circle class="cls-5" cx="676.44" cy="437.09" r="1.5"/>
      <circle class="cls-5" cx="634.38" cy="437.09" r="1.5"/>
      <circle class="cls-5" cx="592.32" cy="437.09" r="1.5"/>
      <circle class="cls-5" cx="550.26" cy="437.09" r="1.5"/>
      <circle class="cls-5" cx="508.2" cy="437.09" r="1.5"/>
      <circle class="cls-5" cx="466.14" cy="437.09" r="1.5"/>
      <circle class="cls-5" cx="424.09" cy="437.09" r="1.5"/>
      <circle class="cls-5" cx="382.03" cy="437.09" r="1.5"/>
      <circle class="cls-5" cx="339.97" cy="437.09" r="1.5"/>
      <circle class="cls-5" cx="297.91" cy="437.09" r="1.5"/>
      <circle class="cls-5" cx="255.85" cy="437.09" r="1.5"/>
      <circle class="cls-5" cx="213.79" cy="437.09" r="1.5"/>
      <circle class="cls-5" cx="171.73" cy="437.09" r="1.5"/>
      <circle class="cls-5" cx="129.67" cy="437.09" r="1.5"/>
      <circle class="cls-5" cx="87.62" cy="437.09" r="1.5"/>
      <circle class="cls-5" cx="45.56" cy="437.09" r="1.5"/>
      <circle class="cls-5" cx="3.5" cy="437.09" r="1.5"/>
    </g>
    <g class="cls-7">
      <circle class="cls-4" cx="1433.5" cy="409.09" r="1.5"/>
      <circle class="cls-4" cx="1391.44" cy="409.09" r="1.5"/>
      <circle class="cls-4" cx="1349.38" cy="409.09" r="1.5"/>
      <circle class="cls-4" cx="1307.32" cy="409.09" r="1.5"/>
      <circle class="cls-4" cx="1265.26" cy="409.09" r="1.5"/>
      <circle class="cls-4" cx="1223.2" cy="409.09" r="1.5"/>
      <circle class="cls-4" cx="1181.14" cy="409.09" r="1.5"/>
      <circle class="cls-4" cx="1139.09" cy="409.09" r="1.5"/>
      <circle class="cls-4" cx="1097.03" cy="409.09" r="1.5"/>
      <circle class="cls-4" cx="1054.97" cy="409.09" r="1.5"/>
      <circle class="cls-4" cx="1012.91" cy="409.09" r="1.5"/>
      <circle class="cls-4" cx="970.85" cy="409.09" r="1.5"/>
      <circle class="cls-4" cx="928.79" cy="409.09" r="1.5"/>
      <circle class="cls-4" cx="886.73" cy="409.09" r="1.5"/>
      <circle class="cls-4" cx="844.67" cy="409.09" r="1.5"/>
      <circle class="cls-4" cx="802.62" cy="409.09" r="1.5"/>
      <circle class="cls-4" cx="760.56" cy="409.09" r="1.5"/>
      <circle class="cls-4" cx="718.5" cy="409.09" r="1.5"/>
      <circle class="cls-4" cx="676.44" cy="409.09" r="1.5"/>
      <circle class="cls-4" cx="634.38" cy="409.09" r="1.5"/>
      <circle class="cls-4" cx="592.32" cy="409.09" r="1.5"/>
      <circle class="cls-4" cx="550.26" cy="409.09" r="1.5"/>
      <circle class="cls-4" cx="508.2" cy="409.09" r="1.5"/>
      <circle class="cls-4" cx="466.14" cy="409.09" r="1.5"/>
      <circle class="cls-4" cx="424.09" cy="409.09" r="1.5"/>
      <circle class="cls-4" cx="382.03" cy="409.09" r="1.5"/>
      <circle class="cls-4" cx="339.97" cy="409.09" r="1.5"/>
      <circle class="cls-4" cx="297.91" cy="409.09" r="1.5"/>
      <circle class="cls-4" cx="255.85" cy="409.09" r="1.5"/>
      <circle class="cls-4" cx="213.79" cy="409.09" r="1.5"/>
      <circle class="cls-4" cx="171.73" cy="409.09" r="1.5"/>
      <circle class="cls-4" cx="129.67" cy="409.09" r="1.5"/>
      <circle class="cls-4" cx="87.62" cy="409.09" r="1.5"/>
      <circle class="cls-4" cx="45.56" cy="409.09" r="1.5"/>
      <circle class="cls-4" cx="3.5" cy="409.09" r="1.5"/>
    </g>
    <g class="cls-6">
      <circle class="cls-5" cx="1433.5" cy="381.09" r="1.5"/>
      <circle class="cls-5" cx="1391.44" cy="381.09" r="1.5"/>
      <circle class="cls-5" cx="1349.38" cy="381.09" r="1.5"/>
      <circle class="cls-5" cx="1307.32" cy="381.09" r="1.5"/>
      <circle class="cls-5" cx="1265.26" cy="381.09" r="1.5"/>
      <circle class="cls-5" cx="1223.2" cy="381.09" r="1.5"/>
      <circle class="cls-5" cx="1181.14" cy="381.09" r="1.5"/>
      <circle class="cls-5" cx="1139.09" cy="381.09" r="1.5"/>
      <circle class="cls-5" cx="1097.03" cy="381.09" r="1.5"/>
      <circle class="cls-5" cx="1054.97" cy="381.09" r="1.5"/>
      <circle class="cls-5" cx="1012.91" cy="381.09" r="1.5"/>
      <circle class="cls-5" cx="970.85" cy="381.09" r="1.5"/>
      <circle class="cls-5" cx="928.79" cy="381.09" r="1.5"/>
      <circle class="cls-5" cx="886.73" cy="381.09" r="1.5"/>
      <circle class="cls-5" cx="844.67" cy="381.09" r="1.5"/>
      <circle class="cls-5" cx="802.62" cy="381.09" r="1.5"/>
      <circle class="cls-5" cx="760.56" cy="381.09" r="1.5"/>
      <circle class="cls-5" cx="718.5" cy="381.09" r="1.5"/>
      <circle class="cls-5" cx="676.44" cy="381.09" r="1.5"/>
      <circle class="cls-5" cx="634.38" cy="381.09" r="1.5"/>
      <circle class="cls-5" cx="592.32" cy="381.09" r="1.5"/>
      <circle class="cls-5" cx="550.26" cy="381.09" r="1.5"/>
      <circle class="cls-5" cx="508.2" cy="381.09" r="1.5"/>
      <circle class="cls-5" cx="466.14" cy="381.09" r="1.5"/>
      <circle class="cls-5" cx="424.09" cy="381.09" r="1.5"/>
      <circle class="cls-5" cx="382.03" cy="381.09" r="1.5"/>
      <circle class="cls-5" cx="339.97" cy="381.09" r="1.5"/>
      <circle class="cls-5" cx="297.91" cy="381.09" r="1.5"/>
      <circle class="cls-5" cx="255.85" cy="381.09" r="1.5"/>
      <circle class="cls-5" cx="213.79" cy="381.09" r="1.5"/>
      <circle class="cls-5" cx="171.73" cy="381.09" r="1.5"/>
      <circle class="cls-5" cx="129.67" cy="381.09" r="1.5"/>
      <circle class="cls-5" cx="87.62" cy="381.09" r="1.5"/>
      <circle class="cls-5" cx="45.56" cy="381.09" r="1.5"/>
      <circle class="cls-5" cx="3.5" cy="381.09" r="1.5"/>
    </g>
    <g class="cls-10">
      <circle class="cls-5" cx="1433.5" cy="353.09" r="1.5"/>
      <circle class="cls-5" cx="1391.44" cy="353.09" r="1.5"/>
      <circle class="cls-5" cx="1349.38" cy="353.09" r="1.5"/>
      <circle class="cls-5" cx="1307.32" cy="353.09" r="1.5"/>
      <circle class="cls-5" cx="1265.26" cy="353.09" r="1.5"/>
      <circle class="cls-5" cx="1223.2" cy="353.09" r="1.5"/>
      <circle class="cls-5" cx="1181.14" cy="353.09" r="1.5"/>
      <circle class="cls-5" cx="1139.09" cy="353.09" r="1.5"/>
      <circle class="cls-5" cx="1097.03" cy="353.09" r="1.5"/>
      <circle class="cls-5" cx="1054.97" cy="353.09" r="1.5"/>
      <circle class="cls-5" cx="1012.91" cy="353.09" r="1.5"/>
      <circle class="cls-5" cx="970.85" cy="353.09" r="1.5"/>
      <circle class="cls-5" cx="928.79" cy="353.09" r="1.5"/>
      <circle class="cls-5" cx="886.73" cy="353.09" r="1.5"/>
      <circle class="cls-5" cx="844.67" cy="353.09" r="1.5"/>
      <circle class="cls-5" cx="802.62" cy="353.09" r="1.5"/>
      <circle class="cls-5" cx="760.56" cy="353.09" r="1.5"/>
      <circle class="cls-5" cx="718.5" cy="353.09" r="1.5"/>
      <circle class="cls-5" cx="676.44" cy="353.09" r="1.5"/>
      <circle class="cls-5" cx="634.38" cy="353.09" r="1.5"/>
      <circle class="cls-5" cx="592.32" cy="353.09" r="1.5"/>
      <circle class="cls-5" cx="550.26" cy="353.09" r="1.5"/>
      <circle class="cls-5" cx="508.2" cy="353.09" r="1.5"/>
      <circle class="cls-5" cx="466.14" cy="353.09" r="1.5"/>
      <circle class="cls-5" cx="424.09" cy="353.09" r="1.5"/>
      <circle class="cls-5" cx="382.03" cy="353.09" r="1.5"/>
      <circle class="cls-5" cx="339.97" cy="353.09" r="1.5"/>
      <circle class="cls-5" cx="297.91" cy="353.09" r="1.5"/>
      <circle class="cls-5" cx="255.85" cy="353.09" r="1.5"/>
      <circle class="cls-5" cx="213.79" cy="353.09" r="1.5"/>
      <circle class="cls-5" cx="171.73" cy="353.09" r="1.5"/>
      <circle class="cls-5" cx="129.67" cy="353.09" r="1.5"/>
      <circle class="cls-5" cx="87.62" cy="353.09" r="1.5"/>
      <circle class="cls-5" cx="45.56" cy="353.09" r="1.5"/>
      <circle class="cls-5" cx="3.5" cy="353.09" r="1.5"/>
    </g>
    <circle class="cls-5" cx="1433.5" cy="325.09" r="1.5"/>
    <circle class="cls-5" cx="1391.44" cy="325.09" r="1.5"/>
    <circle class="cls-5" cx="1349.38" cy="325.09" r="1.5"/>
    <circle class="cls-5" cx="1307.32" cy="325.09" r="1.5"/>
    <circle class="cls-5" cx="1265.26" cy="325.09" r="1.5"/>
    <circle class="cls-5" cx="1223.2" cy="325.09" r="1.5"/>
    <circle class="cls-5" cx="1181.14" cy="325.09" r="1.5"/>
    <circle class="cls-5" cx="1139.09" cy="325.09" r="1.5"/>
    <circle class="cls-5" cx="1097.03" cy="325.09" r="1.5"/>
    <circle class="cls-5" cx="1054.97" cy="325.09" r="1.5"/>
    <circle class="cls-5" cx="1012.91" cy="325.09" r="1.5"/>
    <circle class="cls-5" cx="970.85" cy="325.09" r="1.5"/>
    <circle class="cls-5" cx="928.79" cy="325.09" r="1.5"/>
    <circle class="cls-5" cx="886.73" cy="325.09" r="1.5"/>
    <circle class="cls-5" cx="844.67" cy="325.09" r="1.5"/>
    <circle class="cls-5" cx="802.62" cy="325.09" r="1.5"/>
    <circle class="cls-5" cx="760.56" cy="325.09" r="1.5"/>
    <circle class="cls-5" cx="718.5" cy="325.09" r="1.5"/>
    <circle class="cls-5" cx="676.44" cy="325.09" r="1.5"/>
    <circle class="cls-5" cx="634.38" cy="325.09" r="1.5"/>
    <circle class="cls-5" cx="592.32" cy="325.09" r="1.5"/>
    <circle class="cls-5" cx="550.26" cy="325.09" r="1.5"/>
    <circle class="cls-5" cx="508.2" cy="325.09" r="1.5"/>
    <circle class="cls-5" cx="466.14" cy="325.09" r="1.5"/>
    <circle class="cls-5" cx="424.09" cy="325.09" r="1.5"/>
    <circle class="cls-5" cx="382.03" cy="325.09" r="1.5"/>
    <circle class="cls-5" cx="339.97" cy="325.09" r="1.5"/>
    <circle class="cls-5" cx="297.91" cy="325.09" r="1.5"/>
    <circle class="cls-5" cx="255.85" cy="325.09" r="1.5"/>
    <circle class="cls-5" cx="213.79" cy="325.09" r="1.5"/>
    <circle class="cls-5" cx="171.73" cy="325.09" r="1.5"/>
    <circle class="cls-5" cx="129.67" cy="325.09" r="1.5"/>
    <circle class="cls-5" cx="87.62" cy="325.09" r="1.5"/>
    <circle class="cls-5" cx="45.56" cy="325.09" r="1.5"/>
    <circle class="cls-5" cx="3.5" cy="325.09" r="1.5"/>
    <circle class="cls-5" cx="1433.5" cy="297.09" r="1.5"/>
    <circle class="cls-5" cx="1391.44" cy="297.09" r="1.5"/>
    <circle class="cls-5" cx="1349.38" cy="297.09" r="1.5"/>
    <circle class="cls-5" cx="1307.32" cy="297.09" r="1.5"/>
    <circle class="cls-5" cx="1265.26" cy="297.09" r="1.5"/>
    <circle class="cls-5" cx="1223.2" cy="297.09" r="1.5"/>
    <circle class="cls-5" cx="1181.14" cy="297.09" r="1.5"/>
    <circle class="cls-5" cx="1139.09" cy="297.09" r="1.5"/>
    <circle class="cls-5" cx="1097.03" cy="297.09" r="1.5"/>
    <circle class="cls-5" cx="1054.97" cy="297.09" r="1.5"/>
    <circle class="cls-5" cx="1012.91" cy="297.09" r="1.5"/>
    <circle class="cls-5" cx="970.85" cy="297.09" r="1.5"/>
    <circle class="cls-5" cx="928.79" cy="297.09" r="1.5"/>
    <circle class="cls-5" cx="886.73" cy="297.09" r="1.5"/>
    <circle class="cls-5" cx="844.67" cy="297.09" r="1.5"/>
    <circle class="cls-5" cx="802.62" cy="297.09" r="1.5"/>
    <circle class="cls-5" cx="760.56" cy="297.09" r="1.5"/>
    <circle class="cls-5" cx="718.5" cy="297.09" r="1.5"/>
    <circle class="cls-5" cx="676.44" cy="297.09" r="1.5"/>
    <circle class="cls-5" cx="634.38" cy="297.09" r="1.5"/>
    <circle class="cls-5" cx="592.32" cy="297.09" r="1.5"/>
    <circle class="cls-5" cx="550.26" cy="297.09" r="1.5"/>
    <circle class="cls-5" cx="508.2" cy="297.09" r="1.5"/>
    <circle class="cls-5" cx="466.14" cy="297.09" r="1.5"/>
    <circle class="cls-5" cx="424.09" cy="297.09" r="1.5"/>
    <circle class="cls-5" cx="382.03" cy="297.09" r="1.5"/>
    <circle class="cls-5" cx="339.97" cy="297.09" r="1.5"/>
    <circle class="cls-5" cx="297.91" cy="297.09" r="1.5"/>
    <circle class="cls-5" cx="255.85" cy="297.09" r="1.5"/>
    <circle class="cls-5" cx="213.79" cy="297.09" r="1.5"/>
    <circle class="cls-5" cx="171.73" cy="297.09" r="1.5"/>
    <circle class="cls-5" cx="129.67" cy="297.09" r="1.5"/>
    <circle class="cls-5" cx="87.62" cy="297.09" r="1.5"/>
    <circle class="cls-5" cx="45.56" cy="297.09" r="1.5"/>
    <circle class="cls-5" cx="3.5" cy="297.09" r="1.5"/>
  </g>
  <g>
    <path class="cls-11" d="M519.35,342.74C-515.87,470.74-437.06,149.8-420.57,0H1865.68V486.38c-233.58-83.43-693.41-224.36-1346.32-143.64Z"/>
    <g class="cls-14">
      <path class="cls-1" d="M519.35,342.74C-515.87,470.74-437.06,149.8-420.57,0H1865.68V486.38c-233.58-83.43-693.41-224.36-1346.32-143.64Z"/>
    </g>
  </g>
</svg>