<svg width="20" height="17" viewBox="0 0 20 17" fill="none" xmlns="http://www.w3.org/2000/svg">
<path d="M2 16.6482C1.45 16.6482 0.979167 16.4524 0.5875 16.0607C0.195833 15.669 0 15.1982 0 14.6482V2.64819C0 2.09819 0.195833 1.62736 0.5875 1.23569C0.979167 0.844027 1.45 0.648193 2 0.648193H18C18.55 0.648193 19.0208 0.844027 19.4125 1.23569C19.8042 1.62736 20 2.09819 20 2.64819V14.6482C20 15.1982 19.8042 15.669 19.4125 16.0607C19.0208 16.4524 18.55 16.6482 18 16.6482H2ZM10 9.64819L2 4.64819V14.6482H18V4.64819L10 9.64819ZM10 7.64819L18 2.64819H2L10 7.64819ZM2 4.64819V2.64819V14.6482V4.64819Z" fill="#D01A1C"/>
</svg>
