<svg width="30" height="31" viewBox="0 0 30 31" fill="none" xmlns="http://www.w3.org/2000/svg">
<path d="M14.8387 18.4636C14.3847 18.4636 13.9606 18.38 13.5663 18.2127C13.172 18.0454 12.8256 17.8125 12.5269 17.5138C12.2282 17.2151 11.9952 16.8626 11.828 16.4564C11.6607 16.0502 11.5771 15.6201 11.5771 15.1661C11.5771 14.7121 11.6607 14.288 11.828 13.8937C11.9952 13.4994 12.2282 13.153 12.5269 12.8543C12.8256 12.5556 13.172 12.3226 13.5663 12.1554C13.9606 11.9881 14.3847 11.9045 14.8387 11.9045C15.7467 11.9045 16.5173 12.2211 17.1505 12.8543C17.7838 13.4875 18.1004 14.2581 18.1004 15.1661C18.1004 15.6201 18.0167 16.0502 17.8495 16.4564C17.6822 16.8626 17.4492 17.2151 17.1505 17.5138C16.8519 17.8125 16.5054 18.0454 16.1111 18.2127C15.7168 18.38 15.2927 18.4636 14.8387 18.4636ZM20.0717 15.1661C20.0717 14.9511 20.0597 14.73 20.0358 14.503C20.0119 14.276 19.9761 14.067 19.9283 13.8758H21.3979V21.0801C21.3979 21.2713 21.3381 21.4266 21.2186 21.546C21.0992 21.6655 20.9438 21.7253 20.7527 21.7253H8.92473C8.73357 21.7253 8.57826 21.6655 8.45878 21.546C8.33931 21.4266 8.27957 21.2713 8.27957 21.0801V13.8758H9.7491C9.70131 14.067 9.66547 14.276 9.64158 14.503C9.61768 14.73 9.60573 14.9511 9.60573 15.1661C9.60573 15.883 9.74313 16.564 10.0179 17.2091C10.2927 17.8543 10.6631 18.4158 11.129 18.8937C11.595 19.3716 12.1505 19.748 12.7957 20.0227C13.4409 20.2975 14.1219 20.4349 14.8387 20.4349C15.5556 20.4349 16.2366 20.2975 16.8817 20.0227C17.5269 19.748 18.0824 19.3716 18.5484 18.8937C19.0143 18.4158 19.3847 17.8543 19.6595 17.2091C19.9343 16.564 20.0717 15.883 20.0717 15.1661ZM14.9821 0.148193C17.0609 0.148193 19.0084 0.542459 20.8244 1.33099C22.6404 2.11952 24.2294 3.18881 25.5914 4.53887C26.9534 5.88893 28.0287 7.47197 28.8172 9.28798C29.6057 11.104 30 13.0514 30 15.1303C30 17.2091 29.6057 19.1566 28.8172 20.9726C28.0287 22.7886 26.9534 24.3776 25.5914 25.7396C24.2294 27.1016 22.6404 28.1769 20.8244 28.9654C19.0084 29.7539 17.0609 30.1482 14.9821 30.1482C12.9032 30.1482 10.9558 29.7539 9.13979 28.9654C7.32378 28.1769 5.74074 27.1016 4.39068 25.7396C3.04062 24.3776 1.97133 22.7886 1.1828 20.9726C0.394265 19.1566 0 17.2091 0 15.1303C0 13.0514 0.394265 11.104 1.1828 9.28798C1.97133 7.47197 3.04062 5.88893 4.39068 4.53887C5.74074 3.18881 7.32378 2.11952 9.13979 1.33099C10.9558 0.542459 12.9032 0.148193 14.9821 0.148193ZM23.3692 8.60698C23.3692 8.05739 23.178 7.59144 22.7957 7.20913C22.4134 6.82681 21.9474 6.63565 21.3979 6.63565H8.27957C7.72999 6.63565 7.26404 6.82681 6.88172 7.20913C6.4994 7.59144 6.30824 8.05739 6.30824 8.60698V21.7253C6.30824 22.2748 6.4994 22.7408 6.88172 23.1231C7.26404 23.5054 7.72999 23.6966 8.27957 23.6966H21.3979C21.9474 23.6966 22.4134 23.5054 22.7957 23.1231C23.178 22.7408 23.3692 22.2748 23.3692 21.7253V8.60698ZM20.7527 8.60698C20.9438 8.60698 21.0992 8.67269 21.2186 8.80411C21.3381 8.93553 21.3979 9.09682 21.3979 9.28798V11.2593C21.3979 11.4505 21.3381 11.6058 21.2186 11.7253C21.0992 11.8447 20.9438 11.9045 20.7527 11.9045H18.7814C18.5902 11.9045 18.4289 11.8447 18.2975 11.7253C18.1661 11.6058 18.1004 11.4505 18.1004 11.2593V9.28798C18.1004 9.09682 18.1661 8.93553 18.2975 8.80411C18.4289 8.67269 18.5902 8.60698 18.7814 8.60698H20.7527Z" fill="#D01A1C"/>
</svg>
