<svg width="30" height="31" viewBox="0 0 30 31" fill="none" xmlns="http://www.w3.org/2000/svg">
<path d="M14.9821 0.148193C17.0609 0.148193 19.0084 0.542459 20.8244 1.33099C22.6404 2.11952 24.2294 3.18881 25.5914 4.53887C26.9534 5.88893 28.0287 7.47197 28.8172 9.28798C29.6057 11.104 30 13.0514 30 15.1303C30 17.2091 29.6057 19.1566 28.8172 20.9726C28.0287 22.7886 26.9534 24.3776 25.5914 25.7396C24.2294 27.1016 22.6404 28.1769 20.8244 28.9654C19.0084 29.7539 17.0609 30.1482 14.9821 30.1482C12.9032 30.1482 10.9558 29.7539 9.13979 28.9654C7.32378 28.1769 5.74074 27.1016 4.39068 25.7396C3.04062 24.3776 1.97133 22.7886 1.1828 20.9726C0.394265 19.1566 0 17.2091 0 15.1303C0 13.0514 0.394265 11.104 1.1828 9.28798C1.97133 7.47197 3.04062 5.88893 4.39068 4.53887C5.74074 3.18881 7.32378 2.11952 9.13979 1.33099C10.9558 0.542459 12.9032 0.148193 14.9821 0.148193ZM10.3226 11.4027H6.55914V23.5891H10.3226V11.4027ZM8.42294 10.4349C8.94863 10.4349 9.39666 10.2557 9.76703 9.8973C10.1374 9.53887 10.3226 9.09682 10.3226 8.57113C10.3226 8.04545 10.1374 7.60339 9.76703 7.24497C9.39666 6.88655 8.94863 6.70733 8.42294 6.70733C7.89725 6.70733 7.4552 6.88655 7.09677 7.24497C6.73835 7.60339 6.55914 8.04545 6.55914 8.57113C6.55914 9.09682 6.73835 9.53887 7.09677 9.8973C7.4552 10.2557 7.89725 10.4349 8.42294 10.4349ZM23.4409 16.5281C23.4409 15.6679 23.2019 14.8256 22.724 14.0012C22.2461 13.1769 21.6249 12.5496 20.8602 12.1195C20.1673 11.7372 19.3608 11.5341 18.4409 11.5102C17.5209 11.4863 16.6786 11.6416 15.914 11.9762V11.4027H12.1864V23.5891H15.914V16.1339L17.491 15.3812C17.6822 15.2856 17.9391 15.2378 18.2617 15.2378C18.5842 15.2378 18.8411 15.2975 19.0323 15.417C19.1756 15.4887 19.319 15.644 19.4624 15.883C19.6057 16.1219 19.6774 16.337 19.6774 16.5281V23.5891H23.4409V16.5281Z" fill="#D01A1C"/>
</svg>
