<svg width="195" height="310" viewBox="0 0 195 310" fill="none" xmlns="http://www.w3.org/2000/svg">
<path d="M82.5462 282.254L82.5691 282.485C83.0337 287.166 83.4139 290.996 84.0202 293.932C84.6306 296.889 85.611 299.742 87.8659 301.784C90.0381 303.751 92.6944 304.494 95.4835 304.829C98.1502 305.149 101.51 305.148 105.511 305.148H105.757H160.873H161.158C166.743 305.148 171.323 305.149 174.827 304.703C178.392 304.249 181.816 303.234 184.155 300.368C186.539 297.447 186.771 293.704 186.459 289.98C186.145 286.243 185.159 281.425 183.943 275.481L183.888 275.213C182.242 267.169 180.972 258.028 180.972 249.02C180.972 236.485 182.998 223.096 185.127 212.097C186.188 206.612 187.266 201.764 188.118 197.934L188.232 197.422C188.997 193.991 189.64 191.104 189.791 189.595C190.049 187.023 190.761 179.855 190.934 171.777C191.104 163.836 190.773 154.48 188.706 147.763C187.489 143.81 186.066 140.598 184.702 137.516C181.41 130.084 178.457 123.417 179.556 108.976C180.403 97.852 178.949 90.2664 176.161 85.1313C173.293 79.8464 169.206 77.5173 165.75 76.6287C158.309 74.7154 148.891 79.4528 141.399 90.7466C135.492 99.6507 70.6503 183.023 50.8444 208.456C50.7148 208.622 50.5859 208.787 50.4578 208.951C48.0528 212.029 45.9447 214.727 45.6581 218.685C45.3723 222.633 46.8358 225.2 48.4967 228.113C48.5628 228.229 48.6293 228.346 48.6959 228.463C51.3014 233.044 55.3543 238.842 61.4368 244.627C67.2342 250.14 72.1955 257.43 75.8728 264.293C79.5873 271.224 81.7711 277.303 82.2844 280.264C82.3847 280.843 82.4723 281.51 82.5462 282.254Z" fill="#27B4E9" stroke="white" stroke-width="8"/>
<path d="M68.2223 38.9754L40.0461 13.1126C32.4518 6.14182 20.6441 6.64294 13.6732 14.2368C6.70218 21.8306 7.21144 33.6374 14.8058 40.6082L42.9819 66.471C50.5762 73.4418 62.3839 72.9407 69.3549 65.3469C76.3259 57.753 75.8166 45.9462 68.2223 38.9754Z" fill="#27B4E9" stroke="white" stroke-width="8"/>
<path d="M128.066 4H55.8067C46.0565 4 38.1523 11.9038 38.1523 21.6535V206.552C38.1523 216.302 46.0565 224.205 55.8067 224.205H128.066C137.816 224.205 145.72 216.302 145.72 206.552V21.6535C145.72 11.9038 137.816 4 128.066 4Z" fill="#FDFEFE" stroke="#171818" stroke-width="7" stroke-miterlimit="10"/>
<path d="M101.739 16.2885H82.1217C79.6447 16.2885 77.6367 18.2964 77.6367 20.7732V21.4394C77.6367 23.9163 79.6447 25.9242 82.1217 25.9242H101.739C104.216 25.9242 106.224 23.9163 106.224 21.4394V20.7732C106.224 18.2964 104.216 16.2885 101.739 16.2885Z" fill="#171818" stroke="#171818" stroke-width="0.05" stroke-miterlimit="10"/>
<path d="M146.826 94.3733V69.7487" stroke="#171818" stroke-width="2.73" stroke-miterlimit="10" stroke-linecap="round"/>
<path d="M36.7715 84.0952V100.809" stroke="#171818" stroke-width="2.25" stroke-miterlimit="10" stroke-linecap="round"/>
<path d="M36.7715 63.2179V79.9317" stroke="#171818" stroke-width="2.25" stroke-miterlimit="10" stroke-linecap="round"/>
<path d="M36.7715 45.3026V55.0335" stroke="#171818" stroke-width="1.72" stroke-miterlimit="10" stroke-linecap="round"/>
<path d="M71.3179 114.251V155.483L87.5327 146.882V114.251C89.46 112.824 96.7406 113.062 100.143 113.359C105.247 112.467 116.953 121.686 111.849 129.371C107.769 135.545 96.5383 131.953 91.4348 129.371V146.882C102.725 154.234 110.945 152.211 115.454 150.141C143.672 134.415 125.661 109.208 115.454 105.948C131.3 93.838 122.461 79.777 116.049 74.2097L106.781 87.2596C110.35 97.6923 102.641 100.952 98.3347 101.202H87.5327V85.4871H103.141L112.729 72.7227H56.6139C54.4487 72.9607 53.3066 75.1971 53.0449 76.2915V92.6246C54.9721 88.8179 60.0519 86.296 62.3479 85.4871H71.3536V101.499H63.2164C60.5754 101.499 59.5166 104.021 59.3143 105.282V118.998C61.1587 116.836 63.5378 115.195 66.2143 114.24L71.3179 114.251Z" fill="#D01A1C"/>
<path d="M51.9945 179.3L35.343 164.015C27.7487 157.045 15.941 157.546 8.97003 165.14C1.99905 172.733 2.50832 184.54 10.1026 191.511L26.7542 206.795C34.3485 213.766 46.1562 213.265 53.1271 205.671C60.0981 198.077 59.5889 186.271 51.9945 179.3Z" fill="#27B4E9" stroke="white" stroke-width="8"/>
<path d="M57.9374 133.125L35.9836 112.974C28.3893 106.003 16.5816 106.504 9.61066 114.098C2.63968 121.692 3.14894 133.499 10.7433 140.469L32.697 160.621C40.2913 167.591 52.099 167.09 59.07 159.496C66.0409 151.903 65.5317 140.096 57.9374 133.125Z" fill="#27B4E9" stroke="white" stroke-width="8"/>
<path d="M68.5498 89.1519L43.9055 66.531C36.3112 59.5602 24.5035 60.0613 17.5325 67.6551C10.5616 75.249 11.0708 87.0558 18.6651 94.0266L43.3094 116.647C50.9037 123.618 62.7114 123.117 69.6824 115.523C76.6534 107.929 76.1441 96.1227 68.5498 89.1519Z" fill="#27B4E9" stroke="white" stroke-width="8"/>
</svg>
