<svg width="16" height="17" viewBox="0 0 16 17" fill="none" xmlns="http://www.w3.org/2000/svg">
<path d="M15.0667 16.6482C13.2148 16.6482 11.3852 16.2445 9.57778 15.4371C7.77037 14.6297 6.12593 13.4852 4.64444 12.0037C3.16296 10.5223 2.01852 8.87782 1.21111 7.07042C0.403704 5.26301 0 3.43338 0 1.58153C0 1.31486 0.0888889 1.09264 0.266667 0.91486C0.444444 0.737082 0.666667 0.648193 0.933333 0.648193H4.53333C4.74074 0.648193 4.92593 0.718564 5.08889 0.859304C5.25185 1.00005 5.34815 1.16671 5.37778 1.3593L5.95556 4.47042C5.98519 4.70745 5.97778 4.90745 5.93333 5.07042C5.88889 5.23338 5.80741 5.37412 5.68889 5.49264L3.53333 7.67042C3.82963 8.21856 4.18148 8.74819 4.58889 9.25931C4.9963 9.77042 5.44444 10.263 5.93333 10.7371C6.39259 11.1963 6.87407 11.6223 7.37778 12.0149C7.88148 12.4075 8.41481 12.7667 8.97778 13.0926L11.0667 11.0037C11.2 10.8704 11.3741 10.7704 11.5889 10.7037C11.8037 10.6371 12.0148 10.6186 12.2222 10.6482L15.2889 11.2704C15.4963 11.3297 15.6667 11.4371 15.8 11.5926C15.9333 11.7482 16 11.9223 16 12.1149V15.7149C16 15.9815 15.9111 16.2037 15.7333 16.3815C15.5556 16.5593 15.3333 16.6482 15.0667 16.6482ZM2.68889 5.98153L4.15556 4.51486L3.77778 2.42597H1.8C1.87407 3.03338 1.97778 3.63338 2.11111 4.22597C2.24444 4.81856 2.43704 5.40375 2.68889 5.98153ZM10.6444 13.9371C11.2222 14.1889 11.8111 14.3889 12.4111 14.5371C13.0111 14.6852 13.6148 14.7815 14.2222 14.826V12.8704L12.1333 12.4482L10.6444 13.9371Z" fill="#D01A1C"/>
</svg>
