<svg width="23" height="29" viewBox="0 0 23 29" fill="none" xmlns="http://www.w3.org/2000/svg">
<path d="M11.5 14.5233C12.2906 14.5233 12.9674 14.2417 13.5305 13.6787C14.0935 13.1157 14.375 12.4389 14.375 11.6483C14.375 10.8576 14.0935 10.1808 13.5305 9.61779C12.9674 9.05476 12.2906 8.77325 11.5 8.77325C10.7094 8.77325 10.0326 9.05476 9.46953 9.61779C8.90651 10.1808 8.625 10.8576 8.625 11.6483C8.625 12.4389 8.90651 13.1157 9.46953 13.6787C10.0326 14.2417 10.7094 14.5233 11.5 14.5233ZM11.5 25.0889C14.4229 22.4055 16.5911 19.9678 18.0047 17.7756C19.4182 15.5834 20.125 13.6368 20.125 11.9358C20.125 9.3243 19.2924 7.18601 17.6273 5.52091C15.9622 3.85581 13.9198 3.02325 11.5 3.02325C9.08021 3.02325 7.03776 3.85581 5.37266 5.52091C3.70755 7.18601 2.875 9.3243 2.875 11.9358C2.875 13.6368 3.58177 15.5834 4.99531 17.7756C6.40885 19.9678 8.57708 22.4055 11.5 25.0889ZM11.5 28.8983C7.64271 25.616 4.76172 22.5673 2.85703 19.7522C0.952344 16.9371 0 14.3316 0 11.9358C0 8.342 1.15599 5.47898 3.46797 3.34669C5.77995 1.2144 8.45729 0.148254 11.5 0.148254C14.5427 0.148254 17.2201 1.2144 19.532 3.34669C21.844 5.47898 23 8.342 23 11.9358C23 14.3316 22.0477 16.9371 20.143 19.7522C18.2383 22.5673 15.3573 25.616 11.5 28.8983Z" fill="#D01A1C"/>
</svg>
