<svg width="37" height="36" viewBox="0 0 37 36" fill="none" xmlns="http://www.w3.org/2000/svg">
<path d="M18.2553 21.3154C17.8013 21.3154 17.3772 21.2318 16.9829 21.0645C16.5887 20.8973 16.2422 20.6643 15.9435 20.3656C15.6448 20.0669 15.4118 19.7145 15.2446 19.3082C15.0773 18.902 14.9937 18.4719 14.9937 18.0179C14.9937 17.5639 15.0773 17.1398 15.2446 16.7455C15.4118 16.3513 15.6448 16.0048 15.9435 15.7061C16.2422 15.4074 16.5887 15.1744 16.9829 15.0072C17.3772 14.8399 17.8013 14.7563 18.2553 14.7563C19.1633 14.7563 19.934 15.0729 20.5672 15.7061C21.2004 16.3393 21.517 17.1099 21.517 18.0179C21.517 18.4719 21.4334 18.902 21.2661 19.3082C21.0988 19.7145 20.8659 20.0669 20.5672 20.3656C20.2685 20.6643 19.922 20.8973 19.5277 21.0645C19.1335 21.2318 18.7093 21.3154 18.2553 21.3154ZM23.4883 18.0179C23.4883 17.8029 23.4764 17.5818 23.4525 17.3548C23.4286 17.1278 23.3927 16.9188 23.3449 16.7276H24.8145V23.9319C24.8145 24.1231 24.7547 24.2784 24.6353 24.3979C24.5158 24.5173 24.3605 24.5771 24.1693 24.5771H12.3414C12.1502 24.5771 11.9949 24.5173 11.8754 24.3979C11.7559 24.2784 11.6962 24.1231 11.6962 23.9319V16.7276H13.1657C13.1179 16.9188 13.0821 17.1278 13.0582 17.3548C13.0343 17.5818 13.0224 17.8029 13.0224 18.0179C13.0224 18.7348 13.1598 19.4158 13.4345 20.0609C13.7093 20.7061 14.0797 21.2676 14.5457 21.7455C15.0116 22.2234 15.5672 22.5998 16.2123 22.8746C16.8575 23.1493 17.5385 23.2867 18.2553 23.2867C18.9722 23.2867 19.6532 23.1493 20.2983 22.8746C20.9435 22.5998 21.4991 22.2234 21.965 21.7455C22.431 21.2676 22.8013 20.7061 23.0761 20.0609C23.3509 19.4158 23.4883 18.7348 23.4883 18.0179ZM18.3987 3C20.4776 3 22.425 3.39427 24.241 4.1828C26.057 4.97133 27.646 6.04062 29.008 7.39068C30.37 8.74074 31.4453 10.3238 32.2338 12.1398C33.0224 13.9558 33.4166 15.9032 33.4166 17.9821C33.4166 20.0609 33.0224 22.0084 32.2338 23.8244C31.4453 25.6404 30.37 27.2294 29.008 28.5914C27.646 29.9534 26.057 31.0287 24.241 31.8172C22.425 32.6057 20.4776 33 18.3987 33C16.3199 33 14.3724 32.6057 12.5564 31.8172C10.7404 31.0287 9.15737 29.9534 7.80731 28.5914C6.45725 27.2294 5.38795 25.6404 4.59942 23.8244C3.81089 22.0084 3.41663 20.0609 3.41663 17.9821C3.41663 15.9032 3.81089 13.9558 4.59942 12.1398C5.38795 10.3238 6.45725 8.74074 7.80731 7.39068C9.15737 6.04062 10.7404 4.97133 12.5564 4.1828C14.3724 3.39427 16.3199 3 18.3987 3ZM26.7858 11.4588C26.7858 10.9092 26.5946 10.4433 26.2123 10.0609C25.83 9.67861 25.3641 9.48746 24.8145 9.48746H11.6962C11.1466 9.48746 10.6807 9.67861 10.2983 10.0609C9.91603 10.4433 9.72487 10.9092 9.72487 11.4588V24.5771C9.72487 25.1266 9.91603 25.5926 10.2983 25.9749C10.6807 26.3572 11.1466 26.5484 11.6962 26.5484H24.8145C25.3641 26.5484 25.83 26.3572 26.2123 25.9749C26.5946 25.5926 26.7858 25.1266 26.7858 24.5771V11.4588ZM24.1693 11.4588C24.3605 11.4588 24.5158 11.5245 24.6353 11.6559C24.7547 11.7873 24.8145 11.9486 24.8145 12.1398V14.1111C24.8145 14.3023 24.7547 14.4576 24.6353 14.5771C24.5158 14.6965 24.3605 14.7563 24.1693 14.7563H22.198C22.0068 14.7563 21.8455 14.6965 21.7141 14.5771C21.5827 14.4576 21.517 14.3023 21.517 14.1111V12.1398C21.517 11.9486 21.5827 11.7873 21.7141 11.6559C21.8455 11.5245 22.0068 11.4588 22.198 11.4588H24.1693Z" fill="#E0E9EC"/>
</svg>
