<svg width="200" height="253" viewBox="0 0 200 253" fill="none" xmlns="http://www.w3.org/2000/svg">
<path d="M50 202.382H150V177.088H50V202.382ZM50 151.794H150V126.5H50V151.794ZM25 252.971C18.125 252.971 12.2396 250.494 7.34375 245.54C2.44792 240.587 0 234.632 0 227.676V25.3234C0 18.3675 2.44792 12.4129 7.34375 7.45945C12.2396 2.50601 18.125 0.0292969 25 0.0292969H125L200 75.9117V227.676C200 234.632 197.552 240.587 192.656 245.54C187.76 250.494 181.875 252.971 175 252.971H25ZM112.5 88.5587V25.3234H25V227.676H175V88.5587H112.5Z" fill="#0080BB"/>
</svg>
