<svg width="22" height="20" viewBox="0 0 22 20" fill="none" xmlns="http://www.w3.org/2000/svg">
<path d="M10.9189 0.753418C10.733 0.771892 10.5581 0.854474 10.4248 0.987793C10.2725 1.14015 10.1865 1.34659 10.1865 1.56201V10.8501L8.19922 8.86182L8.13965 8.80811C7.99493 8.68951 7.81277 8.62354 7.62402 8.62354C7.40844 8.62361 7.20127 8.70937 7.04883 8.86182L6.99512 8.92139C6.87651 9.06611 6.81152 9.24826 6.81152 9.43701C6.81152 9.62577 6.87651 9.80792 6.99512 9.95264L7.04883 10.0122L10.4238 13.3872C10.4803 13.4438 10.5451 13.4912 10.6152 13.5288L10.6875 13.563C10.7861 13.6039 10.8922 13.6255 10.999 13.6255C11.0792 13.6255 11.1589 13.6135 11.2354 13.5903L11.3105 13.563C11.3846 13.5323 11.454 13.4916 11.5156 13.4409L11.5742 13.3872L14.9492 10.0122C15.1017 9.8597 15.1875 9.65269 15.1875 9.43701C15.1875 9.22133 15.1017 9.01432 14.9492 8.86182L14.8896 8.80811C14.7449 8.68951 14.5628 8.62354 14.374 8.62354C14.1855 8.6236 14.004 8.6897 13.8594 8.80811L13.7988 8.86182L11.8115 10.8501V1.56201C11.8115 1.34669 11.7264 1.14013 11.5742 0.987793L11.5146 0.933105C11.3701 0.814613 11.1876 0.749512 10.999 0.749512L10.9189 0.753418Z" fill="#FDFEFE" stroke="#FDFEFE" stroke-width="0.5"/>
<path d="M2.5625 13.1255C2.34701 13.1255 2.14065 13.2114 1.98828 13.3638L1.93359 13.4233C1.81532 13.5679 1.75 13.7496 1.75 13.938V16.7505C1.75 17.3306 1.95197 17.8896 2.31641 18.3345L2.48242 18.5181C2.95126 18.9869 3.58696 19.2505 4.25 19.2505H17.75C18.3301 19.2505 18.8891 19.0485 19.334 18.6841L19.5176 18.5181C19.9864 18.0492 20.25 17.4135 20.25 16.7505V13.938C20.25 13.7225 20.1641 13.5161 20.0117 13.3638L19.9521 13.3091C19.8076 13.1908 19.6259 13.1255 19.4375 13.1255C19.222 13.1255 19.0157 13.2114 18.8633 13.3638L18.8086 13.4233C18.6903 13.5679 18.625 13.7496 18.625 13.938V16.7505C18.625 16.9826 18.5332 17.2055 18.3691 17.3696L18.3047 17.4272C18.149 17.5549 17.9531 17.6255 17.75 17.6255H4.25C4.01794 17.6255 3.79495 17.5337 3.63086 17.3696L3.57324 17.3052C3.4456 17.1495 3.375 16.9536 3.375 16.7505V13.938C3.375 13.7225 3.28909 13.5161 3.13672 13.3638L3.07715 13.3091C2.93263 13.1908 2.75089 13.1255 2.5625 13.1255Z" fill="#FDFEFE" stroke="#FDFEFE" stroke-width="0.5"/>
</svg>
